<svg xmlns="http://www.w3.org/2000/svg" viewBox="0 0 39 12"><defs><style>.cls-1{fill:#fff;}</style></defs><g id="Layer_2" data-name="Layer 2"><g id="Layer_1-2" data-name="Layer 1"><rect width="39" height="12" rx="1.2"/><path class="cls-1" d="M8,5.72a1.57,1.57,0,0,1,.8-1.33,1.75,1.75,0,0,0-1.35-.7c-.57,0-1.12.33-1.41.33s-.74-.32-1.22-.31a1.83,1.83,0,0,0-1.52.88,3.49,3.49,0,0,0,.46,3.52c.32.43.68.91,1.16.89s.65-.28,1.22-.28S6.87,9,7.36,9s.82-.43,1.13-.86a3.68,3.68,0,0,0,.51-1A1.58,1.58,0,0,1,8,5.72Z"/><path class="cls-1" d="M7.09,3.12A1.51,1.51,0,0,0,7.46,2a1.74,1.74,0,0,0-1.08.53A1.45,1.45,0,0,0,6,3.61,1.42,1.42,0,0,0,7.09,3.12Z"/><path class="cls-1" d="M13.43,5.07,12,9h.64L13,8h1.52L14.88,9h.65l-1.43-4Zm-.27,2.4.59-1.74h0l.59,1.74Z"/><path class="cls-1" d="M17.41,6.11a1,1,0,0,0-.92.52h0V6.14H15.9V10h.6V8.56h0a1,1,0,0,0,.91.51c.73,0,1.21-.58,1.21-1.48S18.14,6.11,17.41,6.11Zm-.16,2.46c-.45,0-.76-.39-.76-1s.31-1,.76-1,.77.39.77,1S17.72,8.57,17.25,8.57Z"/><path class="cls-1" d="M20.6,6.11a1,1,0,0,0-.93.52h0V6.14h-.57V10h.59V8.56h0a1,1,0,0,0,.91.51c.72,0,1.21-.58,1.21-1.48S21.33,6.11,20.6,6.11Zm-.16,2.46c-.45,0-.76-.39-.76-1s.31-1,.76-1,.76.39.76,1S20.9,8.57,20.44,8.57Z"/><path class="cls-1" d="M25.21,6.8l-.44-.11c-.51-.13-.72-.29-.72-.57s.33-.6.8-.6a.75.75,0,0,1,.85.64h.6A1.28,1.28,0,0,0,24.86,5c-.85,0-1.44.47-1.44,1.16s.34.89,1.06,1.07l.52.12c.51.13.73.31.73.62s-.36.62-.86.62-.9-.26-.95-.66h-.61c0,.72.64,1.18,1.52,1.18s1.53-.47,1.53-1.21C26.36,7.32,26,7,25.21,6.8Z"/><path class="cls-1" d="M27.64,5.46H27v.68h-.42v.47H27V8.28c0,.56.23.78.82.78a1.42,1.42,0,0,0,.33,0V8.56l-.2,0c-.24,0-.35-.12-.35-.37V6.61h.55V6.14h-.55Z"/><path class="cls-1" d="M29.88,6.11a1.33,1.33,0,0,0-1.37,1.48,1.38,1.38,0,1,0,2.75,0A1.34,1.34,0,0,0,29.88,6.11Zm0,2.48c-.48,0-.76-.37-.76-1s.28-1,.76-1,.77.37.77,1S30.37,8.59,29.88,8.59Z"/><path class="cls-1" d="M32.33,6.64h0v-.5h-.56V9h.59V7.32A.59.59,0,0,1,33,6.66a.87.87,0,0,1,.27,0V6.14a.58.58,0,0,0-.21,0A.69.69,0,0,0,32.33,6.64Z"/><path class="cls-1" d="M36,7.74v-.2a1.27,1.27,0,0,0-1.3-1.43,1.33,1.33,0,0,0-1.34,1.5,1.32,1.32,0,0,0,1.36,1.47A1.16,1.16,0,0,0,36,8.19H35.4a.66.66,0,0,1-.67.41A.75.75,0,0,1,34,7.78v0ZM34.7,6.59a.7.7,0,0,1,.71.74H34A.74.74,0,0,1,34.7,6.59Z"/><path class="cls-1" d="M12.75,2.09a.88.88,0,0,1,1,.94.87.87,0,0,1-1,.94H12V2.09Zm-.43,1.62h.39A.62.62,0,0,0,13.4,3a.63.63,0,0,0-.69-.67h-.39Z"/><path class="cls-1" d="M14.09,3.26a.74.74,0,0,1,1.47,0,.74.74,0,1,1-1.47,0Zm1.15,0c0-.3-.15-.48-.42-.48s-.42.18-.42.48.16.49.42.49S15.24,3.57,15.24,3.26Z"/><path class="cls-1" d="M17.52,4H17.2l-.32-1h0l-.32,1h-.32l-.43-1.42h.32l.28,1.09h0l.32-1.09H17l.32,1.09h0l.28-1.09H18Z"/><path class="cls-1" d="M18.31,2.55h.3v.23h0a.47.47,0,0,1,.47-.25.48.48,0,0,1,.54.52V4h-.31V3.12A.3.3,0,0,0,19,2.78a.34.34,0,0,0-.37.36V4h-.31Z"/><path class="cls-1" d="M20.13,2h.31V4h-.31Z"/><path class="cls-1" d="M20.87,3.26a.74.74,0,0,1,1.47,0,.74.74,0,1,1-1.47,0Zm1.15,0c0-.3-.15-.48-.42-.48s-.41.18-.41.48.15.49.41.49S22,3.57,22,3.26Z"/><path class="cls-1" d="M22.67,3.57c0-.25.21-.4.58-.42l.42,0V3c0-.15-.11-.23-.32-.23s-.29.06-.32.16h-.3c0-.25.28-.4.64-.4S24,2.7,24,3V4h-.3v-.2h0a.54.54,0,0,1-.47.23C22.89,4,22.67,3.83,22.67,3.57Zm1-.12V3.33l-.38,0c-.22,0-.31.08-.31.21s.12.2.29.2S23.67,3.63,23.67,3.45Z"/><path class="cls-1" d="M24.38,3.26A.65.65,0,0,1,25,2.53a.51.51,0,0,1,.48.25h0V2h.31V4h-.29V3.75h0A.56.56,0,0,1,25,4,.65.65,0,0,1,24.38,3.26Zm.32,0c0,.3.16.48.42.48s.42-.18.42-.48a.42.42,0,0,0-.42-.48C24.86,2.78,24.7,3,24.7,3.26Z"/><path class="cls-1" d="M27.12,3.26a.74.74,0,0,1,1.47,0,.74.74,0,1,1-1.47,0Zm1.16,0c0-.3-.16-.48-.42-.48s-.42.18-.42.48.15.49.42.49S28.28,3.57,28.28,3.26Z"/><path class="cls-1" d="M29,2.55h.29v.23h0a.46.46,0,0,1,.46-.25.48.48,0,0,1,.54.52V4H30V3.12a.3.3,0,0,0-.34-.34.34.34,0,0,0-.37.36V4H29Z"/><path class="cls-1" d="M32.08,2.2v.36h.34V2.8h-.34v.73c0,.14.07.21.22.21h.12V4h-.17c-.34,0-.48-.11-.48-.38V2.8h-.25V2.56h.25V2.2Z"/><path class="cls-1" d="M32.84,2h.3v.78h0a.47.47,0,0,1,.47-.25.49.49,0,0,1,.54.53V4h-.31V3.13c0-.23-.11-.35-.33-.35a.35.35,0,0,0-.39.36V4h-.31Z"/><path class="cls-1" d="M36,3.59A.64.64,0,0,1,35.3,4a.67.67,0,0,1-.72-.73.68.68,0,0,1,.72-.74.65.65,0,0,1,.7.71v.1H34.9v0a.39.39,0,0,0,.41.4c.19,0,.32-.06.37-.17ZM34.9,3.13h.79a.37.37,0,0,0-.39-.37A.38.38,0,0,0,34.9,3.13Z"/></g></g></svg>