<?xml version="1.0" encoding="UTF-8"?>
<svg id="Layer_2" data-name="Layer 2" xmlns="http://www.w3.org/2000/svg" viewBox="0 0 3 2.29">
  <g id="Layer_1-2" data-name="Layer 1">
    <g>
      <path d="M0,.45c.04-.08,.07-.09,.19-.08,0,.01,0,.02,0,.04,0,.43,0,.86,0,1.29,0,.07,.02,.14,.06,.19,.05,.06,.12,.1,.21,.1,.1,0,.2,.01,.3,.03,.17,.03,.33,.09,.46,.2,.01,.01,.03,.02,.04,.03,0,0,0,0,0,.01-.06-.01-.12-.02-.17-.03-.17-.02-.34-.03-.51-.01-.15,.02-.29,.04-.44,.06-.07,.01-.11,0-.14-.08V.45Z"/>
      <path d="M1.42,2.17s-.08-.07-.13-.11c-.16-.12-.35-.19-.54-.22-.09-.01-.18-.02-.27-.02-.08,0-.12-.05-.12-.12,0-.53,0-1.05,0-1.58,0-.08,.05-.12,.13-.12,.15,0,.3,.02,.44,.07,.2,.07,.36,.18,.47,.35,.01,.02,.03,.05,.03,.08,0,.55,0,1.1,0,1.65,0,0,0,0,0,.01Z"/>
      <path d="M1.58,2.17s0-.03,0-.04c0-.53,0-1.05,0-1.58,0-.08,.03-.14,.07-.2,.15-.18,.34-.28,.57-.33,.1-.02,.2-.03,.31-.03,.07,0,.12,.04,.12,.12,0,.29,0,.58,0,.88,0,.23,0,.47,0,.7,0,.09-.04,.13-.13,.13-.21,0-.42,.04-.62,.13-.11,.05-.2,.11-.29,.2,0,0-.01,.01-.02,.02,0,0,0,0,0,0Z"/>
      <path d="M2.81,.37s.06,0,.09,0c.05,0,.09,.05,.09,.1,0,0,0,.02,0,.03,0,.56,0,1.12,0,1.67,0,.03,0,.05-.02,.07-.02,.04-.06,.05-.1,.05-.08-.01-.16-.03-.23-.04-.3-.05-.6-.05-.91,.02,.02-.02,.03-.03,.05-.04,.15-.12,.32-.18,.5-.21,.08-.01,.17-.02,.25-.02,.17,0,.28-.12,.28-.29,0-.4,0-.8,0-1.2,0-.04,0-.08,0-.13Z"/>
    </g>
  </g>
</svg>