<svg xmlns="http://www.w3.org/2000/svg" xmlns:xlink="http://www.w3.org/1999/xlink" viewBox="0 0 328.13 404.27"><defs><style>.cls-1{fill:#254a63;}.cls-2{fill:#0b8a85;}.cls-3{fill:#eeab67;}.cls-4{fill:#fbca8e;}.cls-5{fill:url(#linear-gradient);}.cls-6{fill:#a56052;}.cls-7{fill:url(#linear-gradient-2);}.cls-8{fill:#643619;}.cls-9{fill:#994d1d;}.cls-10{fill:url(#linear-gradient-3);}.cls-11{fill:#f4a29d;}.cls-12{fill:#b06523;}.cls-13{fill:#46271e;}.cls-14{font-size:102.91px;font-family:Raleway-Black, Raleway;font-weight:800;}.cls-14,.cls-15{fill:#fff;}.cls-15{stroke:#000;stroke-miterlimit:10;stroke-width:0.06px;}.cls-16{fill:#f43131;}.cls-17{font-size:2.48px;font-family:Poppins-Medium, Poppins;font-weight:500;}</style><linearGradient id="linear-gradient" x1="358.03" y1="139.27" x2="343.88" y2="148.06" gradientTransform="translate(-185.96 -28.51) rotate(14.55)" gradientUnits="userSpaceOnUse"><stop offset="0" stop-color="#d38278"/><stop offset="1" stop-color="#f6b9ad" stop-opacity="0"/></linearGradient><linearGradient id="linear-gradient-2" x1="319.48" y1="126.67" x2="324.11" y2="142.37" gradientTransform="translate(-185.96 -28.51) rotate(14.55)" gradientUnits="userSpaceOnUse"><stop offset="0" stop-color="#da9c68"/><stop offset="1" stop-color="#da9c68" stop-opacity="0"/></linearGradient><linearGradient id="linear-gradient-3" x1="523.68" y1="55.57" x2="532.56" y2="85.67" gradientTransform="matrix(-0.97, 0.25, 0.25, 0.97, 630.08, -28.51)" xlink:href="#linear-gradient-2"/></defs><g id="Layer_2" data-name="Layer 2"><g id="OBJECTS"><path class="cls-1" d="M81.41,376.29c-5.76,13.88-10.54,24-10.54,24s-1.89-24.37-4.3-36c-.68-3.31-1.41-5.59-2.14-6-1.5-.83-6.06,5.13-11.77,13.6-6.51,9.67-14.52,22.6-21.14,32.37H0c3.94-11.58,30-85.75,57-107.46a27.42,27.42,0,0,1,9.78-5.35,71.37,71.37,0,0,1,9.88-2,37.15,37.15,0,0,1,10.13,0c12.78,2,12.65,12.3,12.65,12.3C106.32,311.69,92.16,350.44,81.41,376.29Z"/><path class="cls-1" d="M109.28,309s28.6-26,49.15-21.85c30.72,6.23,59.59,86,60.36,93.68s-6.49,33.39-36.64,17.36c-10.55-5.61-24.09-39.92-22.45-36.47s-3.34,29.47-3.34,29.47S101.21,326.38,109.28,309Z"/><path class="cls-2" d="M162.58,368.66q0,3.18-.08,6.24c-.1,3.26-.43,14.88-.84,29.37H62.25c1.37-13.25,2.85-26.9,4.32-40,4.15-36.79,8.28-69,10.09-74.9.17-.57.33-.89.46-1,.73-.31,2.83-1.12,6.08-2.12a135.77,135.77,0,0,1,20.1-4.43c2.35-.32,4.82-.63,7.4-.86a95.84,95.84,0,0,1,20.44.92c3,.4,5.91.89,8.68,1.39,6.36,1.17,11.88,2.49,15.23,3.35,2.17.53,3.43.89,3.43.89C156.47,300.15,162.54,338.54,162.58,368.66Z"/><path class="cls-1" d="M86.94,286.24c0,.29,0,1.37-.15,3.14-.56,10.71-2.75,46.73-5.38,86.91-.6,9.19-1.22,18.61-1.86,28H50.88c.6-11,1.2-21.9,1.78-32.37,2.25-40.55,4.13-74.21,4.13-74.21a2.1,2.1,0,0,1,.21-.88c2-4.46,18.64-9.2,26.2-10.47C85.48,286,86.94,285.9,86.94,286.24Z"/><path class="cls-1" d="M171.41,404.27H133.74c.39-11.49.93-25.56,1.52-40,1.24-29.61,2.75-60.77,3.85-74.42.26-3.19.5-5.44.71-6.49.08-.45.16-.68.24-.68,8.87.31,20.91,4.43,20.91,4.43.08.23.16.48.24.76,2.86,9.82,6.25,51.57,9,95.73C170.61,390.47,171,397.4,171.41,404.27Z"/><path class="cls-3" d="M131.51,281.73l-2.27-58.22-22.68,1.58L103.3,282C110,286.7,124.25,286.79,131.51,281.73Z"/><path class="cls-4" d="M76.28,198.61c3.72,9.62,3.64,17-2.64,19.82s-19.86-.88-23.58-10.51-1.63-19.7,4.65-22.49S72.57,189,76.28,198.61Z"/><path class="cls-4" d="M60.76,210c5.05,33,28.56,55.11,61.72,52.18,30.17-2.67,51-44.84,51.88-83.3s-19.77-68.9-56.19-68.34C62.38,111.44,50.12,140.56,60.76,210Z"/><path class="cls-4" d="M156.57,195.54c-3.83,9.58-3.85,17,2.4,19.86s19.87-.64,23.7-10.22,1.88-19.68-4.37-22.55S160.4,186,156.57,195.54Z"/><path class="cls-5" d="M108.26,192.05c8.83-1.76,16.28-.31,17.94,6.24s-7.29,10.56-14.62,11.42S101.38,193.43,108.26,192.05Z"/><path class="cls-6" d="M104.37,193.29a26.81,26.81,0,0,1,10.73-2.18,18.79,18.79,0,0,1,5.58.88,11.3,11.3,0,0,1,5,3.12,6.57,6.57,0,0,1,1.42,2.81,6,6,0,0,1-.14,3.15,10.12,10.12,0,0,1-3.43,4.72,20.65,20.65,0,0,1-4.77,2.87,31,31,0,0,1-5.17,1.79,38.86,38.86,0,0,0,8.9-5.82c.31-.3.58-.63.87-.94s.52-.66.78-1a7.4,7.4,0,0,0,1-2.16,4.37,4.37,0,0,0-1-4.15,9.67,9.67,0,0,0-4.06-2.63,20.25,20.25,0,0,0-5-1.11A40.38,40.38,0,0,0,104.37,193.29Z"/><path class="cls-7" d="M104.4,173.43c.81,6.06,4.21,18.57-12.84,20s-13-13.91-13-13.91S96.61,174.23,104.4,173.43Z"/><path class="cls-8" d="M99,191.88A2.33,2.33,0,1,1,97.3,189,2.32,2.32,0,0,1,99,191.88Z"/><path class="cls-9" d="M100.73,173c-19.55,1.36-30.28,9.13-17.85,9S113.62,172.09,100.73,173Z"/><path class="cls-10" d="M124.89,155.48c-.81,6.06-5.52,36.52,11.53,37.94s12.77-25.79,12.77-25.79S132.68,156.27,124.89,155.48Z"/><path class="cls-8" d="M129.46,191.88a2.32,2.32,0,1,0,1.66-2.84A2.32,2.32,0,0,0,129.46,191.88Z"/><path class="cls-9" d="M129.08,155.26c18.74,5.73,27.44,15.73,15.36,12.83S116.73,151.47,129.08,155.26Z"/><path class="cls-11" d="M81.67,198c0,1.31-3.41,2.38-7.61,2.38s-7.6-1.07-7.6-2.38,3.4-2.38,7.6-2.38S81.67,196.65,81.67,198Z"/><path class="cls-11" d="M161.84,198c0,1.31-3.4,2.38-7.6,2.38s-7.61-1.07-7.61-2.38,3.41-2.38,7.61-2.38S161.84,196.65,161.84,198Z"/><path class="cls-12" d="M63.41,232.9c7.11,16.1,17,27.72,28.42,32.19,20.59,8.09,38.42,5.57,53.67-3C179.8,242.74,173,144.84,173,144.84l-9.69,1.89s2.54,64.27-6.39,74.79c-3.8,4.49-19.19-4.25-39.56-4.45-24.08-.23-43.86,10.49-47.37,5.69-4.22-5.75-10.63-39.36-3-76.52,3-14.81-14.81-.48-14.81-.48S54.22,212.08,63.41,232.9Z"/><path class="cls-12" d="M94.93,107l6.11-4.39c8.14-6.76,35.46-13.74,45.34-5.61-2.34,0-.72,1.43-3.07,1.55,13.62,3.06,36,8.9,37.55,38.61.71,13.48-1.36,32.08-3.92,45-3.12.31-3-1.09-5.43.9a9.23,9.23,0,0,0-3.09,3.75c.6-15.08-4.28-35.53-15.19-47.46-5.09-5.56-18.68-3.07-26-4.65-9.24-2-17.88-5.24-25-11.27C94,116.37,89.2,112.68,94.93,107Z"/><path class="cls-12" d="M106.64,102.32c8.82,3,20.28,5.36,25.28,13.87l-2.74-.83c9.25,11.08-18.25,41.23-25.34,48.42-8.1,8.22-18.62,12.38-28.73,14.81a16.32,16.32,0,0,1,.37-5.58,12.13,12.13,0,0,0,.82-2.93,28.93,28.93,0,0,0-.82,2.93,26.38,26.38,0,0,1-4.78,7.71c-3.78,3.88-12.7,16-13.55,25.42-12.31-49-14.61-77.34,8.26-97.91C77,97.78,100.58,100.25,106.64,102.32Z"/><path class="cls-13" d="M94,235.63l1.07-.25a4.56,4.56,0,0,1,1.11,0,3.87,3.87,0,0,1,1.12.19,5.64,5.64,0,0,1,1.07.37c1.37.61,2.57,1.4,3.8,2A19.35,19.35,0,0,0,110,240a47.71,47.71,0,0,0,8.34-.28c1.4-.22,2.81-.33,4.22-.55s2.82-.44,4.27-.57c-1.33.56-2.69,1-4,1.53s-2.78.77-4.19,1.12c-.7.18-1.43.27-2.15.38s-1.43.25-2.17.3a29.59,29.59,0,0,1-4.42.06c-.37,0-.74,0-1.11-.09l-1.11-.19-1.1-.2-1.08-.32a16.15,16.15,0,0,1-4.07-1.92c-1.24-.8-2.32-1.76-3.47-2.51A6.41,6.41,0,0,0,94,235.63Z"/><path class="cls-4" d="M146.72,264.84c-7-3.44-22.81-14.64-26.66-16.34s-9.87,1.7-4.78,5.86,9.25,7.86,9.25,7.86c-4.93-2.93-7.74-3.31-9.24-.78s.47,6.2,4.6,10.42c-2.25.66-4.41,4.32-2.25,7.23-3.38.66-2.44,4.89.84,8.36s19,18.4,27.7,19.81,16.09-6.27,17.28-15.12c.84-6.29,1.08-15.72-3.29-18.68C153.79,269.14,149.61,266.26,146.72,264.84Z"/><path class="cls-4" d="M145.39,255.91c.69-3.78,2.84-6.58,5.34-5.67s-.09,6.25,4,11.25,7.33,10.5,6.08,15.75S143,269.24,145.39,255.91Z"/><path class="cls-4" d="M161.2,289c11,24.55,49.32,64,55,82S207.67,404,189.91,399s-26.73-44.27-31.12-60.27-9.86-30.9-14-34.84C145.9,295.85,155,289.53,161.2,289Z"/><circle class="cls-1" cx="255.8" cy="72.33" r="72.33" transform="translate(128.29 305.58) rotate(-77.12)"/><text class="cls-14" transform="translate(224.83 105.79) rotate(9.52)">?</text><circle class="cls-1" cx="213.12" cy="134.71" r="13.99" transform="translate(45.87 323.38) rotate(-80.74)"/><circle class="cls-1" cx="199.78" cy="156.67" r="6.83"/><circle class="cls-1" cx="183.52" cy="154.72" r="4.07"/><rect class="cls-15" x="87.64" y="344.24" width="44.17" height="26.5" rx="3.26"/><path d="M113.36,354.39h-1.69l-3.36,2.07a.47.47,0,0,0-.21.29l-.29,1.4a.47.47,0,0,0,.28.53,4,4,0,0,1,2.22,2.16.43.43,0,0,0,.41.28h1.69a.32.32,0,0,0,.32-.33v-5.12a.15.15,0,0,1,.19-.14,2.17,2.17,0,0,1,1.26,1.19.13.13,0,0,1-.12.18c-.4,0-.91.2-.91,1a1.4,1.4,0,0,0,2.7-.08c.43-1.75-2.45-3.42-2.49-3.45Zm-2.14,4.3a5.63,5.63,0,0,0-1.07-.92.09.09,0,0,1,0-.15l1.24-.86a.11.11,0,0,1,.17.1l-.17,1.77A.1.1,0,0,1,111.22,358.69Z"/><path d="M105.28,352.1a3.2,3.2,0,0,1,1.37.6.44.44,0,0,0,.49,0c.64-.39,2.14-1.48,1.76-3.06-.49-2-3.53-2.91-5.82-2.35-1.3.31-4.09,1.36-3.2,4.46a.19.19,0,0,0,.38,0,3.74,3.74,0,0,1,2.7-3.35c2.43-.6,4.9.55,4.1,2.39-.23.53-1,.79-1.8,1A.17.17,0,0,0,105.28,352.1Z"/><path d="M121.47,355.11c-1.82-1-1.76-1.25-1.73-1.29h0l-1.55.12h0c.14.11,2.28,1.91,1.49,3.32s-3.22,3.09-1.46,4.23,5.16.79,5.65-1.56S123.5,356.23,121.47,355.11Zm-.4,4.87c-1,.26-1.14-.55-.45-1.35a2.15,2.15,0,0,0,.43-1.67.07.07,0,0,1,.11-.06C122.49,358.15,122.05,359.73,121.07,360Z"/><path d="M118.68,353a1.71,1.71,0,0,1-1.65-2,1.85,1.85,0,0,1,.57-1,2,2,0,0,1,3.18.55.11.11,0,0,1-.14.14c-.47-.19-1.62-.55-2,.15a1.48,1.48,0,0,0,1.06,2.1.05.05,0,0,1,0,.1Z"/><rect x="94.81" y="353.37" width="29.45" height="1.18" rx="0.3"/><path class="cls-16" d="M119.41,355.09a2.49,2.49,0,0,0-.36-.43,2.09,2.09,0,0,0-2.44-.46l-.17.12a1.94,1.94,0,0,0-.15,2.81,1.7,1.7,0,0,0,2.46-.19c.71-.78-.09-1.65-.7-1.87a.09.09,0,0,1,0-.17,1.42,1.42,0,0,1,.7.12,2.26,2.26,0,0,1,.38.25,5.28,5.28,0,0,1,.53.54,2,2,0,0,0-.24-.67Z"/><path class="cls-16" d="M104.59,354.86c-.12.1-.17.13,0,.21a.65.65,0,0,1,.3.56.78.78,0,0,1-.89.74,1.58,1.58,0,0,1-1.46-1.82,2.33,2.33,0,0,1,2.57-1.91,3.28,3.28,0,0,1,2.67,2.55c.43,1.78-1.27,3.47-3.22,3.93h0a9.76,9.76,0,0,0,2.4.91c1.26.36,1.66.86,1.79,1.15a.22.22,0,0,1-.14.31l-3.08.93a.22.22,0,0,1-.28-.2c0-.52-.47-1.65-3.54-3.05a.18.18,0,0,1-.06-.3l.82-.85a.43.43,0,0,1,.3-.13c.54,0,2.25-.09,2.88-1.36S105,354.49,104.59,354.86Z"/><path d="M101.08,359.08a2,2,0,0,1,.55-.77l-.09-4.26H100l-4.75,2.59a.43.43,0,0,0-.23.45l.25,1.5a.46.46,0,0,0,.31.37,8.68,8.68,0,0,1,3.52,2.31.76.76,0,0,0,.55.24h1.76a.35.35,0,0,0,.34-.35l-.09-1.6C101.2,359.35,101,359.21,101.08,359.08Zm-1.37-.44a.12.12,0,0,1-.18.1l-1.42-.91a.12.12,0,0,1,0-.2l1.51-1.11a.12.12,0,0,1,.18.1Z"/><text class="cls-17" transform="translate(94.82 366.39)">www.boikontho.com</text></g></g></svg>