<svg xmlns="http://www.w3.org/2000/svg" viewBox="0 0 5 5"><defs><style>.cls-1{fill:#fff;}.cls-2{fill:none;}</style></defs><g id="Layer_2" data-name="Layer 2"><g id="Layer_1-2" data-name="Layer 1"><path class="cls-1" d="M4.3,0H.7A.7.7,0,0,0,0,.7V4.3A.7.7,0,0,0,.7,5H4.3A.7.7,0,0,0,5,4.3V.7A.7.7,0,0,0,4.3,0Zm-1,1.51a0,0,0,0,1,0,0H2.92a.13.13,0,0,0-.15.15V2h.44a0,0,0,0,1,0,0s0,0,0,0l-.06.5s0,0-.05,0H2.77V4a0,0,0,0,1,0,0H2.17a0,0,0,0,1,0,0V2.6H1.79a0,0,0,0,1-.05-.05V2.06A0,0,0,0,1,1.79,2h.35V1.64a.48.48,0,0,1,.17-.45A.7.7,0,0,1,2.8,1h.41a0,0,0,0,1,0,.05Z"/><path class="cls-2" d="M2.82,1h0a.7.7,0,0,0-.49.19.48.48,0,0,0-.17.45V2H1.79a0,0,0,0,0-.05.05v.49a0,0,0,0,0,.05.05h.33V4a0,0,0,0,0,0,0h.56a0,0,0,0,0,0,0V2.6h.38s.05,0,.05,0l.06-.5s0,0,0,0a0,0,0,0,0,0,0H2.77V1.7a.13.13,0,0,1,.15-.15h.29a0,0,0,0,0,0,0V1.05a0,0,0,0,0,0-.05Z"/></g></g></svg>