<svg xmlns="http://www.w3.org/2000/svg" viewBox="0 0 3 3"><g id="Layer_2" data-name="Layer 2"><g id="Layer_1-2" data-name="Layer 1"><path d="M2.57.75H2.8A.18.18,0,0,1,3,.94v.37a.18.18,0,0,1-.19.19H.19A.18.18,0,0,1,0,1.31V.94A.18.18,0,0,1,.19.75H.43a.93.93,0,0,1,0-.13A.51.51,0,0,1,.69,0a.53.53,0,0,1,.65.2L1.5.5l0-.06A1.76,1.76,0,0,1,1.68.21.52.52,0,0,1,2.25,0a.51.51,0,0,1,.37.47.3.3,0,0,1,0,.13A.93.93,0,0,1,2.57.75ZM1.32.75,1.1.37A.25.25,0,0,0,.91.28.24.24,0,0,0,.65.5.23.23,0,0,0,.86.75Zm.36,0h.49A.25.25,0,0,0,2.35.52.26.26,0,0,0,2.19.29a.25.25,0,0,0-.28.08C1.83.49,1.76.61,1.68.75Z"/><path d="M1.31,1.69V3H.48a.28.28,0,0,1-.29-.28v-1Z"/><path d="M2.81,1.69c0,.36,0,.7,0,1.05A.27.27,0,0,1,2.54,3H1.69V1.69Z"/></g></g></svg>