<svg xmlns="http://www.w3.org/2000/svg" viewBox="0 0 39 12"><defs><style>.cls-1{fill:#ea4335;}.cls-2{fill:#fbbc04;}.cls-3{fill:#4285f4;}.cls-4{fill:#34a853;}.cls-5{fill:#fff;}</style></defs><g id="Layer_2" data-name="Layer 2"><g id="Layer_1-2" data-name="Layer 1"><rect width="39" height="12" rx="1.2"/><path class="cls-1" d="M6.08,5.84,3,9H3a.83.83,0,0,0,1.21.49h0L7.69,7.55Z"/><path class="cls-2" d="M9.17,5.3h0L7.68,4.46,6,5.91,7.69,7.55l1.48-.83A.83.83,0,0,0,9.6,6,.8.8,0,0,0,9.17,5.3Z"/><path class="cls-3" d="M3,3a.66.66,0,0,0,0,.21V8.79A.66.66,0,0,0,3,9L6.19,5.92Z"/><path class="cls-4" d="M6.1,6,7.68,4.46,4.25,2.52a.76.76,0,0,0-.42-.12A.81.81,0,0,0,3,3H3Z"/><path class="cls-5" d="M12.27,3.61a.61.61,0,0,1-.17-.45.74.74,0,0,1,.07-.31.94.94,0,0,0-.06.3A.69.69,0,0,0,12.27,3.61Z"/><path class="cls-5" d="M12.85,2.41a.76.76,0,0,0-.85.75.71.71,0,0,0,.22.54.82.82,0,0,0,.59.19,1.56,1.56,0,0,0,.48-.08v-.7h-.52v.15h.32V3.7a.68.68,0,0,1-.27,0,.56.56,0,0,1-.61-.59.57.57,0,0,1,.64-.58.82.82,0,0,1,.35.06l.05-.15a1.1,1.1,0,0,0-.4-.07Z"/><path class="cls-5" d="M13.8,2.52v0Z"/><polygon class="cls-5" points="14.55 2.42 13.7 2.42 13.7 3.88 14.58 3.88 14.58 3.72 13.9 3.72 13.9 3.19 14.51 3.19 14.51 3.04 13.9 3.04 13.9 2.58 14.55 2.58 14.55 2.42 14.55 2.42"/><rect class="cls-5" x="15.38" y="2.52" width="0.01" height="1.25"/><polygon class="cls-5" points="15.96 2.42 14.8 2.42 14.8 2.58 15.28 2.58 15.28 3.88 15.48 3.88 15.48 2.58 15.96 2.58 15.96 2.42 15.96 2.42"/><path class="cls-5" d="M16.92,2.52v0Z"/><polygon class="cls-5" points="17.02 2.42 16.82 2.42 16.82 3.88 17.02 3.88 17.02 2.42 17.02 2.42"/><rect class="cls-5" x="17.87" y="2.52" width="0.01" height="1.25"/><polygon class="cls-5" points="18.46 2.42 17.29 2.42 17.29 2.58 17.77 2.58 17.77 3.88 17.98 3.88 17.98 2.58 18.46 2.58 18.46 2.42 18.46 2.42"/><path class="cls-5" d="M19.47,3.6a.69.69,0,0,1-.15-.44.74.74,0,0,1,.1-.38.86.86,0,0,0-.08.38A.76.76,0,0,0,19.47,3.6Zm1-.08a.74.74,0,0,0,.09-.38.78.78,0,0,0-.15-.47.67.67,0,0,1,.16.46A.67.67,0,0,1,20.46,3.52Z"/><path class="cls-5" d="M20,2.4a.71.71,0,0,0-.73.76.69.69,0,0,0,.71.74.71.71,0,0,0,.73-.77A.68.68,0,0,0,20,2.4Zm0,1.35a.53.53,0,0,1-.5-.59c0-.32.17-.61.5-.61a.54.54,0,0,1,.51.59.55.55,0,0,1-.51.61Z"/><path class="cls-5" d="M22,3.78v0l.12,0v.07Zm-.41-.7a4,4,0,0,1-.29-.47v0l.38.63a2.58,2.58,0,0,1,.28.46l0,0Zm-.46-.56h.12v0l-.13,0Z"/><path class="cls-5" d="M22.2,2.42H22V3a5.72,5.72,0,0,0,0,.6h0a4.31,4.31,0,0,0-.29-.47l-.5-.74H21V3.88h.19V3.26c0-.25,0-.42,0-.6h0a4.19,4.19,0,0,0,.29.49l.5.74h.21V2.42Z"/><path class="cls-5" d="M19.07,6.73a1.2,1.2,0,1,0,1.21,1.19A1.18,1.18,0,0,0,19.07,6.73Zm0,1.92a.7.7,0,0,1-.68-.73.68.68,0,1,1,.68.73ZM16.43,6.73a1.2,1.2,0,1,0,1.21,1.19A1.18,1.18,0,0,0,16.43,6.73Zm0,1.92a.7.7,0,0,1-.68-.73.68.68,0,1,1,.68.73ZM13.3,7.09V7.6h1.22a1,1,0,0,1-.28.64,1.23,1.23,0,0,1-.94.38,1.36,1.36,0,1,1,.92-2.35l.36-.36A1.79,1.79,0,0,0,13.3,5.4a1.86,1.86,0,1,0,0,3.72,1.72,1.72,0,0,0,1.3-.52A1.66,1.66,0,0,0,15,7.41a1.57,1.57,0,0,0,0-.32Zm12.82.4a1.11,1.11,0,0,0-1-.76A1.13,1.13,0,0,0,24,7.92a1.17,1.17,0,0,0,1.19,1.2,1.22,1.22,0,0,0,1-.53l-.41-.27a.7.7,0,0,1-.6.33.6.6,0,0,1-.58-.36l1.61-.66Zm-1.64.4a.66.66,0,0,1,.63-.7.47.47,0,0,1,.45.25ZM23.17,9.05h.53V5.53h-.53ZM22.31,7h0a.85.85,0,0,0-.64-.26,1.2,1.2,0,0,0,0,2.39.82.82,0,0,0,.64-.27h0V9a.62.62,0,0,1-.65.71.65.65,0,0,1-.6-.43l-.46.19a1.14,1.14,0,0,0,1.06.71A1.1,1.1,0,0,0,22.81,9V6.8h-.5ZM21.7,8.65A.69.69,0,0,1,21,7.93a.7.7,0,0,1,.67-.73.67.67,0,0,1,.64.73A.67.67,0,0,1,21.7,8.65Zm6.9-3.12H27.34V9.05h.52V7.72h.74a1.1,1.1,0,1,0,0-2.19Zm0,1.7h-.76V6h.76a.61.61,0,0,1,.62.6A.63.63,0,0,1,28.62,7.23Zm3.26-.51a1,1,0,0,0-.94.54l.47.19a.49.49,0,0,1,.48-.25.52.52,0,0,1,.56.45v0a1.16,1.16,0,0,0-.56-.14c-.5,0-1,.28-1,.79a.82.82,0,0,0,.88.78.75.75,0,0,0,.68-.35h0v.28H33V7.69A1,1,0,0,0,31.88,6.72Zm-.06,1.93c-.18,0-.42-.09-.42-.3S31.7,8,32,8a1.11,1.11,0,0,1,.49.11A.65.65,0,0,1,31.82,8.65Zm3-1.85-.6,1.52h0L33.56,6.8H33l.94,2.13-.53,1.19H34L35.4,6.8ZM30.05,9.05h.53V5.53h-.53Z"/></g></g></svg>