<svg xmlns="http://www.w3.org/2000/svg" viewBox="0 0 3.75 3"><g id="Layer_2" data-name="Layer 2"><g id="Layer_1-2" data-name="Layer 1"><path d="M3.08,2.27l.45.35.15.11c.08.07.1.15,0,.22S3.59,3,3.5,3l-.64-.5L.09.28C0,.21,0,.17,0,.1A.13.13,0,0,1,.2,0l.07,0L.84.51a.06.06,0,0,0,.09,0A1.53,1.53,0,0,1,2,.19,1.66,1.66,0,0,1,3,.68a2.26,2.26,0,0,1,.51.71.24.24,0,0,1,0,.23,2.73,2.73,0,0,1-.4.6ZM1.31.88l.52.41a.45.45,0,0,0,0-.36A1.19,1.19,0,0,1,2.12,1a.56.56,0,0,1,.29.68.06.06,0,0,0,0,.06l.21.16A.84.84,0,0,0,2.4.84.83.83,0,0,0,1.31.88Z"/><path d="M.49,1c.18.13.35.27.52.41a.11.11,0,0,1,0,.06.83.83,0,0,0,.64.89.75.75,0,0,0,.47,0,.08.08,0,0,1,.08,0l.39.3-.07,0A1.51,1.51,0,0,1,.9,2.46,2.12,2.12,0,0,1,.22,1.6a.2.2,0,0,1,0-.17A1.93,1.93,0,0,1,.49,1Z"/></g></g></svg>