<svg xmlns="http://www.w3.org/2000/svg" viewBox="0 0 4.85 3.57"><defs><style>.cls-1{fill:#fff;}</style></defs><g id="Layer_2" data-name="Layer 2"><g id="Layer_1-2" data-name="Layer 1"><path class="cls-1" d="M1.42,1.65A1,1,0,0,1,2.11.82l.4-.48H2.43A3,3,0,0,0,0,1.67.2.2,0,0,0,0,1.9a3.31,3.31,0,0,0,.63.66Z"/><path class="cls-1" d="M4.81,1.67a3.62,3.62,0,0,0-.49-.54L2.58,3.22A3.06,3.06,0,0,0,4.81,1.9.19.19,0,0,0,4.81,1.67Z"/><path class="cls-1" d="M2.94,1.9,4.14.45,3.6,0,1,3.13l.54.44L2.87,2A.27.27,0,0,0,2.94,1.9Z"/></g></g></svg>