<?xml version="1.0" encoding="UTF-8"?>
<svg id="Layer_2" data-name="Layer 2" xmlns="http://www.w3.org/2000/svg" viewBox="0 0 3 3">
  <g id="Layer_1-2" data-name="Layer 1">
    <path d="M0,1.54s0-.05,0-.08c.02-.09,.07-.15,.14-.21C.51,.88,.88,.51,1.25,.14c.06-.06,.12-.12,.21-.14h.08c.09,.02,.15,.07,.21,.14,.37,.37,.74,.74,1.12,1.12,.06,.06,.12,.12,.13,.21v.07s0,0,0,.01c-.03,.14-.13,.23-.27,.23-.01,0-.03,0-.04,0,0,.02,0,.03,0,.04,0,.29,0,.58,0,.87,0,.14-.09,.26-.23,.3-.02,0-.04,.01-.06,.02h-.54c-.05-.02-.07-.06-.07-.11,0-.22,0-.45,0-.67,0-.1-.06-.16-.16-.16-.08,0-.17,0-.25,0-.11,0-.17,.06-.17,.17,0,.22,0,.44,0,.66,0,.05-.02,.09-.07,.11H.6s0,0,0,0c-.14-.02-.28-.15-.28-.34,0-.28,0-.56,0-.85,0-.01,0-.02,0-.04-.02,0-.04,0-.05,0-.11,0-.19-.06-.24-.15-.01-.03-.02-.06-.03-.08Z"/>
  </g>
</svg>