<svg xmlns="http://www.w3.org/2000/svg" viewBox="0 0 844.99 712.3"><defs><style>.cls-1{fill:#f25c05;}.cls-2,.cls-42{fill:#f57d37;}.cls-3{fill:#fef8f5;}.cls-10,.cls-3,.cls-46,.cls-48,.cls-7{stroke:#1a3333;}.cls-10,.cls-17,.cls-28,.cls-3,.cls-36,.cls-39,.cls-42,.cls-46,.cls-48,.cls-7{stroke-miterlimit:10;}.cls-36,.cls-37,.cls-4{fill:#fff;}.cls-5{fill:#7170c2;}.cls-6{fill:#5252a3;}.cls-45,.cls-7{fill:#ededfa;}.cls-8{fill:#a6a6e6;}.cls-46,.cls-9{fill:#1a3333;}.cls-10,.cls-14{fill:#fbfbfe;}.cls-11{fill:#adc2c2;}.cls-12{fill:#d6e0e0;}.cls-13{fill:#0a0a33;}.cls-15{fill:#d3d3f3;}.cls-16{fill:#9090e0;}.cls-17,.cls-28,.cls-38,.cls-43,.cls-44,.cls-48{fill:none;}.cls-17{stroke:#9090e0;}.cls-18{fill:#aa6800;}.cls-19{fill:#85a3a3;}.cls-20{fill:#5c8585;}.cls-21{fill:#264d4d;}.cls-22{fill:#f79d69;}.cls-23{fill:#bcbcec;}.cls-24{fill:#e9e9f9;}.cls-25{fill:#fffdb6;}.cls-26{fill:#bfbe7b;}.cls-27{fill:#366;}.cls-28,.cls-42{stroke:#000;}.cls-29{fill:#807f52;}.cls-30{fill:#f4d199;}.cls-31{fill:#3a9e1d;}.cls-32{fill:#69a359;}.cls-33{fill:#82a577;}.cls-34{fill:#52a03b;}.cls-35{fill:#e9a233;}.cls-36,.cls-37,.cls-38,.cls-39,.cls-43,.cls-44{stroke:#1a2e35;}.cls-37,.cls-38,.cls-43,.cls-44{stroke-linecap:round;stroke-linejoin:round;}.cls-39,.cls-40{fill:#1a2e35;}.cls-41{fill:#f6f6fd;}.cls-43{stroke-width:4px;}.cls-44{stroke-width:2px;}.cls-47{fill:#239b00;}.cls-49{fill:#eeb966;}.cls-50{fill:#86a67d;}</style></defs><g id="Layer_2" data-name="Layer 2"><g id="Illustrations"><g id="Book2"><rect class="cls-1" x="475.48" y="128.38" width="340" height="563.25"/><rect class="cls-2" x="471.78" y="128.38" width="340" height="563.25"/><rect class="cls-3" x="470.91" y="139.14" width="333.27" height="542.37"/><rect class="cls-3" x="470.91" y="139.14" width="326.96" height="542.37"/><rect class="cls-3" x="470.91" y="139.14" width="320.67" height="542.37"/><rect class="cls-3" x="470.91" y="139.14" width="314.36" height="542.37"/><rect class="cls-3" x="470.91" y="139.14" width="308.05" height="542.37"/><rect class="cls-3" x="470.91" y="139.14" width="301.75" height="542.37"/><rect class="cls-3" x="470.91" y="139.14" width="295.44" height="542.37"/><rect class="cls-1" x="474.76" y="128.38" width="286.91" height="563.25"/><rect class="cls-2" x="470.91" y="128.38" width="286.91" height="563.25"/><rect class="cls-4" x="492.39" y="277.15" width="244.52" height="30.76"/><path d="M736.4,277.65v29.76H492.89V277.65H736.4m1-1H491.89v31.76H737.4V276.65Z"/><rect class="cls-4" x="492.39" y="159.35" width="244.52" height="77.37"/><path d="M736.4,159.85v76.36H492.89V159.85H736.4m1-1H491.89v78.36H737.4V158.85Z"/></g><g id="Book3"><rect class="cls-5" x="504.99" y="365.53" width="340" height="346.53"/><rect class="cls-6" x="501.29" y="365.53" width="340" height="346.53"/><rect class="cls-7" x="500.42" y="372.14" width="333.27" height="333.68"/><rect class="cls-7" x="500.42" y="372.14" width="326.96" height="333.68"/><rect class="cls-7" x="500.42" y="372.14" width="320.67" height="333.68"/><rect class="cls-7" x="500.42" y="372.14" width="314.36" height="333.68"/><rect class="cls-7" x="500.42" y="372.14" width="308.05" height="333.68"/><rect class="cls-7" x="500.42" y="372.14" width="301.75" height="333.68"/><rect class="cls-7" x="500.42" y="372.14" width="295.44" height="333.68"/><rect class="cls-5" x="504.28" y="365.53" width="286.91" height="346.53"/><rect class="cls-6" x="500.42" y="365.53" width="286.91" height="346.53"/><rect class="cls-8" x="521.4" y="496.17" width="245.52" height="19.54"/><rect class="cls-8" x="521.4" y="384.27" width="245.52" height="93.23"/></g><g id="Book1"><rect class="cls-9" x="45.8" y="292.44" width="328.52" height="419.86" transform="translate(420.11 1004.74) rotate(-180)"/><rect class="cls-10" x="74.8" y="303.41" width="282.48" height="398.12" transform="translate(432.07 1004.94) rotate(-180)"/><rect class="cls-10" x="80.48" y="303.41" width="282.48" height="398.12" transform="translate(443.43 1004.94) rotate(-180)"/><rect class="cls-10" x="86.16" y="303.41" width="282.48" height="398.12" transform="translate(454.79 1004.94) rotate(-180)"/><rect class="cls-10" x="91.84" y="303.41" width="282.48" height="398.12" transform="translate(466.15 1004.94) rotate(-180)"/><rect class="cls-11" x="104.55" y="435.44" width="255.65" height="249.79" transform="translate(464.75 1120.67) rotate(-180)"/><rect class="cls-12" x="104.55" y="418.64" width="255.65" height="7.06" transform="translate(464.75 844.34) rotate(-180)"/><rect class="cls-12" x="104.55" y="337.9" width="255.65" height="7.06" transform="translate(464.75 682.87) rotate(-180)"/><rect class="cls-12" x="104.55" y="354.05" width="255.65" height="7.06" transform="translate(464.75 715.16) rotate(-180)"/><rect class="cls-12" x="104.55" y="370.2" width="255.65" height="7.06" transform="translate(464.75 747.46) rotate(-180)"/><rect class="cls-12" x="104.55" y="386.35" width="255.65" height="7.06" transform="translate(464.75 779.75) rotate(-180)"/><rect class="cls-12" x="104.55" y="402.49" width="255.65" height="7.06" transform="translate(464.75 812.04) rotate(-180)"/><polygon class="cls-2" points="149.37 471.8 131.01 460.55 112.64 471.8 112.64 300.4 149.37 300.4 149.37 471.8"/><rect class="cls-9" x="374.45" y="292.44" width="328.52" height="419.86"/><rect class="cls-10" x="391.49" y="303.41" width="282.48" height="398.12"/><rect class="cls-10" x="385.81" y="303.41" width="282.48" height="398.12"/><rect class="cls-10" x="380.13" y="303.41" width="282.48" height="398.12"/><rect class="cls-10" x="374.45" y="303.41" width="282.48" height="398.12"/><rect class="cls-11" x="388.56" y="435.44" width="255.65" height="249.79"/><rect class="cls-12" x="388.56" y="418.64" width="255.65" height="7.06"/><rect class="cls-12" x="388.56" y="337.9" width="255.65" height="7.06"/><rect class="cls-12" x="388.56" y="354.05" width="255.65" height="7.06"/><rect class="cls-12" x="388.56" y="370.2" width="255.65" height="7.06"/><rect class="cls-12" x="388.56" y="386.35" width="255.65" height="7.06"/><rect class="cls-12" x="388.56" y="402.49" width="255.65" height="7.06"/></g><g id="Phone"><rect class="cls-13" x="376.97" width="364.34" height="712.06" rx="40"/><rect class="cls-14" x="399.35" y="35.45" width="319.59" height="626.15" rx="40"/><path class="cls-13" d="M708.39,76.33H409.89c-.41,0-.75-.23-.75-.5v-1c0-.28.34-.5.75-.5h298.5c.41,0,.75.22.75.5v1C709.14,76.1,708.8,76.33,708.39,76.33Z"/><path class="cls-13" d="M678.6,54.24a2.48,2.48,0,0,1,.4-1,2.12,2.12,0,0,1,1.79-.81h16.33l.69,0a1.92,1.92,0,0,1,1.74,1.74c0,.65,0,1.3,0,2v.26l.13,0a1,1,0,0,1,.86.93c0,.7,0,1.41,0,2.11,0,.51-.35.82-1,1,0,.07,0,.14,0,.22,0,.67,0,1.35,0,2a1.94,1.94,0,0,1-1.72,1.71q-.37,0-.75,0H680.79a2.13,2.13,0,0,1-1.79-.82,2.48,2.48,0,0,1-.4-1Zm10.48,9.2h8.39a1,1,0,0,0,1.11-1.09c0-2.61,0-5.21,0-7.82a1,1,0,0,0-1.08-1.08H680.68a1,1,0,0,0-1.08,1.07v7.86a1,1,0,0,0,.25.71,1.09,1.09,0,0,0,.9.35Z"/><path class="cls-13" d="M680.62,62.43v-8h13v8Z"/><path class="cls-13" d="M433.52,58.43V53.22c0-.55.22-.77.78-.77h2.33a.65.65,0,0,1,.75.73V63.71a.65.65,0,0,1-.75.73q-1.19,0-2.37,0c-.5,0-.74-.23-.74-.73Z"/><path class="cls-13" d="M428.37,59.31V54.92c0-.53.24-.76.78-.77h2.33a.67.67,0,0,1,.75.76v8.78a.66.66,0,0,1-.75.75q-1.19,0-2.37,0a.65.65,0,0,1-.74-.73Z"/><path class="cls-13" d="M423.23,60.59V57.48a.66.66,0,0,1,.75-.75h2.35a.67.67,0,0,1,.76.75v6.21a.66.66,0,0,1-.75.75q-1.18,0-2.37,0a.65.65,0,0,1-.74-.73Z"/><path class="cls-13" d="M421.94,61.89V63.7a.66.66,0,0,1-.75.75h-2.38a.65.65,0,0,1-.73-.74V60.05a.66.66,0,0,1,.74-.75h2.37a.67.67,0,0,1,.75.76Z"/><path class="cls-13" d="M649.28,56.06a1.88,1.88,0,0,1,.67-.83,10.59,10.59,0,0,1,5.27-2.6,10.77,10.77,0,0,1,8.63,2.06,12.26,12.26,0,0,1,1,.89.85.85,0,1,1-1.17,1.23,9.24,9.24,0,0,0-2.08-1.55,9.22,9.22,0,0,0-10.16.92c-.23.18-.44.38-.66.58a.86.86,0,0,1-1.5-.35.05.05,0,0,0,0,0Z"/><path class="cls-13" d="M657.61,55.75a7.31,7.31,0,0,1,4.93,2.17.85.85,0,0,1,.11,1.16.82.82,0,0,1-1.11.2,1.71,1.71,0,0,1-.26-.21,5.77,5.77,0,0,0-2.9-1.51,5.88,5.88,0,0,0-5.25,1.55.89.89,0,0,1-.9.27A.85.85,0,0,1,651.8,58,5.87,5.87,0,0,1,653.07,57,7.81,7.81,0,0,1,657.61,55.75Z"/><path class="cls-13" d="M657.24,59a4.27,4.27,0,0,1,3,1.24.85.85,0,0,1,0,1.19.84.84,0,0,1-1.18.07,3.07,3.07,0,0,0-1.07-.67,2.59,2.59,0,0,0-2.59.54,1.05,1.05,0,0,1-.61.33.84.84,0,0,1-.87-.49.86.86,0,0,1,.19-1A4.32,4.32,0,0,1,657.24,59Z"/><path class="cls-13" d="M657.23,64.45a1.13,1.13,0,1,1,1.13-1.14A1.15,1.15,0,0,1,657.23,64.45Z"/><rect class="cls-15" x="669.46" y="100.54" width="31.51" height="31.51" rx="5"/><path class="cls-16" d="M689.9,114.89a6,6,0,0,1-1.17,3.59l3.71,3.72a.92.92,0,0,1,0,1.32.94.94,0,0,1-1.33,0l-3.71-3.71a6.09,6.09,0,1,1,2.5-4.92Zm-6.09,4.22a4.22,4.22,0,1,0-4.22-4.22A4.22,4.22,0,0,0,683.81,119.11Z"/><rect class="cls-15" x="417.9" y="100.54" width="244.93" height="31.51" rx="5"/><line class="cls-17" x1="429.11" y1="108.8" x2="429.11" y2="123.8"/><path class="cls-16" d="M443.54,114.72v6.74a.53.53,0,0,1-.2.09.84.84,0,0,1-.27,0H443a24.12,24.12,0,0,0-2.25-1.67c-.74-.48-1.5-.94-2.27-1.37a.88.88,0,0,1-.08-.26,1.84,1.84,0,0,1,0-.33v-.1a.57.57,0,0,1,0-.13,10.49,10.49,0,0,1,1-.61c.36-.21.73-.4,1.12-.59s.77-.34,1.16-.49.77-.27,1.12-.37v-.94H438c-.22,0-.33-.12-.33-.35a.86.86,0,0,1,0-.16,1.16,1.16,0,0,1,0-.18h7.1c.22,0,.34.12.34.36a.77.77,0,0,1,0,.15,1.13,1.13,0,0,1,0,.18Zm-.83,1.74a8.78,8.78,0,0,0-.91.3c-.32.11-.62.24-.93.38s-.6.29-.89.45-.56.32-.81.48c.41.23.8.47,1.17.7l1,.69c.32.22.6.42.85.61l.6.47c0-.12,0-.27,0-.44s0-.37,0-.57,0-.39,0-.57,0-.34,0-.46Z"/><path class="cls-16" d="M445.65,119.49a.86.86,0,0,1,0-.27.65.65,0,0,1,.13-.43l.57,0,.57,0a3.12,3.12,0,0,0,2-.54,1.72,1.72,0,0,0,.67-1.41,1.49,1.49,0,0,0-.39-1.08,1.36,1.36,0,0,0-1-.41,1.3,1.3,0,0,0-.94.36,1.28,1.28,0,0,0-.38,1,1.37,1.37,0,0,0,0,.34,1.28,1.28,0,0,0,.1.28.45.45,0,0,1-.42.22.53.53,0,0,1-.42-.23,1,1,0,0,1-.19-.7,1.71,1.71,0,0,1,.16-.75,1.75,1.75,0,0,1,.42-.61,2,2,0,0,1,.61-.41,2.32,2.32,0,0,1,.74-.2h-2.78a.31.31,0,0,1-.34-.35.88.88,0,0,1,0-.16,1.13,1.13,0,0,1,0-.18h4.8a1.11,1.11,0,0,0,.16-.59.59.59,0,0,0-.26-.52,1.48,1.48,0,0,0-.83-.18h-1.46a2.24,2.24,0,0,1-1.4-.38,1.23,1.23,0,0,1-.48-1,.75.75,0,0,1,.16-.55.45.45,0,0,1,.37-.17.66.66,0,0,1,.21,0l.14.06a1.64,1.64,0,0,0,0,.38,1,1,0,0,0,.26.69,1.32,1.32,0,0,0,.92.25h.73c.21,0,.49,0,.81,0a1.84,1.84,0,0,1,1.21.35,1.1,1.1,0,0,1,.44.91,1.31,1.31,0,0,1-.06.41,1.25,1.25,0,0,1-.12.31h.95q.33,0,.33.36a.76.76,0,0,1,0,.15,1.16,1.16,0,0,1,0,.18h-3.19a2.45,2.45,0,0,1,.76.21,2.26,2.26,0,0,1,.65.44,2.08,2.08,0,0,1,.45.67,2.31,2.31,0,0,1,.17.89,2.38,2.38,0,0,1-.24,1.1,2.25,2.25,0,0,1-.67.8,3,3,0,0,1-1,.49,4.52,4.52,0,0,1-1.26.17c.8.33,1.48.63,2,.87s1,.44,1.27.6a.91.91,0,0,1,.25.2.4.4,0,0,1,.08.26.54.54,0,0,1-.1.3.55.55,0,0,1-.25.2l-1.31-.7-1.15-.6-1.13-.55Z"/><path class="cls-16" d="M460.48,114.72v6.74l-.16,0h-.19a.59.59,0,0,1-.35-.08.3.3,0,0,1-.13-.29v-3.31a1.14,1.14,0,0,0-.66-.16,2.48,2.48,0,0,0-1.38.68,5.81,5.81,0,0,1-1.21.79,2.57,2.57,0,0,1-1,.23h-.05c-.35,0-.52-.15-.52-.44a.83.83,0,0,1,.07-.32h.46a2.59,2.59,0,0,0,.63-.08,1.69,1.69,0,0,0,.52-.26,1.24,1.24,0,0,0,.34-.44,1.35,1.35,0,0,0,.13-.62,1.66,1.66,0,0,0-.28-1,2.19,2.19,0,0,0-1-.73l-.59-.28a.58.58,0,0,1-.15-.11.25.25,0,0,1-.06-.19.49.49,0,0,1,.05-.22h-.57c-.22,0-.33-.12-.33-.35a.86.86,0,0,1,0-.16l0-.18h7.68c.23,0,.34.12.34.36a.76.76,0,0,1,0,.15,1.16,1.16,0,0,1,0,.18Zm-1.5,2.19a2.25,2.25,0,0,1,.4,0,1.18,1.18,0,0,1,.27.1v-2.32h-3.77a3.34,3.34,0,0,1,.61.33,3.61,3.61,0,0,1,.59.52,2.52,2.52,0,0,1,.44.7,2.14,2.14,0,0,1,.18.89,1.45,1.45,0,0,1,0,.3,2.32,2.32,0,0,1,.63-.4A1.72,1.72,0,0,1,459,116.91Z"/><path class="cls-16" d="M461.76,114.72c-.22,0-.33-.12-.33-.35a.86.86,0,0,1,0-.16,1.16,1.16,0,0,1,0-.18h1.24a1.11,1.11,0,0,1,.56.14.81.81,0,0,1,.32.39.58.58,0,0,1,.26-.4.77.77,0,0,1,.45-.13h.86c.23,0,.34.12.34.36,0,0,0,.1,0,.15a1.16,1.16,0,0,1,0,.18h-1c-.37,0-.55.19-.55.57v6.3a.76.76,0,0,1-.16,0l-.19,0a.58.58,0,0,1-.35-.09.3.3,0,0,1-.13-.29v-6.09c0-.3-.14-.45-.43-.45Z"/><path class="cls-16" d="M467.26,114.72V116l2.38.54a2.49,2.49,0,0,1,1.21.6,1.54,1.54,0,0,1,.38,1.12,2.75,2.75,0,0,1-.25,1.16,3.53,3.53,0,0,1-.67,1,3.09,3.09,0,0,1-.95.69,2.59,2.59,0,0,1-1.12.26,1.76,1.76,0,0,1-1.35-.48,1.94,1.94,0,0,1-.46-1.4v-4.8h-1a.31.31,0,0,1-.34-.35.88.88,0,0,1,0-.16,1.13,1.13,0,0,1,0-.18h6.58q.33,0,.33.36a.76.76,0,0,1,0,.15l0,.18Zm0,2.12v2.68a1.32,1.32,0,0,0,.22.86,1,1,0,0,0,.76.26,1.65,1.65,0,0,0,.8-.21,2.49,2.49,0,0,0,.67-.54,2.39,2.39,0,0,0,.47-.74,2,2,0,0,0,.18-.8,1.22,1.22,0,0,0-.07-.42.72.72,0,0,0-.2-.29,1.25,1.25,0,0,0-.36-.2,4,4,0,0,0-.54-.16Z"/><path class="cls-16" d="M468.94,110.8a.5.5,0,0,1,.28.11.31.31,0,0,1,.12.26.37.37,0,0,1-.08.21,1.3,1.3,0,0,1-.24.25l-.36.35-.54.48c-.19.18-.37.34-.55.49s-.33.28-.45.37a.57.57,0,0,1-.37-.14.44.44,0,0,1-.16-.35.41.41,0,0,1,0-.12l.52-.44.64-.53.66-.53Z"/><path class="cls-16" d="M480.4,114.72v1a5.09,5.09,0,0,1,1.24.21,3.16,3.16,0,0,1,.94.45,2.1,2.1,0,0,1,.62.68,2,2,0,0,1,.08,1.59,1.64,1.64,0,0,1-.35.52,1.52,1.52,0,0,1-.51.32,1.65,1.65,0,0,1-.57.11c-.37,0-.56-.16-.56-.48a.62.62,0,0,1,0-.27h.19a1,1,0,0,0,.74-.25.86.86,0,0,0,.27-.67,1.13,1.13,0,0,0-.6-1,3.34,3.34,0,0,0-1.54-.44v5a.46.46,0,0,1-.2.09.77.77,0,0,1-.27,0h-.12a23.6,23.6,0,0,0-2.19-1.67c-.71-.48-1.45-.94-2.21-1.37a1.34,1.34,0,0,1-.08-.26,1.84,1.84,0,0,1,0-.33v-.1a.57.57,0,0,1,0-.13,11.22,11.22,0,0,1,.95-.61c.35-.21.72-.4,1.09-.59s.76-.34,1.14-.49.74-.27,1.08-.37v-.94H475c-.22,0-.33-.12-.33-.35a.86.86,0,0,1,0-.16l0-.18H484q.33,0,.33.36a.76.76,0,0,1,0,.15,1.16,1.16,0,0,1,0,.18Zm-.83,1.74a10.85,10.85,0,0,0-1.77.68,12.76,12.76,0,0,0-1.65.93l1.14.7c.36.24.7.47,1,.69s.59.42.83.61l.57.47c0-.12,0-.27,0-.44s0-.37,0-.57,0-.39,0-.57,0-.34,0-.46Z"/><path class="cls-16" d="M490,114.72v6.74a.53.53,0,0,1-.2.09.84.84,0,0,1-.27,0h-.12a24.12,24.12,0,0,0-2.25-1.67c-.74-.48-1.5-.94-2.28-1.37a1.38,1.38,0,0,1-.07-.26,1.84,1.84,0,0,1,0-.33v-.1a.57.57,0,0,1,0-.13,10.49,10.49,0,0,1,1-.61c.36-.21.73-.4,1.12-.59s.77-.34,1.16-.49.77-.27,1.12-.37v-.94h-4.8a.31.31,0,0,1-.34-.35c0-.05,0-.11,0-.16a1.16,1.16,0,0,1,0-.18h7.2c.22,0,.34.12.34.36a.77.77,0,0,1,0,.15,1.13,1.13,0,0,1,0,.18Zm-4.65,6.57a.53.53,0,0,1,.17-.41.63.63,0,0,1,.43-.16.55.55,0,0,1,.43.17.52.52,0,0,1,.16.4.57.57,0,0,1-.16.41.55.55,0,0,1-.43.17.6.6,0,0,1-.43-.17A.58.58,0,0,1,485.39,121.29Zm3.82-4.83a8.78,8.78,0,0,0-.91.3c-.32.11-.62.24-.93.38s-.6.29-.89.45-.56.32-.81.48c.41.23.8.47,1.17.7l1,.69c.32.22.6.42.85.61l.6.47c0-.12,0-.27,0-.44s0-.37,0-.57,0-.39,0-.57,0-.34,0-.46Z"/><path class="cls-16" d="M490.16,117.94a4.8,4.8,0,0,0,.39.4,3.14,3.14,0,0,0,.48.39,2.65,2.65,0,0,0,.55.3,1.88,1.88,0,0,0,.62.11,1.38,1.38,0,0,0,.87-.25.88.88,0,0,0,.32-.75.94.94,0,0,0-.34-.8,1.54,1.54,0,0,0-1-.26h-.2a.77.77,0,0,1,0-.27.46.46,0,0,1,.15-.36.66.66,0,0,1,.42-.13,2.14,2.14,0,0,1,.65.1,2,2,0,0,1,.62.32,1.69,1.69,0,0,1,.46.56,1.74,1.74,0,0,1,.18.82,1.67,1.67,0,0,1-.15.71,1.76,1.76,0,0,1-.42.56,2.09,2.09,0,0,1-.64.36,2.41,2.41,0,0,1-.83.14,2.84,2.84,0,0,1-.84-.13,3.73,3.73,0,0,1-.7-.32,3.07,3.07,0,0,1-.56-.43,5.45,5.45,0,0,1-.41-.46Zm.66-3.91h4c.23,0,.34.12.34.36,0,0,0,.1,0,.15a1.16,1.16,0,0,1,0,.18h-4.28Z"/><path class="cls-16" d="M500.76,114.72v6.74l-.16,0h-.18a.6.6,0,0,1-.36-.08.32.32,0,0,1-.12-.29v-2.25a4.56,4.56,0,0,0-.42-.59,4.51,4.51,0,0,0-.55-.52,3.14,3.14,0,0,0-.64-.37,1.67,1.67,0,0,0-.69-.14,1.12,1.12,0,0,0-.79.26.91.91,0,0,0-.29.68,1,1,0,0,0,.08.42,1.68,1.68,0,0,0,.14.3.65.65,0,0,1-.17.2.44.44,0,0,1-.29.09.65.65,0,0,1-.49-.26,1.22,1.22,0,0,1-.21-.77,1.67,1.67,0,0,1,.16-.76,1.62,1.62,0,0,1,.44-.53,1.7,1.7,0,0,1,.61-.32,2.37,2.37,0,0,1,.69-.11,2.77,2.77,0,0,1,.78.11,3.28,3.28,0,0,1,.66.28,3.74,3.74,0,0,1,.54.39,6.16,6.16,0,0,1,.44.45v-3h-5a.31.31,0,0,1-.34-.35.88.88,0,0,1,0-.16,1.13,1.13,0,0,1,0-.18h7.36q.33,0,.33.36a.76.76,0,0,1,0,.15l0,.18Z"/><rect class="cls-15" x="428.62" y="561.8" width="38.03" height="14.24" transform="translate(895.27 1137.84) rotate(-180)"/><rect class="cls-15" x="418.13" y="543.54" width="58.26" height="82.94" transform="translate(894.52 1170.01) rotate(-180)"/><rect class="cls-15" x="494.5" y="543.54" width="206.09" height="6.56"/><rect class="cls-15" x="494.5" y="558.52" width="206.09" height="6.56"/><rect class="cls-15" x="494.5" y="573.51" width="206.09" height="6.56" transform="translate(1195.09 1153.57) rotate(180)"/><rect class="cls-15" x="494.5" y="588.49" width="206.09" height="6.56"/><rect class="cls-15" x="494.5" y="603.48" width="206.09" height="6.56"/><rect class="cls-15" x="494.5" y="618.47" width="206.09" height="6.56" transform="translate(1195.09 1243.49) rotate(180)"/><rect class="cls-18" x="418.13" y="258.97" width="282.46" height="8.75" rx="2"/><rect class="cls-19" x="675.89" y="169.33" width="16.01" height="9.51"/><rect class="cls-20" x="675.89" y="178.84" width="16.01" height="2.79"/><path class="cls-19" d="M675.89,181.63v62h16v-62Zm10.48,53h-4.94V200.22h4.94Zm-2.47-38.4a3,3,0,1,1,3-3A3,3,0,0,1,683.9,196.26Z"/><path class="cls-19" d="M680.86,193.22a3,3,0,1,1,3,3A3,3,0,0,1,680.86,193.22Z"/><rect class="cls-19" x="681.43" y="200.22" width="4.94" height="34.44"/><rect class="cls-19" x="675.89" y="246.61" width="16.01" height="4.09"/><rect class="cls-20" x="675.89" y="243.63" width="16.01" height="2.98"/><rect class="cls-20" x="675.89" y="250.7" width="16.01" height="3.14"/><rect class="cls-19" x="675.89" y="253.84" width="16.01" height="6.22"/><path class="cls-21" d="M686.94,193.22a3,3,0,1,1-3-3A3,3,0,0,1,686.94,193.22Z"/><rect class="cls-21" x="681.43" y="200.22" width="4.94" height="34.44"/><rect class="cls-20" x="605.21" y="178.91" width="29.67" height="4.13"/><rect class="cls-19" x="605.21" y="170.96" width="29.67" height="7.95"/><rect class="cls-20" x="605.21" y="243.92" width="29.67" height="3.14"/><rect class="cls-19" x="605.21" y="183.04" width="29.67" height="60.88"/><rect class="cls-20" x="605.21" y="249.68" width="29.67" height="3.29"/><rect class="cls-19" x="605.21" y="247.06" width="29.67" height="2.62"/><rect class="cls-19" x="605.21" y="252.97" width="29.67" height="7.09"/><circle class="cls-21" cx="620.05" cy="192.87" r="3.85"/><rect class="cls-21" x="615.53" y="201.69" width="9.04" height="34.47"/><rect class="cls-22" x="585.76" y="150.98" width="19.25" height="109.08"/><rect class="cls-2" x="592.68" y="159.4" width="5.41" height="92.24"/><rect class="cls-23" x="571.85" y="190.39" width="13.91" height="2.42"/><rect class="cls-24" x="571.85" y="181.26" width="13.91" height="9.13"/><rect class="cls-23" x="571.85" y="251.06" width="13.91" height="2.73"/><rect class="cls-24" x="571.85" y="192.81" width="13.91" height="58.25"/><rect class="cls-24" x="571.85" y="253.79" width="13.91" height="6.27"/><rect class="cls-23" x="576.88" y="197.14" width="3.85" height="50.06"/><rect class="cls-25" x="546.88" y="189.02" width="24.96" height="71.04"/><circle class="cls-26" cx="559.36" cy="207.43" r="6.09"/><rect class="cls-1" x="634.88" y="185" width="25" height="8.7"/><rect class="cls-1" x="634.88" y="249.17" width="25" height="4.91"/><rect class="cls-22" x="634.88" y="193.7" width="25" height="55.47"/><rect class="cls-22" x="634.88" y="254.08" width="25" height="5.98"/><rect class="cls-1" x="640.89" y="202.15" width="12.98" height="12.98"/><rect class="cls-19" x="520.85" y="174.76" width="9.33" height="17.46" transform="translate(74.26 509.37) rotate(-55.08)"/><rect class="cls-27" x="518.17" y="181.02" width="5.94" height="17.46" transform="translate(67.24 508.44) rotate(-55.08)"/><polygon class="cls-27" points="490.94 248.27 487.56 253.14 487.55 253.14 473.24 243.15 476.63 238.28 490.94 248.27"/><rect class="cls-19" x="474.72" y="242.38" width="7.22" height="17.45" transform="translate(-1.37 499.57) rotate(-55.08)"/><polygon class="cls-19" points="526.61 197.18 490.94 248.27 476.63 238.28 512.28 187.19 526.61 197.18"/><line class="cls-28" x1="490.95" y1="248.27" x2="490.94" y2="248.27"/><rect class="cls-21" x="496.44" y="194.04" width="9.07" height="49.25" transform="translate(215.31 -247.37) rotate(34.91)"/><rect class="cls-6" x="535.34" y="178.66" width="11.53" height="5.94"/><rect class="cls-8" x="535.34" y="169.33" width="11.53" height="9.33"/><rect class="cls-6" x="535.34" y="246.9" width="11.53" height="5.94"/><rect class="cls-8" x="535.34" y="184.6" width="11.53" height="62.3"/><rect class="cls-8" x="535.34" y="252.84" width="11.53" height="7.22"/><rect class="cls-18" x="418.13" y="508.9" width="282.46" height="8.75" rx="2"/><rect class="cls-18" x="418.13" y="383.94" width="282.46" height="8.75" rx="2"/><rect class="cls-25" x="659.88" y="169.33" width="16.01" height="9.51"/><rect class="cls-26" x="659.88" y="178.84" width="16.01" height="2.79"/><rect class="cls-26" x="659.88" y="243.63" width="16.01" height="2.98"/><rect class="cls-25" x="659.88" y="181.63" width="16.01" height="62"/><rect class="cls-26" x="659.88" y="250.7" width="16.01" height="3.14"/><rect class="cls-25" x="659.88" y="246.61" width="16.01" height="4.09"/><rect class="cls-25" x="659.88" y="253.84" width="16.01" height="6.22"/><circle class="cls-29" cx="667.89" cy="193.22" r="3.04"/><rect class="cls-29" x="665.42" y="200.22" width="4.94" height="34.44"/><rect class="cls-20" x="545.95" y="434.85" width="25" height="8.69"/><rect class="cls-20" x="545.95" y="499.02" width="25" height="4.91"/><rect class="cls-19" x="545.95" y="443.54" width="25" height="55.48"/><rect class="cls-19" x="545.95" y="503.93" width="25" height="5.98"/><rect class="cls-21" x="551.96" y="452" width="12.98" height="12.98"/><rect class="cls-5" x="429.61" y="484.93" width="2.77" height="24.95"/><rect class="cls-8" x="423.65" y="484.93" width="5.96" height="24.95"/><rect class="cls-5" x="434.58" y="484.93" width="2.64" height="24.95"/><rect class="cls-8" x="432.38" y="484.93" width="2.2" height="24.95"/><rect class="cls-5" x="488.39" y="484.93" width="3.47" height="24.95"/><rect class="cls-8" x="437.22" y="484.93" width="51.17" height="24.95"/><rect class="cls-8" x="491.86" y="484.93" width="6.68" height="24.95"/><circle class="cls-6" cx="480.12" cy="497.4" r="3.24"/><rect class="cls-6" x="454.42" y="482.92" width="7.6" height="28.97" transform="translate(-39.18 955.62) rotate(-90)"/><rect class="cls-22" x="428.67" y="463.85" width="4.13" height="21.02"/><rect class="cls-30" x="423.65" y="463.85" width="5.02" height="21.02"/><rect class="cls-22" x="479.43" y="463.85" width="7.31" height="21.02"/><rect class="cls-30" x="432.8" y="463.85" width="46.63" height="21.02"/><rect class="cls-22" x="461.41" y="468.9" width="10.91" height="10.91" transform="translate(-7.5 941.22) rotate(-90)"/><path class="cls-18" d="M686.48,375.63a15.56,15.56,0,0,1-6,8.83,1.56,1.56,0,0,1-.85.3c-1.18,0-2.37,0-3.55,0-4.55,0-9.11.05-13.67,0a3.34,3.34,0,0,1-1.82-1,16,16,0,0,1-5.45-9.92,21.72,21.72,0,0,1-.06-3,36.8,36.8,0,0,0,0-4.07c-.1-.94.23-1,1-1,4.67,0,9.34,0,14,0h1.83l9.05,0h5.85c.06.06.13.1.13.15C687,369.16,687.32,372.43,686.48,375.63Z"/><path class="cls-31" d="M656.16,312.37c1-1.69,1.93-3.38,2.88-5.08a1,1,0,0,1,1.1-.58c6.53.45,10.87,4.06,13.9,9.58-.1.38-.2.77-.32,1.15a19,19,0,0,0-.63,9.47,3.24,3.24,0,0,0-.55.71,29.15,29.15,0,0,0-1.44,4.15c-.48,2.3-.74,4.64-1.09,7l-3.45-.4h0l-.18-.15a16.92,16.92,0,0,0-8.81-7.12,20.83,20.83,0,0,1-2.81-7.11,2.06,2.06,0,0,0,0-.43,14.89,14.89,0,0,1,.3-7.64C655.44,314.72,655.8,313.54,656.16,312.37Z"/><path class="cls-32" d="M674.56,352.38c-.24-.92-.53-1.82-.71-2.75-.79-4.09.54-7.62,2.92-10.86,3.84-5.24,9.08-7.34,15.45-6.91,1,.07,2,.21,3.13.32a21.15,21.15,0,0,1-1.23,6.45,22.17,22.17,0,0,1-11.93,13.47,12.76,12.76,0,0,1-6.07,1.15C675.33,353.45,675,352.85,674.56,352.38Z"/><path class="cls-33" d="M673.09,326.91a19,19,0,0,1,.63-9.47c.12-.38.22-.77.32-1.15a9.5,9.5,0,0,0,.5-.88c2.2-5,5.42-9,10.32-11.6a11,11,0,0,1,5.79-1.37c-.27,1.75-.46,3.43-.8,5.07a26.12,26.12,0,0,1-2.91,7.38c-1.67,2.93-3.35,5.86-5.15,8.71a9.09,9.09,0,0,1-5.07,4l-2.36.35C673.82,327.74,673,327.88,673.09,326.91Z"/><path class="cls-33" d="M657.58,331.07a16.92,16.92,0,0,1,8.81,7.12l.18.15h0a2.22,2.22,0,0,0,.07.45c.53,1.57,1.19,3.12,1.56,4.73a30.5,30.5,0,0,1,.43,4.19l-.24,1.2-1,.22a3.93,3.93,0,0,0-.86-.5,26.13,26.13,0,0,1-14.89-10.48,32.61,32.61,0,0,0-2-2.78c-1.23-1.43-2.53-2.8-3.86-4.25,1.13-.18,2.41-.4,3.69-.57A23.35,23.35,0,0,1,657.58,331.07Z"/><path class="cls-9" d="M667.39,349.12l1-.22.24-1.2,1.43,2.76c0-.49.05-.71.05-.93v-9.95a7.89,7.89,0,0,0-.09-.85c.35-2.32.61-4.66,1.09-7a29.15,29.15,0,0,1,1.44-4.15,3.24,3.24,0,0,1,.55-.71c-.08,1,.73.83,1.27,1l-.39,1a27.2,27.2,0,0,0-2,9.11v20l.11.06,2.5-5.68c.42.47.77,1.07,1.56.87-1.33,3.08-2.74,6.12-4,9.25a11.33,11.33,0,0,0-.25,3.22h-1.83c0-1.24,0-2.48,0-3.71a1.48,1.48,0,0,0-.53-.94,21.33,21.33,0,0,0-1.76-1.23c.89-.25.79-.92.68-1.6l1.62,1c0-2.39.37-4.68-1.05-6.77A25.47,25.47,0,0,1,667.39,349.12Z"/><path class="cls-32" d="M656.16,312.37c-.36,1.17-.72,2.35-1.09,3.52a14.89,14.89,0,0,0-.3,7.64,2.06,2.06,0,0,1,0,.43,17.74,17.74,0,0,1-6.18-7.94c-1.19-2.93-2.15-5.94-3.22-8.93a4.4,4.4,0,0,1,3.52-.18A14.25,14.25,0,0,1,656.16,312.37Z"/><path class="cls-31" d="M668.46,358.23c.11.68.21,1.35-.68,1.6-3.64,1.52-6.83.41-9.79-1.76-2.8-2.05-2.78-2.08-6.15-2.48a4,4,0,0,1,2.09-2.78,10,10,0,0,1,7.72-.71A9.17,9.17,0,0,1,668.46,358.23Z"/><path class="cls-4" d="M672.53,336.84a27.09,27.09,0,0,1,1.9-7.75l.29-.7,1.46-.22A13.31,13.31,0,0,1,672.53,336.84Z"/><path d="M675.62,328.76a13,13,0,0,1-2.39,6.49,26,26,0,0,1,1.66-6c.07-.15.12-.29.18-.44l.55-.08m1.1-1.17-2.36.35-.39,1a27.2,27.2,0,0,0-2,9.11c.15-.12.32-.23.47-.37a13.93,13.93,0,0,0,4.3-10.05Z"/><path class="cls-4" d="M666.57,338.34l-.18-.15Z"/><path d="M666.39,338.19l.18.15-.18-.15Z"/><g id="Maceta"><path id="Fill_27" data-name="Fill 27" class="cls-34" d="M622.31,355.75a26.58,26.58,0,0,0-1.21,2.38,32.61,32.61,0,0,1,.33-5c.43-2.91,1.09-5.8,1.7-8.69.45-2.07.42-5.8,2.1-7.45.46-.36.57.34.57.65,0,.06,0-1.25-.45-1-2.66,1.37-3.52,5.69-4.37,7.85a42.16,42.16,0,0,0-2.73,9.65,20.85,20.85,0,0,0-.18,2.49l-.27-.67a45,45,0,0,0-6.19-10.34c-.63-.79-8.62-8.65-9.25-7.45a.88.88,0,0,0,.39.44s0,0,0,0c.47.76,1.8,1.93,2.22,2.6a49.73,49.73,0,0,1,2.68,5.18c1.75,3.68,3.36,7.39,4.93,11.11.37.87.75,1.73,1.14,2.59-4-5.78-9.35-11-16.7-14,2.5,1.27,4.15,3.68,5.85,5.52,2,2.22,4.2,4.38,6.25,6.6,2.42,2.62,5.26,5.37,7.59,8.27a87.32,87.32,0,0,1,5.79,14.43c-.55-1.71,0-4.09-.13-5.89a41.2,41.2,0,0,0-.48-4.28,8.87,8.87,0,0,1,.64,1.88c-.1-1-.22-2-.34-3,.32-.92.63-1.79.85-2.5a63.56,63.56,0,0,1,4.17-10.73,94.29,94.29,0,0,1,5.57-9.52c1-1.45,1.93-2.89,2.89-4.33a23.32,23.32,0,0,1,2.11-3.35c-5.67,5.19-11.88,10.42-15.48,16.64"/><path id="Base-4" class="cls-35" d="M631.87,363c0,11.61-.92,21-13.22,21s-13.21-9.41-13.21-21Z"/></g><rect class="cls-25" x="659.88" y="169.33" width="16.01" height="9.51"/><rect class="cls-26" x="659.88" y="178.84" width="16.01" height="2.79"/><rect class="cls-26" x="659.88" y="243.63" width="16.01" height="2.98"/><rect class="cls-25" x="659.88" y="181.63" width="16.01" height="62"/><rect class="cls-26" x="659.88" y="250.7" width="16.01" height="3.14"/><rect class="cls-25" x="659.88" y="246.61" width="16.01" height="4.09"/><rect class="cls-25" x="659.88" y="253.84" width="16.01" height="6.22"/><circle class="cls-29" cx="667.89" cy="193.22" r="3.04"/><rect class="cls-29" x="665.42" y="200.22" width="4.94" height="34.44"/><rect class="cls-25" x="429.24" y="313.6" width="24.96" height="71.04"/><circle class="cls-26" cx="441.72" cy="332.01" r="6.09"/><rect class="cls-1" x="453.9" y="289.3" width="18.99" height="11.1"/><rect class="cls-1" x="453.9" y="371.19" width="18.99" height="6.27"/><rect class="cls-22" x="453.9" y="300.4" width="18.99" height="70.79"/><rect class="cls-22" x="453.9" y="377.46" width="18.99" height="7.63"/><rect class="cls-1" x="458.47" y="311.19" width="9.86" height="16.57"/><rect class="cls-23" x="473.08" y="314.35" width="23.53" height="2.45"/><rect class="cls-24" x="473.08" y="305.11" width="23.53" height="9.24"/><rect class="cls-23" x="473.08" y="375.75" width="23.53" height="2.76"/><rect class="cls-24" x="473.08" y="316.8" width="23.53" height="58.95"/><rect class="cls-24" x="473.08" y="378.51" width="23.53" height="6.35"/><rect class="cls-23" x="481.59" y="321.19" width="6.51" height="50.66"/><rect class="cls-19" x="577.76" y="369.12" width="9.51" height="16.01"/><rect class="cls-20" x="574.97" y="369.12" width="2.79" height="16.01"/><path class="cls-19" d="M575,369.12H513v16h62Zm-53,10.49v-4.95h34.44v4.95Zm38.4-2.48a3,3,0,1,1,3,3.05A3,3,0,0,1,560.34,377.13Z"/><path class="cls-19" d="M563.38,374.1a3,3,0,1,1-3,3A3,3,0,0,1,563.38,374.1Z"/><rect class="cls-19" x="521.94" y="374.66" width="34.44" height="4.94"/><rect class="cls-19" x="505.9" y="369.12" width="4.09" height="16.01"/><rect class="cls-20" x="509.99" y="369.12" width="2.98" height="16.01"/><rect class="cls-20" x="502.76" y="369.12" width="3.14" height="16.01"/><rect class="cls-19" x="496.54" y="369.12" width="6.22" height="16.01"/><path class="cls-21" d="M563.38,380.18a3,3,0,1,1,3-3.05A3,3,0,0,1,563.38,380.18Z"/><rect class="cls-21" x="521.94" y="374.66" width="34.44" height="4.94"/><rect class="cls-6" x="554.33" y="346.32" width="4.56" height="22.55"/><rect class="cls-8" x="558.88" y="346.32" width="7.16" height="22.55"/><rect class="cls-6" x="501.99" y="346.32" width="4.56" height="22.55"/><rect class="cls-8" x="506.54" y="346.32" width="47.78" height="22.55"/><rect class="cls-8" x="496.45" y="346.32" width="5.54" height="22.55"/><rect class="cls-20" x="662.27" y="428.75" width="29.67" height="4.13"/><rect class="cls-19" x="662.27" y="420.8" width="29.67" height="7.95"/><rect class="cls-20" x="662.27" y="493.76" width="29.67" height="3.14"/><rect class="cls-19" x="662.27" y="432.88" width="29.67" height="60.88"/><rect class="cls-20" x="662.27" y="499.52" width="29.67" height="3.29"/><rect class="cls-19" x="662.27" y="496.9" width="29.67" height="2.62"/><rect class="cls-19" x="662.27" y="502.81" width="29.67" height="7.09"/><circle class="cls-21" cx="677.1" cy="442.71" r="3.85"/><rect class="cls-21" x="672.58" y="451.54" width="9.04" height="34.47"/><rect class="cls-25" x="637.58" y="438.8" width="24.36" height="7.45"/><rect class="cls-26" x="637.58" y="446.25" width="24.36" height="2.18"/><rect class="cls-26" x="637.58" y="496.98" width="24.36" height="2.33"/><rect class="cls-25" x="637.58" y="448.43" width="24.36" height="48.54"/><rect class="cls-26" x="637.58" y="502.51" width="24.36" height="2.46"/><rect class="cls-25" x="637.58" y="499.31" width="24.36" height="3.2"/><rect class="cls-25" x="637.58" y="504.97" width="24.36" height="4.87"/><circle class="cls-29" cx="649.77" cy="457.59" r="3.54"/><rect class="cls-29" x="646.01" y="463.99" width="7.52" height="26.97"/><rect class="cls-22" x="618.46" y="426.4" width="19.25" height="83.56"/><rect class="cls-2" x="625.38" y="432.85" width="5.41" height="70.67"/><rect class="cls-23" x="599.58" y="444.51" width="19.36" height="2.29"/><rect class="cls-24" x="599.58" y="435.87" width="19.36" height="8.64"/><rect class="cls-23" x="599.58" y="501.9" width="19.36" height="2.58"/><rect class="cls-24" x="599.58" y="446.8" width="19.36" height="55.11"/><rect class="cls-24" x="599.58" y="504.49" width="19.36" height="5.93"/><rect class="cls-23" x="606.58" y="450.9" width="5.35" height="47.36"/><rect class="cls-6" x="588.27" y="429.05" width="11.53" height="5.94"/><rect class="cls-8" x="588.27" y="419.72" width="11.53" height="9.33"/><rect class="cls-6" x="588.27" y="497.29" width="11.53" height="5.94"/><rect class="cls-8" x="588.27" y="434.99" width="11.53" height="62.3"/><rect class="cls-8" x="588.27" y="503.23" width="11.53" height="7.22"/><rect class="cls-1" x="571.01" y="419.58" width="17.26" height="10.51"/><rect class="cls-1" x="571.01" y="497.08" width="17.26" height="5.93"/><rect class="cls-22" x="571.01" y="430.08" width="17.26" height="67"/><rect class="cls-22" x="571.01" y="503.01" width="17.26" height="7.22"/><rect class="cls-1" x="575.16" y="440.3" width="8.96" height="15.68"/></g><g id="Girl"><path class="cls-6" d="M424.21,644.31a33.82,33.82,0,0,0-5.17-.39H161.43V649l175.51.25-.39,57.31H161.43v5.25H419a34,34,0,0,0,5.17-67.54Zm-34.53,34a34.24,34.24,0,0,1-.4,4.78,33.58,33.58,0,0,1-3,9.55,34.09,34.09,0,0,1-22.74,18.3h-9.64a33.83,33.83,0,0,0,15.85-8.74,34,34,0,0,0,6.88-9.56,33.58,33.58,0,0,0,3-9.55,34.24,34.24,0,0,0,.4-4.78v-.42a34.8,34.8,0,0,0-.27-4.35,34.29,34.29,0,0,0-1-4.78,32.66,32.66,0,0,0-1.73-4.77,31.69,31.69,0,0,0-2.63-4.78,33.1,33.1,0,0,0-3.8-4.78,33.92,33.92,0,0,0-19.39-10.11h9.64a33.92,33.92,0,0,1,19.39,10.11,33.16,33.16,0,0,1,3.81,4.78,32.6,32.6,0,0,1,2.63,4.78,33.87,33.87,0,0,1,1.73,4.77,34.29,34.29,0,0,1,1,4.78,34.8,34.8,0,0,1,.27,4.35Z"/><path class="cls-36" d="M389.68,677.88v.42a34.24,34.24,0,0,1-.4,4.78,33.58,33.58,0,0,1-3,9.55,34.09,34.09,0,0,1-22.74,18.3h-9.64a33.83,33.83,0,0,0,15.85-8.74,34,34,0,0,0,6.88-9.56,33.58,33.58,0,0,0,3-9.55,34.24,34.24,0,0,0,.4-4.78v-.42a34.8,34.8,0,0,0-.27-4.35,34.29,34.29,0,0,0-1-4.78,32.66,32.66,0,0,0-1.73-4.77,31.69,31.69,0,0,0-2.63-4.78,33.1,33.1,0,0,0-3.8-4.78,33.92,33.92,0,0,0-19.39-10.11h9.64a33.92,33.92,0,0,1,19.39,10.11,33.16,33.16,0,0,1,3.81,4.78,32.6,32.6,0,0,1,2.63,4.78,33.87,33.87,0,0,1,1.73,4.77,34.29,34.29,0,0,1,1,4.78A34.8,34.8,0,0,1,389.68,677.88Z"/><path class="cls-37" d="M436,677.88v.42a34.24,34.24,0,0,1-.4,4.78,33.58,33.58,0,0,1-3,9.55,34.09,34.09,0,0,1-22.74,18.3h-9.64a33.83,33.83,0,0,0,15.85-8.74,34,34,0,0,0,6.88-9.56,33.58,33.58,0,0,0,3-9.55,34.24,34.24,0,0,0,.4-4.78v-.42a34.8,34.8,0,0,0-.27-4.35,34.29,34.29,0,0,0-1-4.78,32.66,32.66,0,0,0-1.73-4.77,31.69,31.69,0,0,0-2.63-4.78,33.1,33.1,0,0,0-3.8-4.78,33.92,33.92,0,0,0-19.39-10.11h9.64a33.92,33.92,0,0,1,19.39,10.11,33.16,33.16,0,0,1,3.81,4.78A32.6,32.6,0,0,1,433,664a33.87,33.87,0,0,1,1.73,4.77,34.29,34.29,0,0,1,1,4.78A34.8,34.8,0,0,1,436,677.88Z"/><path class="cls-37" d="M168.49,705.67c11-33.52,0-56.46,0-56.46h166.3a28.68,28.68,0,0,1,28.67,28.67h0a28.67,28.67,0,0,1-28.67,28.67H168.18C168.28,706.26,168.39,706,168.49,705.67Z"/><polyline class="cls-38" points="170.86 654 253.03 654 280 654 337.03 654 350.66 654"/><polyline class="cls-38" points="172.09 659.97 253.75 659.97 279.28 659.97 337.03 659.97 357.18 659.97"/><polyline class="cls-38" points="173.83 671.91 337.03 671.91 362.88 671.91"/><polyline class="cls-38" points="173.59 677.88 337.03 677.88 363.46 677.88"/><polyline class="cls-38" points="173.09 683.86 337.03 683.86 362.88 683.86"/><polyline class="cls-38" points="172.32 689.83 337.03 689.83 360.93 689.83"/><polyline class="cls-38" points="171.32 695.8 337.03 695.8 357.07 695.8"/><polyline class="cls-38" points="170.05 701.77 337.03 701.77 350.07 701.77"/><polyline class="cls-38" points="172.82 665.94 335.96 665.94 360.86 665.94"/><path class="cls-39" d="M284.67,581.11H459.79V576H202.18a34,34,0,1,0,0,67.93H459.79v-5.25H284.67Zm-27,61.89a34.16,34.16,0,0,1-22.74-18.3,33.58,33.58,0,0,1-3-9.55,34.24,34.24,0,0,1-.4-4.78V610a34.8,34.8,0,0,1,.27-4.35,34.29,34.29,0,0,1,1-4.78,33.87,33.87,0,0,1,1.73-4.77,32.6,32.6,0,0,1,2.63-4.78,33.16,33.16,0,0,1,3.81-4.78,33.92,33.92,0,0,1,19.39-10.11H270a33.92,33.92,0,0,0-19.39,10.11,33.1,33.1,0,0,0-3.8,4.78,31.69,31.69,0,0,0-2.63,4.78,32.66,32.66,0,0,0-1.73,4.77,34.29,34.29,0,0,0-1,4.78,34.8,34.8,0,0,0-.27,4.35v.42a34.24,34.24,0,0,0,.4,4.78,33.58,33.58,0,0,0,3,9.55,34,34,0,0,0,6.88,9.56A33.83,33.83,0,0,0,267.28,643Z"/><path class="cls-37" d="M251.43,634.26A33.83,33.83,0,0,0,267.28,643h-9.64a34.16,34.16,0,0,1-22.74-18.3,33.58,33.58,0,0,1-3-9.55,34.24,34.24,0,0,1-.4-4.78V610a34.8,34.8,0,0,1,.27-4.35,34.29,34.29,0,0,1,1-4.78,33.87,33.87,0,0,1,1.73-4.77,32.6,32.6,0,0,1,2.63-4.78,33.16,33.16,0,0,1,3.81-4.78,33.92,33.92,0,0,1,19.39-10.11H270a33.92,33.92,0,0,0-19.39,10.11,33.1,33.1,0,0,0-3.8,4.78,31.69,31.69,0,0,0-2.63,4.78,32.66,32.66,0,0,0-1.73,4.77,34.29,34.29,0,0,0-1,4.78,34.8,34.8,0,0,0-.27,4.35v.42a34.24,34.24,0,0,0,.4,4.78,33.58,33.58,0,0,0,3,9.55,34,34,0,0,0,6.88,9.56Z"/><path class="cls-37" d="M452.73,637.74c-11-33.52,0-56.46,0-56.46H286.43A28.68,28.68,0,0,0,257.76,610h0a28.67,28.67,0,0,0,28.67,28.67H453C452.94,638.33,452.83,638.05,452.73,637.74Z"/><polyline class="cls-38" points="269.5 586.8 284.2 586.8 341.23 586.8 368.2 586.8 450.37 586.8"/><polyline class="cls-38" points="263.58 592.77 284.2 592.77 341.95 592.77 367.48 592.77 449.14 592.77"/><polyline class="cls-38" points="257.83 604.72 284.2 604.72 447.4 604.72"/><polyline class="cls-38" points="257.77 610.69 284.2 610.69 447.64 610.69"/><polyline class="cls-38" points="258.35 616.66 284.2 616.66 448.14 616.66"/><polyline class="cls-38" points="260.3 622.63 284.2 622.63 448.91 622.63"/><polyline class="cls-38" points="264.15 628.6 284.2 628.6 449.91 628.6"/><polyline class="cls-38" points="271.16 634.57 284.2 634.57 451.18 634.57"/><polyline class="cls-38" points="259.86 598.75 285.26 598.75 448.41 598.75"/><polygon class="cls-40" points="436.4 624.58 427.87 617.72 419.34 624.58 419.34 595.49 436.4 595.49 436.4 624.58"/><path class="cls-6" d="M270.3,513.57H445.42v-5.12H187.81a34,34,0,1,0,0,67.93H445.42v-5.25H270.3Zm-53.13,28.84a34.8,34.8,0,0,1,.27-4.35,34.29,34.29,0,0,1,1-4.78,33.87,33.87,0,0,1,1.73-4.77,32.6,32.6,0,0,1,2.63-4.78,33.16,33.16,0,0,1,3.81-4.78A33.92,33.92,0,0,1,246,508.84h9.64A33.92,33.92,0,0,0,236.22,519a33.1,33.1,0,0,0-3.8,4.78,31.69,31.69,0,0,0-2.63,4.78,32.66,32.66,0,0,0-1.73,4.77,34.29,34.29,0,0,0-1,4.78,34.8,34.8,0,0,0-.27,4.35v.42a34.24,34.24,0,0,0,.4,4.78,33.58,33.58,0,0,0,3,9.55,34,34,0,0,0,6.88,9.56,33.83,33.83,0,0,0,15.85,8.74h-9.64a34.16,34.16,0,0,1-22.74-18.3,33.58,33.58,0,0,1-3-9.55,34.24,34.24,0,0,1-.4-4.78Z"/><path class="cls-41" d="M237.06,566.72a33.83,33.83,0,0,0,15.85,8.74h-9.64a34.16,34.16,0,0,1-22.74-18.3,33.58,33.58,0,0,1-3-9.55,34.24,34.24,0,0,1-.4-4.78v-.42a34.8,34.8,0,0,1,.27-4.35,34.29,34.29,0,0,1,1-4.78,33.87,33.87,0,0,1,1.73-4.77,32.6,32.6,0,0,1,2.63-4.78,33.16,33.16,0,0,1,3.81-4.78A33.92,33.92,0,0,1,246,508.84h9.64A33.92,33.92,0,0,0,236.22,519a33.1,33.1,0,0,0-3.8,4.78,31.69,31.69,0,0,0-2.63,4.78,32.66,32.66,0,0,0-1.73,4.77,34.29,34.29,0,0,0-1,4.78,34.8,34.8,0,0,0-.27,4.35v.42a34.24,34.24,0,0,0,.4,4.78,33.58,33.58,0,0,0,3,9.55,34,34,0,0,0,6.88,9.56Z"/><path class="cls-7" d="M438.36,570.2c-11-33.52,0-56.46,0-56.46H272.07a28.68,28.68,0,0,0-28.68,28.67h0a28.67,28.67,0,0,0,28.68,28.67h166.6Z"/><polyline class="cls-38" points="255.6 518.95 270.3 518.95 327.33 518.95 354.3 518.95 436.47 518.95"/><polyline class="cls-38" points="249.68 524.92 270.3 524.92 328.05 524.92 353.58 524.92 435.24 524.92"/><polyline class="cls-38" points="243.93 536.86 270.3 536.86 433.5 536.86"/><polyline class="cls-38" points="243.87 542.83 270.3 542.83 433.74 542.83"/><polyline class="cls-38" points="244.45 548.81 270.3 548.81 434.24 548.81"/><polyline class="cls-38" points="246.4 554.78 270.3 554.78 435.01 554.78"/><polyline class="cls-38" points="250.26 560.75 270.3 560.75 436.01 560.75"/><polyline class="cls-38" points="257.26 566.72 270.3 566.72 437.28 566.72"/><polyline class="cls-38" points="245.96 530.89 271.37 530.89 434.51 530.89"/><path class="cls-9" d="M283,456.07l-.77.81c-2.75,2.88-11.88,12.47-12.68,13.26-.94.94-4.07,3.44-4.07,3.44s-9.38,6.89-8.44,8.76,24.71,18.77,41.91,22.21,57.56,2.19,65.38-1.88,17.51-17.2,21.58-24.71-5-13.45-10.64-15.64-19.7-9.38-21.89-11.26Z"/><path class="cls-2" d="M322,467.65c-12.3,0-26.3-2.33-34-5.67-11.51-5-12.87-22.46-13.68-32.91l-.13-1.66c-.25-3-1.33-8.81-2.69-16.12-3.2-17.13-8-43-4.69-50.51,4.62-10.32,39-12.38,39.36-12.4.09,0,10.7-.32,21.56-.32,12.16,0,20.06.4,22.86,1.15,8,2.15,14.6,5.16,14.87,20.41.14,8.51-4,19.73-8,30.58-3.44,9.34-6.69,18.16-6.69,24.14,0,8.22,2.09,15.88,3.61,21.48a34.19,34.19,0,0,1,1.47,6.74c0,3.94-6.16,8.61-16.89,12.79-3.85,1.51-9.71,2.3-16.94,2.3Z"/><path d="M327.74,348.56c15.31,0,20.81.62,22.73,1.13,7.78,2.1,14.23,5,14.5,19.93.14,8.43-4,19.6-8,30.41-3.45,9.38-6.72,18.24-6.72,24.31,0,8.29,2.1,16,3.63,21.61a34.36,34.36,0,0,1,1.45,6.61c0,3.67-6.19,8.28-16.57,12.33-3.79,1.48-9.59,2.26-16.76,2.26-12.24,0-26.15-2.32-33.83-5.63C277,456.67,275.63,439.37,274.83,429c0-.57-.09-1.13-.13-1.66-.25-3.05-1.33-8.84-2.7-16.17-3.19-17.07-8-42.86-4.72-50.21,4.49-10.05,38.58-12.09,38.9-12.11.11,0,10.7-.32,21.56-.32m0-1c-11,0-21.59.32-21.59.32s-35,2-39.78,12.7,6.49,56.43,7.33,66.87,1.69,29.62,14.11,35c8,3.44,22.08,5.72,34.23,5.72,6.79,0,13-.71,17.12-2.33,11.57-4.51,17.21-9.31,17.21-13.26s-5.08-15.52-5.08-28.22,15-38.65,14.68-54.73-7.91-18.91-15.24-20.88c-3.42-.92-13.36-1.17-23-1.17Z"/><path class="cls-9" d="M322.42,495.48s-11.94-4.42-13.45-4.69c-7.2-1.31-21.79-4.89-34.72-16.27-15.64-13.76-45-33.47-55.68-35.34S199.18,447,202,459.51s16.57,27.84,30.34,36,81.32,13.45,90.08,14.08,35.66,5.31,40.67,2.19,6.88-12.83,3.12-16-28.46,1.25-33.78.63S322.42,495.48,322.42,495.48Z"/><path class="cls-36" d="M332.43,496.42c-3.53-.42-6.78-.69-8.56-.83l-2.71,13.87,1.26.1c8.76.62,35.66,5.31,40.67,2.19s6.88-12.83,3.12-16S337.75,497,332.43,496.42Z"/><path class="cls-36" d="M277.69,494.85s39.41-15.32,60.06-24.08,42.23-21.9,58.49-21.9,7.82,20.65,3.13,29.41S374.66,492,359.64,495.17s-54.11,8.13-76,11.88-36.29.94-44.73,0-14.08-1.25-15.64-6.88,6.25-11.26,14.07-12.51,17.83,5,22.84,6.26S277.69,494.85,277.69,494.85Z"/><path class="cls-9" d="M396.24,448.87c-16.26,0-37.85,13.14-58.49,21.9-19.94,8.46-57.38,23-59.92,24a16.5,16.5,0,0,0,3.95,12.54c.62-.09,1.22-.18,1.86-.29,21.89-3.75,61-8.75,76-11.88s35-8.14,39.73-16.89S412.51,448.87,396.24,448.87Z"/><path class="cls-38" d="M272.19,494.88c-4-.05-9.2-.26-12-1-5-1.25-15-7.51-22.84-6.26s-15.64,6.88-14.07,12.51,7.19,5.95,15.64,6.88c7.3.81,19,3,36.24,1.18a14.28,14.28,0,0,1-3.09-5.24A10.56,10.56,0,0,1,272.19,494.88Z"/><path class="cls-42" d="M274,354.65s-9.31-.56-12.69,14.68-.28,58.12,2.82,68.28,5.64,17.77,10.16,24.26,20,21.73,20,21.73,4.22,7.2,5.29,8.58,2.77,4.61,5.07,6.61a31.09,31.09,0,0,0,3.84,2.92s4.31,2.61,5.54,1.69-1.08-2.31-1.08-2.31l-4.92-8.6,1.69-.16,6.46,7.38s2,2.15,2.61,1.69a3.68,3.68,0,0,0,.61-3.07c-.3-.62-6.45-9.53-6.45-9.53s3.53,3.23,5.22,4.92,3.38,2.92,3.85,2.61a1.94,1.94,0,0,0,.15-2.61c-.77-1.23-10.45-13.83-10.45-13.83s6-1.38,7.07-1.85,3.38-2.3,3.23-3.22-1.54-.46-2.62.15a16.56,16.56,0,0,1-5.37,1.08c-1.08,0-6.46,0-8.92.77a16,16,0,0,1-4.3.92c-.61,0-13.37-27.35-13.52-28.12s-6.15-32.73-7.68-38.41-4.77-25.36-4.77-25.36"/><path class="cls-36" d="M318.8,501.4a3.68,3.68,0,0,0,.61-3.07c-.3-.62-6.45-9.53-6.45-9.53s3.53,3.23,5.22,4.92,3.38,2.92,3.85,2.61a1.94,1.94,0,0,0,.15-2.61c-.77-1.23-10.45-13.83-10.45-13.83s6-1.38,7.07-1.85,3.38-2.3,3.23-3.22-1.54-.46-2.62.15a16.56,16.56,0,0,1-5.37,1.08c-1.08,0-6.46,0-8.92.77a16,16,0,0,1-4.3.92c-.4,0-5.95-11.6-9.81-19.91A58.32,58.32,0,0,0,276.68,465c6.07,7.28,17.62,18.62,17.62,18.62s4.22,7.2,5.29,8.58,2.77,4.61,5.07,6.61a31.09,31.09,0,0,0,3.84,2.92s4.31,2.61,5.54,1.69-1.08-2.31-1.08-2.31l-4.92-8.6,1.69-.16,6.46,7.38S318.18,501.86,318.8,501.4Z"/><path class="cls-38" d="M309.82,502.15s-4.87-5.29-6.35-8.89"/><ellipse class="cls-5" cx="301.07" cy="305.14" rx="11.57" ry="12.56"/><path d="M313.2,269.16s-13,3.39-13.26,7.9.57,10.16.57,13.26-16.93,37.25-15.8,40.07,9,9.59,23.7,12.13,24.83,5.08,39.22.28,25.11-11.57,25.67-18.05-12.13-33-17.21-40.07-5.36-9-13-12.7S324.21,264.37,313.2,269.16Z"/><path class="cls-36" d="M303.89,331.52v16.64s-5.08,7.34-2,15.52,12.13,9.6,17.21,3.11,7.9-18.63,7.9-18.63l.28-21.44Z"/><polygon class="cls-39" points="321.85 328.62 304.18 340.21 303.89 331.52 321.85 328.62"/><path class="cls-36" d="M303.33,284.4s-11,26-9.88,29.62,3.11,17.78,7.06,19.19,25.39-3.1,27.93-5.08,8.75-13.26,9.31-16.08-5.93-29.91-7.05-30.76S307.28,281.29,303.33,284.4Z"/><path class="cls-38" d="M310.1,304.43s-5.93,6.49-7.05,7.62-.29,4.23,2,4.23a26.79,26.79,0,0,0,4-.28"/><path class="cls-38" d="M299.66,315.43s2.26,4.52,5.92,5.65,8.47-.57,8.47-.57"/><path class="cls-38" d="M318.85,306.41s1.12,4.23,6.77,3.1"/><path class="cls-38" d="M302.2,299.07s1.69,5.08,6.77,2.54"/><path class="cls-38" d="M322.8,299.92s5.36.84,6.77,7.61"/><path class="cls-38" d="M312.36,295.68s-3.95-4.23-9.31-1.69"/><path class="cls-15" d="M347.63,309.79S349.88,285,343.11,272a15.67,15.67,0,0,1,9.88,8.47s3.1,20.31-1.7,33.29Z"/><ellipse class="cls-5" cx="344.24" cy="319.81" rx="11.57" ry="12.56"/><ellipse class="cls-15" cx="347.63" cy="320.65" rx="7.9" ry="8.57"/><path class="cls-42" d="M352.42,349.29a18.29,18.29,0,0,1,15,11.85c3.38,9,2.25,20-3.39,37.53S348.19,430.83,344.8,432s-14.39-36.11-14.67-37S319.41,348.16,320,344.78s15.8-6.21,15.8-6.21l5.93-8.18s1.41-1.41.85,1.41a34.31,34.31,0,0,1-2.82,7.05s6.2-7.87,7-8.74a5.2,5.2,0,0,1,2.54-1.13,2.65,2.65,0,0,0,.24,1c.28.69-.66,2-.66,2s3.23-3.78,3.93-3.36,1,1.68,1,2.79-5,9.22-6.17,11.37S328,352.07,328,352.07l18.78,37.85,1.13-12.13"/><path class="cls-36" d="M343.36,383l-15.36-31s18.41-7.11,19.63-9.27,6.17-10.25,6.17-11.37-.28-2.37-1-2.79S348.9,332,348.9,332s.94-1.29.66-2a2.65,2.65,0,0,1-.24-1,5.2,5.2,0,0,0-2.54,1.13c-.85.87-7,8.74-7,8.74a34.31,34.31,0,0,0,2.82-7.05c.56-2.82-.85-1.41-.85-1.41l-5.92,8.18s-15.24,2.82-15.81,6.21c-.44,2.67,6,31.83,8.82,44.46Z"/><path class="cls-38" d="M348.9,332s-5.46,9.44-5.79,9.94"/><line class="cls-38" x1="353.54" y1="330.85" x2="346.25" y2="341.94"/><line class="cls-38" x1="339.73" y1="338.85" x2="337.98" y2="340.28"/><line class="cls-43" x1="363.18" y1="539.97" x2="356.05" y2="539.97"/><path class="cls-44" d="M341.7,336.34v251.6a13.49,13.49,0,0,0,13.48,13.48h0a13.49,13.49,0,0,0,13.49-13.48V542.33A2.37,2.37,0,0,0,366.3,540h-3.12"/></g><g id="Plants"><g id="Clock"><circle id="Clock_Frame" data-name="Clock Frame" class="cls-6" cx="265.18" cy="169.96" r="53"/><circle id="Clock_Frame-2" data-name="Clock Frame" class="cls-45" cx="265.18" cy="169.96" r="45.45"/><path id="Hand" class="cls-13" d="M265.18,139.93l1.67,29.19h-3.33Z"/><path id="Hand-2" class="cls-13" d="M279.94,184.72l-15.33-13,2.36-2.36Z"/><circle id="Time-5" class="cls-13" cx="265.18" cy="169.96" r="3.34"/><circle id="Time" class="cls-13" cx="265.18" cy="133.72" r="1.67"/><circle id="Time-2" data-name="Time" class="cls-13" cx="265.18" cy="206.19" r="1.67"/><circle id="Time-3" data-name="Time" class="cls-13" cx="301.42" cy="169.96" r="1.67"/><circle id="Time-4" data-name="Time" class="cls-13" cx="228.95" cy="169.96" r="1.67"/></g><path class="cls-46" d="M525.88,502.79h0a.1.1,0,0,0-.18-.08,134.81,134.81,0,0,0-7.1,22.24,208.08,208.08,0,0,0-3.91,23l-.56,5.82c-.08,1-.19,1.94-.26,2.92l-.16,2.92c-.08,2-.2,3.9-.25,5.85l0,5.85.06,2.93c0,1,.12,2,.18,2.92.15,1.95.27,3.9.45,5.84.37,3.88.95,7.74,1.56,11.58a.1.1,0,0,0,.1.09.11.11,0,0,0,.1-.1h0c0-2-.09-3.89-.14-5.83s-.22-3.88-.2-5.82,0-3.87-.06-5.81l0-2.9,0-2.9,0-5.8.15-5.8.06-2.9c0-1,.11-1.94.17-2.9l.35-5.8a207.53,207.53,0,0,1,3.28-23A134.5,134.5,0,0,1,525.88,502.79Z"/><path class="cls-46" d="M526.71,533.12a.1.1,0,0,0-.06-.13.11.11,0,0,0-.13.07A134.86,134.86,0,0,0,520,562.94c-.51,5.07-1.08,10.15-1.15,15.26a126.37,126.37,0,0,0,.54,15.31.12.12,0,0,0,.09.09.11.11,0,0,0,.12-.09c.59-5.08,1-10.15,1.3-15.22s.41-10.15.74-15.22A134.56,134.56,0,0,1,523.4,548,138.06,138.06,0,0,1,526.71,533.12Z"/><path class="cls-46" d="M543.53,543.79a.11.11,0,0,0-.14,0,51.53,51.53,0,0,0-11.25,9.81,45,45,0,0,0-4.39,6.11l-.91,1.71-.7,1.77a15.18,15.18,0,0,0-.62,1.79c-.18.61-.39,1.21-.55,1.82a72,72,0,0,0-2.32,14.83,85.86,85.86,0,0,0,.55,14.95.11.11,0,0,0,.1.08.1.1,0,0,0,.11-.09l1.28-14.79a131.33,131.33,0,0,1,1.87-14.59c.14-.59.31-1.17.46-1.76a14.54,14.54,0,0,1,.52-1.74l.6-1.71.77-1.62a44.25,44.25,0,0,1,4-6.12,50.67,50.67,0,0,1,10.56-10.27h0A.11.11,0,0,0,543.53,543.79Z"/><path class="cls-46" d="M535.39,562.8a16.38,16.38,0,0,0-5.11,6.14,36.39,36.39,0,0,0-2.87,7.54c-.2.64-.36,1.29-.5,1.95l-.46,2a33.46,33.46,0,0,0-.5,4c0,1.34-.05,2.68,0,4a35.69,35.69,0,0,0,.52,4,.12.12,0,0,0,.09.09.11.11,0,0,0,.12-.09,36.48,36.48,0,0,0,.71-3.93c.21-1.3.41-2.59.56-3.89s.36-2.57.46-3.87.28-2.6.56-3.86a34.94,34.94,0,0,1,2.19-7.46,16.54,16.54,0,0,1,4.3-6.42h0a.09.09,0,0,0,0-.13A.1.1,0,0,0,535.39,562.8Z"/><path class="cls-46" d="M511.81,577.61c-.56-6.56-1.64-13.06-2.66-19.56s-2.16-13-3.35-19.44-2.52-12.91-3.91-19.33a.1.1,0,0,0-.12-.08.1.1,0,0,0-.08.12c1.12,6.47,2.14,13,3.1,19.46s1.91,13,2.73,19.5,1.43,13,2.25,19.55l2.4,19.54a.1.1,0,0,0,.2,0c.08-1.65.08-3.3.12-5s-.07-3.29-.1-4.94C512.33,584.18,512.05,580.9,511.81,577.61Z"/><path class="cls-46" d="M507.87,577.52c-.35-2.6-.83-5.19-1.33-7.77l-.92-3.83c-.3-1.28-.59-2.56-1-3.82a108.66,108.66,0,0,0-5-14.93l-.79-1.81-.87-1.77c-.56-1.19-1.23-2.32-1.87-3.47a29.28,29.28,0,0,0-4.74-6.28.1.1,0,0,0-.14,0,.11.11,0,0,0,0,.15h0a29,29,0,0,1,4.33,6.42c.57,1.17,1.18,2.32,1.67,3.52l.77,1.79.68,1.82a107.87,107.87,0,0,1,4.38,14.94c.59,2.53,1,5.1,1.48,7.65l.61,3.85c.23,1.28.5,2.55.68,3.83.41,2.57.88,5.13,1.33,7.7s.87,5.15,1.41,7.72a.11.11,0,0,0,.1.09.11.11,0,0,0,.11-.11q0-3.93-.19-7.87C508.45,582.74,508.14,580.13,507.87,577.52Z"/><path class="cls-46" d="M502.43,577.85c-1.21-3.44-2.62-6.81-4.15-10.12a92.54,92.54,0,0,0-5.23-9.59.11.11,0,0,0-.14,0,.1.1,0,0,0,0,.14,89.6,89.6,0,0,1,4.47,9.89c1.33,3.35,2.53,6.76,3.54,10.22s1.76,7,2.68,10.46,1.75,7,2.82,10.49a.09.09,0,0,0,.09.08.1.1,0,0,0,.11-.1,52.61,52.61,0,0,0-1-10.92A68.73,68.73,0,0,0,502.43,577.85Z"/><path class="cls-46" d="M502.21,589.33a23.61,23.61,0,0,0-2.89-6.06,25,25,0,0,0-4.21-5.23,19.92,19.92,0,0,0-2.67-2,11,11,0,0,0-3-1.37.1.1,0,0,0-.12.06.1.1,0,0,0,.05.13h0a15.1,15.1,0,0,1,5,3.91,24.09,24.09,0,0,1,3.51,5.31c1,1.89,1.51,4,2.38,5.91.38,1,.76,2,1.2,3a26.5,26.5,0,0,0,1.32,3h0a.11.11,0,0,0,.09.05.1.1,0,0,0,.11-.1,25,25,0,0,0-.12-3.35C502.71,591.51,502.47,590.42,502.21,589.33Z"/><path class="cls-31" d="M502.61,528.68a18.71,18.71,0,0,1-13.24-14.07c-2.48-11.59,5.52-6.62-1.65-24.83s-5.52-22.35-3-27.59,3.86-3.59,6.07,3.31S501,483.16,504,503.3,502.61,528.68,502.61,528.68Z"/><path class="cls-47" d="M523.86,509.09s-7.18-2.48-7.45-16,5.24-10.76,6.07-27.59,1.93-28.69,5-29,11,8.28,13.8,27-3.59,31.17-9.11,36.69S523.86,509.09,523.86,509.09Z"/><path class="cls-32" d="M498.75,545s-1.65-9.93-5-14.62-10.49-8.83-15.18-17.93-9.93-13.52-9.65-.55,6.07,19.59,13.24,24S498.75,545,498.75,545Z"/><path class="cls-33" d="M495.72,562.06S489.1,549.37,479.44,540s-17.38-14.07-14.62-9.38,6.07,4.41,10.76,12.69,3.31,14.34,9.93,19S495.72,562.06,495.72,562.06Z"/><path class="cls-47" d="M494.89,578.33c-.28-.82-.55-6.89-9.93-11.86s-18.21-3-17.11-.55,6.9,6.62,12.69,9.1S494.89,578.33,494.89,578.33Z"/><path class="cls-32" d="M523.31,545.5s-4.14-5.24-1.94-16.27,7.18-8.28,12.7-14.07,4.41-6.62,9.93-12.69,10.48-9.38,12.69-6.9-1.11,10.21-4.42,14.62-8.55,6.62-11,12.14-1.38,14.35-7.73,18.48S523.31,545.5,523.31,545.5Z"/><path class="cls-33" d="M537.1,548.54S547,537.23,554.2,529s9.94-14.62,10.21-9.1,2.48,9.93-3.31,17.1S537.1,548.54,537.1,548.54Z"/><path class="cls-47" d="M531.86,566.75s-.28-4.42,15.45-14.62,22.34-12.14,20.69-8-8.55,8.27-16,15.72S531.86,566.75,531.86,566.75Z"/><path class="cls-48" d="M503.27,527.5s-3.69-19.79-7.55-33.86S489.37,471,489.37,471"/><path class="cls-48" d="M523.22,509.3s6.71-21.45,8.91-34.42-.27-22.62-1.38-28.42"/><path class="cls-48" d="M497.88,544.54a103.54,103.54,0,0,0-10.16-14.48c-6.07-7.18-10.76-11-13.52-17.94"/><path class="cls-48" d="M523.31,545.5s2.2-13.24,7.44-20.13,15.73-17.66,19.87-24.56"/><path class="cls-48" d="M494.24,578s-9.28-6-15.9-9.35"/><path class="cls-2" d="M547.4,633.64c-.62-16.74-19.22-27.9-19.22-27.9H499.67s-18.6,11.16-19.22,27.9,21.08,78.12,21.08,78.12h24.79S548,650.38,547.4,633.64Z"/><polygon class="cls-2" points="531.85 589.28 495.47 589.28 499.67 605.74 527.65 605.74 531.85 589.28"/><g id="Plant_Left" data-name="Plant Left"><path id="Leaf-4" class="cls-33" d="M75.9,533.61c1.79-2.55,5.11-9,7.63-9.94,1.63-.59,1.15,5.49,1.17,6.65a96.71,96.71,0,0,1-.9,13.38c-1,8-4.14,15.15-8.49,22-2.24,3.51-4.87,7.06-8.51,9.25-1.68,1-3.69,1.18-5.35,2.05-1.92,1-.87.19-1.74,2.2-1.21,2.79-1.6,6.39-2.15,9.36-2.56,13.66-8.77,85.84-7.69,99.73.09,1.23-1.62,1.53-1.71,0-.45-8,3.49-63.15,5.48-81.2s4-34,6-40.23c2.45-7.58,6.87-16.69,10.55-23.75A85.16,85.16,0,0,1,75.9,533.61Z"/><path id="Leaf-5" class="cls-34" d="M89.19,622.13c4.65-3.42,9.7,3,5.48,6.45a4.22,4.22,0,0,1-6.14-.36c-.89,1.09-1.72,2.22-2.52,3.18-2.44,2.92-4.74,5.91-7,9-4.57,6.36-8.5,13.07-12.6,19.66s-8.06,13.05-11.73,19.72c-3.1,5.65-7.24,12.3-8.31,18.49,1.62-13.14,7.74-25.77,15-37.35s15.53-24,26.73-33.1a4,4,0,0,1,.84-5.55A.91.91,0,0,1,89.19,622.13Z"/><path id="Leaf-6" class="cls-33" d="M.81,590.08c2.61.51,6.87,6.41,9,8.65a84.31,84.31,0,0,1,7,8.5,143.16,143.16,0,0,1,12.48,20.35,189.18,189.18,0,0,1,13.88,36.13,148.75,148.75,0,0,1,4.21,23.7c.16,1.5,1.73,13.07-.54,13.38-2,.28-1.41-8.78-1.51-10a160.28,160.28,0,0,0-9.07-40.56c-1-2.85-1.95-6.35-3.56-8.92-1.16-1.85,0-1.21-2.05-1.91-1.76-.6-3.75-.45-5.55-1.19-3.9-1.6-7-4.71-9.76-7.83-5.33-6.07-9.54-12.64-11.74-20.42a96.18,96.18,0,0,1-3-13.1C.55,595.69-.86,589.75.81,590.08Z"/><path id="Leaf-7" class="cls-34" d="M11.1,492a236.21,236.21,0,0,1,23.09,54.67c3.16,11.48,5.36,23.25,7.56,34.94,3.39,18.11,6.6,36.21,7.52,54.63S52,676.14,45.94,694c3-18.12.14-37.4-.37-55.64-.24-8.7-1-17.32-1.88-26-.9-8.4-2.37-16.75-3.74-25.08q-1-6.09-2.08-12.16c-.22-1.2-.31-4.79-1.07-5.61s-4.71-1.17-5.94-1.78a32,32,0,0,1-6.9-4.81,55.34,55.34,0,0,1-10.15-12.69C7.51,539.71,5,526.87,5.12,514.68c0-2.36,3.82-27.84,2.3-28.19.09-.11.18-.22.26-.34Q9.41,489.06,11.1,492Z"/><path id="Leaf-8" class="cls-34" d="M117.05,553.39c.16-.22,1.14-1.73.64-1.64,1-.2-1.39,1.68,1.13.53-1.19,1.13-.5,2.6-.49,4.11a36.78,36.78,0,0,1-.85,7.33,49.17,49.17,0,0,1-19.73,31.11c-3.45,2.38-6.82,3.2-10.75,4.3-2.48.69-2.68,2-4,4.38-2.74,5-5.43,10-7.85,15.2-2.89,6.19-5.69,12.39-8.33,18.69-8.91,21.22-16.16,43.2-20,66-.1-13.4,3-27.21,6.92-40a237.93,237.93,0,0,1,10.52-27.17c.95-2.16,2.41-4.92,2.81-7.3.29-1.67-.58-3.27-1-5A52.4,52.4,0,0,1,66,602.52c1.51-7.57,5.86-11.09,13.23-12.16,2.7-.39,6.13-.25,8.6-1.4,2.69-1.25,3.8-5.36,5.33-8a109.08,109.08,0,0,1,14.61-19.88,48.23,48.23,0,0,1,5-4.59C113.93,555.59,116.29,554.49,117.05,553.39Z"/><path id="Base-3" class="cls-49" d="M32.3,691.31a2.12,2.12,0,0,1,1.8-2.41,1.55,1.55,0,0,1,.31,0H60.57A2.13,2.13,0,0,1,62.69,691a1.56,1.56,0,0,1,0,.31l-2,13.71a8.52,8.52,0,0,1-8.43,7.28H42.75A8.53,8.53,0,0,1,34.32,705Z"/></g><g id="Plant"><g id="Succulents"><path id="Thi_Succs_" data-name="Thi Succs " class="cls-32" d="M699.51,430.26c8.83,21,23.85,35.57,31.8,57.39,4.71,13,6.68,27,6.8,41.43.06,7.83-.07,15.66-.11,23.49,0,7.63-.24,15.22-.89,22.8s-1.38,15.16-1.7,22.83c-.25,6-.37,12.94-2.39,18.39-1.61,4.34-5.71,5-6.8-.29a42.21,42.21,0,0,1-.46-9.19c.09-3.86.31-7.7.43-11.56.46-15.47-.14-30.94.17-46.41.3-15.12,2.25-30.22.1-45.24-1.77-12.4-6.28-23-11.47-33.26-5-9.82-10.42-19.4-13.79-30.57a54.06,54.06,0,0,1-2.07-10C699.28,430,699.41,430.07,699.51,430.26Z"/><path id="Thi_Succs_2" data-name="Thi Succs 2" class="cls-50" d="M697.1,471.67c1.75,1.26,2.73,3.11,3.91,4.93,1.47,2.27,3.2,4.32,4.67,6.59,3.06,4.72,5.75,9.74,8.55,14.66A95.9,95.9,0,0,1,725.55,528c2.07,11.2,2.63,22.76,3.49,34.12.92,12,1.85,24.18,2,36.27.06,5.41.35,11.16-.3,16.54-.4,3.35-1.91,6.2-5.32,6.18-7.24-.06-10.63-8.07-12-14.65-2.09-9.68-2.51-20-2.18-29.86.4-11.94,2.47-23.7,3.37-35.58,1-12.59.41-25-3.92-36.8-2.18-6-4.72-11.84-7-17.79a58.15,58.15,0,0,0-3.07-7.5c-1.46-2.62-3.27-5-4.41-7.83Z"/><path id="Thi_Succs_3" data-name="Thi Succs 3" class="cls-50" d="M780.46,446.57l.67-.52a65.68,65.68,0,0,1-2.68,7.34,60.84,60.84,0,0,0-1.73,7.14c-1.25,5.68-2.7,11.23-3.89,17-2.34,11.34-1.9,23.55-.36,36.13,1.45,11.88,3.75,23.75,4.84,35.62a164.17,164.17,0,0,1,.44,29.41c-.59,6.39-2.52,14-7.78,13.36-2.47-.3-3.76-3.28-4.28-6.64-.83-5.4-1-11.07-1.33-16.44-.73-12-.88-23.93-1-35.78-.14-11.2-.51-22.6.24-33.51a102.41,102.41,0,0,1,6.2-28.76c1.7-4.61,3.32-9.33,5.22-13.72.92-2.11,2-4,3-6.07C778.69,449.39,779.27,447.65,780.46,446.57Z"/><path id="Thi_Succs_4" data-name="Thi Succs 4" class="cls-31" d="M699.34,506.35c.95-1.6,3.06,3.7,3.38,4.36-.13-.33-.27-.66-.41-1A44.06,44.06,0,0,1,707,519.79c1.07,3.58,2,7.24,3,10.85,1.88,6.77,4.31,13.36,6,20.19a65.66,65.66,0,0,1,1.68,20.1,170.9,170.9,0,0,0-.18,21.59c.23,3.41,1.34,6.6,2.1,9.89s1.36,6.63,2.26,9.88c.21-.42.23,1,.23,1.1a6.76,6.76,0,0,1-.38,2.27,6.08,6.08,0,0,1-3.84,4.21c-3.46,1-6.67-2.16-7.78-5.48a90.75,90.75,0,0,1-3.24-15,70.59,70.59,0,0,1-.65-13.86c.41-9.18,2.07-18.23,2.52-27.41.48-10-1.49-19.38-3.15-29.1a85.47,85.47,0,0,0-3.12-13.79,38.06,38.06,0,0,0-2.31-5.08C699.68,509.17,698.7,507.47,699.34,506.35Z"/><path id="Thi_Succs_5" data-name="Thi Succs 5" class="cls-47" d="M727.38,490.75c-.4,11.45-1.08,22.8-2.61,34.13-1.55,11.55-3.34,23.07-4.84,34.64-1.46,11.26-3,22.7-2.79,34.12.15,8.41-1.24,22.63,8.1,26.78s11.49-13.74,12.11-19.67c1.19-11.36.8-22.85.23-34.28-.59-11.73-1.58-23.4-2.81-35.08-1.36-13-2.43-26-3.29-39-.43-6.44-.53-12.87-.41-19.31.1-6.08-.13-12.22-2.29-18l-.34.25"/><path id="Thi_Succs_6" data-name="Thi Succs 6" class="cls-31" d="M776.21,527c-1.7,2.48-3.42,4.93-5,7.56-2.88,4.69-5.48,9.92-6.26,16.63-1.63,14-.32,29.23,0,43.72.06,3-.31,5.83.85,8.64,1.06,2.56,3,4.5,4.92,4.49,4,0,3.43-9.9,3.43-14.25,0-7.62-.85-15.32-.77-22.94A159.67,159.67,0,0,1,775,548.58a128.09,128.09,0,0,1,4.88-20.72c.3-.9,2.42-7.87.41-6.67"/><path id="Thi_Succs_7" data-name="Thi Succs 7" class="cls-32" d="M758.39,452.05c-2.65,0-2.64,13.23-2.72,14.93-.29,6.13-.22,12.26-.4,18.39-.4,13.38-.89,26.88-2.9,40.11-1.08,7.12-2.34,14.21-3.69,21.27s-3.17,14.17-4,21.35c-.86,6.9-.38,13.93-.26,20.86a184.39,184.39,0,0,0,1.24,20.88q.35,2.56.78,5.1a40.13,40.13,0,0,0,.5,4.51c.64,2.15,3.38,2.86,5.22,2.52,5-.91,8.18-7.18,9.89-11.76,2.18-5.85,3.33-12.19,4.47-18.36a160.2,160.2,0,0,0,2.4-21.18c.72-14.44-.2-28.91-1.24-43.31-.57-8-1.24-16-2.26-23.94s-2.31-15.82-3.16-23.77c-.61-5.77-1.22-11.56-1.62-17.36-.09-1.38-.17-10.24-2.2-10.24"/><path id="Thi_Succs_8" data-name="Thi Succs 8" class="cls-31" d="M755.07,548.19c-.43-13.88-6-74.88-7.29-91.67-.31-4.2-3.37-21.7-3.77-26.47-1.07,1.35-1,22.31-1,27.13s-.58,9.45-.88,14.19-7.46,67.28-8.39,71.93c-1.84,9.24-3.08,18.73-4,28.18-.93,9.21-2.37,18.93-1.13,28.19a28.62,28.62,0,0,0,1.47,6.19c.8,2.12,1.34,4.07,2,6.29,1,3.56,2.88,6.7,5.73,8.17,5.85,3,9-3.82,10.59-9.77a159.76,159.76,0,0,0,4.94-29.14c.84-11,2.1-22.1,1.75-33.22"/></g><g id="Planter"><rect id="Vase" class="cls-49" x="693.13" y="589.05" width="91" height="91" rx="2"/><rect id="Leg" class="cls-9" x="683.13" y="599.05" width="10" height="113" rx="2"/><rect id="Leg-2" class="cls-9" x="733.13" y="599.05" width="10" height="113" rx="2"/><rect id="Leg-3" class="cls-9" x="784.13" y="599.05" width="10" height="113" rx="2"/></g></g></g></g></g></svg>