<svg xmlns="http://www.w3.org/2000/svg" viewBox="0 0 670.17 525.67"><defs><style>.cls-1{fill:#fffdb6;}.cls-2{fill:#adc2c2;}.cls-3{fill:#366;}.cls-4{fill:#264d4d;}.cls-5{fill:#5c8585;}.cls-6{fill:#1a3333;}.cls-7{fill:#a6a6e6;}.cls-8{fill:#333285;}.cls-9{fill:#d3d3f3;}.cls-10{fill:#141366;}.cls-11{fill:#f57d37;}</style></defs><g id="Layer_2" data-name="Layer 2"><g id="Typography"><g id="Layer_2-2" data-name="Layer 2"><path class="cls-1" d="M35.56,444.89c-40.39-59-49.32-151.19-11.41-199,27.32-34.48,37.77-48.19,65.6-82.74,45.15-56.05-12.64-85.19,49.91-138.55,71.58-61,103.93,10.94,211.56,10.88,121.8-.07,152.22-49,200.58-27.67,72.73,32.05,10.29,75.45,48.49,186.9,33.92,99,78.44,86,68.45,203.8-4.8,56.65-67.11,87.1-81.28,94.62-62.23,33-94.13-14.08-192.53-13.73-116.1.4-137.18,61.5-232.45,42.73C142.43,518.14,76.87,505.22,35.56,444.89Z"/><path class="cls-2" d="M275.57,431.2h-70a2.86,2.86,0,0,1-2.27-4.59l3.23-4.24c2.42-3.19,6.89-5.15,11.73-5.15h44a15.12,15.12,0,0,1,11.18,4.48l4.26,4.72A2.86,2.86,0,0,1,275.57,431.2Z"/><rect class="cls-2" x="233.36" y="381.75" width="15.12" height="43.78"/><path class="cls-3" d="M280,144.62v116.2H202.56V146.59c0-.67-.05-1.33-.05-2a38.74,38.74,0,0,1,77.47,0v0Z"/><path class="cls-4" d="M287,252.89v79.22h0a.62.62,0,0,1,0,.13,46.34,46.34,0,0,1-92.63,0v-.13h-.13V252.89h-5.45v76.59c0,.89-.07,1.78-.07,2.67a52,52,0,0,0,103.92,0v0h0V252.89Z"/><path class="cls-5" d="M284,258.27v71.58h0v0a43.34,43.34,0,0,1-86.67,0c0-.75,0-1.49.06-2.23V258.27Z"/><path class="cls-4" d="M290.27,235.46h4.62a0,0,0,0,1,0,0v20.89a0,0,0,0,1,0,0h-4.62a10.44,10.44,0,0,1-10.44-10.44v0A10.44,10.44,0,0,1,290.27,235.46Z"/><path class="cls-4" d="M197.94,235.46h4.62a0,0,0,0,1,0,0v20.89a0,0,0,0,1,0,0h-4.62a10.44,10.44,0,0,1-10.44-10.44v0A10.44,10.44,0,0,1,197.94,235.46Z" transform="translate(390.05 491.81) rotate(-180)"/><path class="cls-3" d="M167.65,232.94v24.18a.86.86,0,0,0,0,.16,5.71,5.71,0,0,0,5.71,5.56h15.39V227.22H173.37a5.71,5.71,0,0,0-5.71,5.55A1,1,0,0,0,167.65,232.94Z"/><path class="cls-6" d="M167.66,232.77h21.11v-2.71H168.43A5.66,5.66,0,0,0,167.66,232.77Z"/><rect class="cls-6" x="167.71" y="235.5" width="21.06" height="2.72" transform="translate(356.48 473.72) rotate(180)"/><rect class="cls-6" x="167.71" y="240.95" width="21.06" height="2.72" transform="translate(356.48 484.61) rotate(180)"/><rect class="cls-6" x="167.71" y="246.39" width="21.06" height="2.72" transform="translate(356.48 495.5) rotate(180)"/><rect class="cls-6" x="167.71" y="251.84" width="21.06" height="2.72" transform="translate(356.48 506.39) rotate(180)"/><path class="cls-6" d="M167.66,257.28a5.69,5.69,0,0,0,.77,2.72h20.34v-2.72Z"/><path class="cls-6" d="M247.86,273.28a7.21,7.21,0,1,1-7.21-7.21A7.21,7.21,0,0,1,247.86,273.28Z"/><rect class="cls-6" x="213.21" y="127.3" width="30.81" height="3.81" transform="translate(-24.67 198.54) rotate(-44.78)"/><rect class="cls-6" x="208.6" y="136.08" width="55.31" height="3.81" transform="translate(-28.37 207.47) rotate(-45)"/><rect class="cls-6" x="237.22" y="113.41" width="3.81" height="29.38" transform="translate(-17.53 215.94) rotate(-47.07)"/><rect class="cls-6" x="230.1" y="123.83" width="3.81" height="36.8" transform="translate(-30.68 213.31) rotate(-46.65)"/><rect class="cls-6" x="224.71" y="140.93" width="3.81" height="34.97" transform="translate(-45.02 210.01) rotate(-45.71)"/><path class="cls-7" d="M522.52,264.48H500.76c-5.61-135-201.25-135.13-206.94,0H272.06C278.63,100.63,516,100.75,522.52,264.48Z"/><path class="cls-8" d="M500.79,264.28c-32.36,0-27.16-60.62-70.06-80.75-33.69-17.85-78.88-4.37-97.28,29-8.1,18.79-20.87,51.44-39.6,51.73C299.54,129.14,495.18,129.31,500.79,264.28Z"/><rect class="cls-7" x="500.76" y="264.36" width="21.75" height="71.47"/><path class="cls-9" d="M494.4,414.93l.81.16c7.89,1.62,16.27-.72,23.36-6.53l5.87-4.81L535,354.49l-3.59-7.69c-4.16-8.89-11.26-14.91-19.62-16.62h0Z"/><path class="cls-8" d="M513,327.08l-18.78,91.73a13.7,13.7,0,0,1-16.16,10.66l-23.6-4.83a13.68,13.68,0,0,1-10.66-16.16l18.78-91.72a13.68,13.68,0,0,1,16.16-10.66l23.6,4.83A13.69,13.69,0,0,1,513,327.08Z"/><path class="cls-10" d="M490.78,308.56,466.5,427.1l-12-2.46a13.68,13.68,0,0,1-10.66-16.16l18.78-91.72a13.68,13.68,0,0,1,16.16-10.66Z"/><rect class="cls-7" x="272.05" y="264.3" width="21.75" height="71.47"/><path class="cls-9" d="M300.16,414.86l-.81.17c-7.88,1.62-16.26-.73-23.35-6.53l-5.88-4.81-10.53-49.26,3.6-7.69c4.15-8.9,11.25-14.91,19.62-16.63h0Z"/><path class="cls-8" d="M281.53,327l18.79,91.72a13.69,13.69,0,0,0,16.16,10.67l23.6-4.83a13.7,13.7,0,0,0,10.66-16.16L332,316.69A13.68,13.68,0,0,0,315.8,306l-23.6,4.84A13.69,13.69,0,0,0,281.53,327Z"/><path class="cls-10" d="M303.79,308.49,328.06,427l12-2.46a13.7,13.7,0,0,0,10.66-16.16L332,316.69A13.68,13.68,0,0,0,315.8,306Z"/><polygon class="cls-11" points="386.76 247.72 444.55 285.69 386.74 323.68 386.76 247.72"/><rect class="cls-11" x="369.84" y="247.72" width="11.74" height="75.96"/></g></g></g></svg>