<svg xmlns="http://www.w3.org/2000/svg" viewBox="0 0 773.88 592.48"><defs><style>.cls-1{fill:#fffdb6;}.cls-2{fill:#aa6800;}.cls-3{fill:#3a9e1d;}.cls-4{fill:#69a359;}.cls-5{fill:#82a577;}.cls-6{fill:#1a3333;}.cls-7{fill:#fff;}.cls-8{fill:#52a03b;}.cls-9{fill:#e9a233;}.cls-10{fill:#0a0a33;}.cls-11{fill:#fbfbfe;}.cls-12{fill:#89876d;}.cls-13{fill:#85a3a3;}.cls-14{fill:#5c8585;}.cls-15{fill:#264d4d;}.cls-16{fill:#f79d69;}.cls-17{fill:#f57d37;}.cls-18{fill:#bcbcec;}.cls-19{fill:#e9e9f9;}.cls-20{fill:#bfbe7b;}.cls-21{fill:#f25c05;}.cls-22{fill:#366;}.cls-23,.cls-30{fill:none;stroke-miterlimit:10;}.cls-23{stroke:#000;}.cls-24{fill:#5252a3;}.cls-25{fill:#a6a6e6;}.cls-26{fill:#807f52;}.cls-27{fill:#7170c2;}.cls-28{fill:#f4d199;}.cls-29{fill:#d3d3f3;}.cls-30{stroke:#c8d5f3;stroke-width:10px;}</style></defs><g id="Layer_2" data-name="Layer 2"><g id="Illustration"><g id="Back"><path class="cls-1" d="M31.1,303c25.61-43.14,55.32-51.56,64.59-96.89,12.36-60.45-31.88-87.43-20.55-126.24C97,5,292.24,1.68,355.52.62c112-1.88,306.07-5.13,343.5,85.14,24.41,58.87-42.43,98.08-20.55,187.9,21.21,87.1,95.7,97.94,95.41,160-.3,65-82.27,132.22-162.94,152.67-119.84,30.38-161.58-61.61-328.82-61.65-137,0-187.9,61.64-237.81,22C-9.85,503.7-14.49,379.78,31.1,303Z"/></g><g id="Laptop"><g id="Plants"><path class="cls-2" d="M664.57,444a26.18,26.18,0,0,1-7.4,14.18,1.66,1.66,0,0,1-1.06.48c-1.46.05-2.94,0-4.4,0-5.64,0-11.29.08-17,0-.77,0-1.62-.87-2.25-1.59a28.39,28.39,0,0,1-6.76-15.93,43.54,43.54,0,0,1-.07-4.85c0-2.18.13-4.38,0-6.53-.13-1.51.28-1.64,1.25-1.64,5.79,0,11.58,0,17.37,0,.75,0,1.51,0,2.27,0l11.22.08H665c.07.09.16.16.16.24C665.17,433.56,665.61,438.81,664.57,444Z"/><path class="cls-3" d="M627,361.88c1.19-2.1,2.4-4.19,3.57-6.3a1.22,1.22,0,0,1,1.36-.72c8.09.56,13.48,5,17.24,11.87-.13.48-.26,1-.4,1.43a23.67,23.67,0,0,0-.79,11.75,4,4,0,0,0-.68.88,37.22,37.22,0,0,0-1.78,5.14c-.6,2.85-.92,5.75-1.35,8.62l-4.28-.49h0l-.22-.19a21,21,0,0,0-10.94-8.82,26,26,0,0,1-3.48-8.81,2.35,2.35,0,0,0,0-.53,18.59,18.59,0,0,1,.38-9.48Z"/><path class="cls-4" d="M649.79,411.48c-.3-1.14-.65-2.26-.88-3.41-1-5.07.67-9.44,3.62-13.46,4.76-6.5,11.26-9.1,19.15-8.57,1.28.08,2.55.26,3.88.4a26,26,0,0,1-1.52,8c-2.66,7.57-7.42,13.31-14.79,16.7a15.8,15.8,0,0,1-7.52,1.43C650.75,412.81,650.31,412.07,649.79,411.48Z"/><path class="cls-5" d="M648,379.91a23.67,23.67,0,0,1,.79-11.75c.14-.47.27-1,.4-1.43a9.62,9.62,0,0,0,.61-1.08c2.74-6.17,6.73-11.22,12.8-14.39a13.76,13.76,0,0,1,7.18-1.7c-.33,2.17-.57,4.25-1,6.29a31.83,31.83,0,0,1-3.61,9.15c-2.06,3.64-4.15,7.27-6.38,10.8a11.22,11.22,0,0,1-6.29,4.94l-2.92.43C648.87,380.94,647.87,381.1,648,379.91Z"/><path class="cls-5" d="M628.73,385.06a21,21,0,0,1,10.94,8.82l.22.19h0a3.6,3.6,0,0,0,.08.56c.66,1.95,1.48,3.86,1.95,5.86a38.81,38.81,0,0,1,.53,5.2l-.3,1.49-1.22.26a5.3,5.3,0,0,0-1.07-.62,32.3,32.3,0,0,1-18.46-13,40.93,40.93,0,0,0-2.55-3.45c-1.52-1.78-3.14-3.47-4.78-5.27,1.4-.22,3-.5,4.58-.7A28.63,28.63,0,0,1,628.73,385.06Z"/><path class="cls-6" d="M640.91,407.43l1.22-.26c.09-.42.19-1,.3-1.49l1.77,3.42c0-.6.06-.88.06-1.15,0-4.12,0-8.23,0-12.34a9.52,9.52,0,0,0-.11-1.06c.43-2.87.75-5.77,1.35-8.62a37.22,37.22,0,0,1,1.78-5.14,4,4,0,0,1,.68-.88c-.09,1.19.91,1,1.58,1.26l-.48,1.19a33.89,33.89,0,0,0-2.51,11.31v24.78l.14.07c1-2.34,2.07-4.69,3.1-7,.52.59,1,1.33,1.94,1.08-1.65,3.82-3.41,7.59-4.91,11.47-.46,1.19-.22,2.65-.31,4h-2.26c0-1.53,0-3.07,0-4.6a1.85,1.85,0,0,0-.67-1.17c-.67-.57-1.44-1-2.17-1.53,1.1-.3,1-1.13.84-2l2,1.19c0-3,.46-5.8-1.3-8.39A29.61,29.61,0,0,1,640.91,407.43Z"/><path class="cls-4" d="M627,361.88l-1.35,4.36a18.59,18.59,0,0,0-.38,9.48,2.35,2.35,0,0,1,0,.53,22,22,0,0,1-7.66-9.85c-1.47-3.63-2.66-7.36-4-11.07a5.5,5.5,0,0,1,4.37-.22A17.73,17.73,0,0,1,627,361.88Z"/><path class="cls-3" d="M642.23,418.74c.14.84.26,1.67-.84,2-4.52,1.89-8.47.51-12.14-2.17-3.48-2.54-3.45-2.58-7.62-3.08a4.87,4.87,0,0,1,2.59-3.45,12.39,12.39,0,0,1,9.56-.88A11.37,11.37,0,0,1,642.23,418.74Z"/><path class="cls-7" d="M647.13,392.53a33.22,33.22,0,0,1,2.39-10l.38-.93,2-.3A16.59,16.59,0,0,1,647.13,392.53Z"/><path d="M651.38,381.91a16.22,16.22,0,0,1-3.6,9.18,32.75,32.75,0,0,1,2.2-8.34c.1-.22.19-.45.28-.67l1.12-.17m1.08-1.17-2.92.43-.48,1.19a33.89,33.89,0,0,0-2.51,11.31c.19-.15.4-.29.59-.46,3.63-3.36,5.1-7.65,5.32-12.47Z"/><path class="cls-7" d="M639.89,394.07l-.22-.19Z"/><path d="M639.67,393.88l.22.19-.22-.19Z"/><g id="Maceta"><path id="Fill_27" data-name="Fill 27" class="cls-8" d="M96.23,422.87a32.43,32.43,0,0,0-1.52,3,42,42,0,0,1,.42-6.34c.54-3.66,1.37-7.3,2.14-10.94.56-2.61.52-7.3,2.64-9.38.58-.45.72.43.72.81,0,.08,0-1.56-.57-1.27-3.34,1.72-4.43,7.16-5.5,9.88a52.34,52.34,0,0,0-3.44,12.15,29.75,29.75,0,0,0-.23,3.13c-.11-.28-.22-.56-.34-.84a56.15,56.15,0,0,0-7.78-13c-.8-1-10.86-10.89-11.65-9.38a1.06,1.06,0,0,0,.49.55s0,0,0,0c.59,1,2.27,2.43,2.79,3.27A63.86,63.86,0,0,1,77.79,411C80,415.62,82,420.3,84,425c.46,1.09.94,2.18,1.43,3.26-5-7.28-11.77-13.88-21-17.66,3.16,1.61,5.24,4.64,7.37,7,2.58,2.79,5.29,5.51,7.87,8.31,3,3.3,6.63,6.76,9.56,10.41,2.83,5.95,5.59,11.91,7.29,18.17-.7-2.16-.06-5.15-.17-7.41q-.16-2.72-.6-5.4a11.6,11.6,0,0,1,.8,2.37c-.12-1.26-.27-2.51-.43-3.76.41-1.17.8-2.25,1.07-3.15a80.91,80.91,0,0,1,5.25-13.51,120.74,120.74,0,0,1,7-12c1.21-1.82,2.43-3.63,3.64-5.44.79-1.19,1.55-3.09,2.66-4.23-7.15,6.54-15,13.12-19.49,21"/><path id="Base-4" class="cls-9" d="M108.27,432c0,14.62-1.16,26.47-16.64,26.47S75,446.61,75,432Z"/></g></g><path class="cls-10" d="M167.47,147.93H584.24a13.62,13.62,0,0,1,13.62,13.62V436.31a0,0,0,0,1,0,0h-444a0,0,0,0,1,0,0V161.54A13.62,13.62,0,0,1,167.47,147.93Z"/><rect class="cls-11" x="168.23" y="161.39" width="415.26" height="261.46"/><rect x="109.14" y="436.31" width="533.45" height="22.36" rx="10.12"/><path class="cls-12" d="M334.33,436.31h83.05a0,0,0,0,1,0,0v.07A11.43,11.43,0,0,1,406,447.81H345.76a11.43,11.43,0,0,1-11.43-11.43v-.07A0,0,0,0,1,334.33,436.31Z"/><g id="Shelf"><rect class="cls-2" x="200.17" y="231.45" width="351.37" height="5.59" rx="2"/><rect class="cls-13" x="532.1" y="173.49" width="10.23" height="6.08"/><rect class="cls-14" x="532.1" y="179.56" width="10.23" height="1.78"/><path class="cls-13" d="M532.1,181.34V221h10.23V181.34Zm6.69,33.88h-3.15v-22h3.15Zm-1.57-24.53a1.94,1.94,0,1,1,1.94-1.94A1.94,1.94,0,0,1,537.22,190.69Z"/><path class="cls-13" d="M535.27,188.75a1.95,1.95,0,1,1,2,1.94A1.94,1.94,0,0,1,535.27,188.75Z"/><rect class="cls-13" x="535.64" y="193.22" width="3.16" height="22"/><rect class="cls-13" x="532.1" y="222.86" width="10.23" height="2.61"/><rect class="cls-14" x="532.1" y="220.95" width="10.23" height="1.9"/><rect class="cls-14" x="532.1" y="225.47" width="10.23" height="2.01"/><rect class="cls-13" x="532.1" y="227.48" width="10.23" height="3.97"/><path class="cls-15" d="M539.16,188.75a1.95,1.95,0,1,1-1.94-1.94A1.94,1.94,0,0,1,539.16,188.75Z"/><rect class="cls-15" x="535.64" y="193.22" width="3.16" height="22"/><rect class="cls-14" x="486.95" y="179.61" width="18.95" height="2.64"/><rect class="cls-13" x="486.95" y="174.53" width="18.95" height="5.08"/><rect class="cls-14" x="486.95" y="221.14" width="18.95" height="2.01"/><rect class="cls-13" x="486.95" y="182.25" width="18.95" height="38.89"/><rect class="cls-14" x="486.95" y="224.82" width="18.95" height="2.1"/><rect class="cls-13" x="486.95" y="223.14" width="18.95" height="1.67"/><rect class="cls-13" x="486.95" y="226.92" width="18.95" height="4.53"/><circle class="cls-15" cx="496.42" cy="188.53" r="2.46"/><rect class="cls-15" x="493.54" y="194.16" width="5.77" height="22.02"/><rect class="cls-16" x="530" y="321.59" width="12.3" height="69.68"/><rect class="cls-17" x="534.42" y="326.96" width="3.46" height="58.93"/><rect class="cls-18" x="521.11" y="346.76" width="8.89" height="1.55"/><rect class="cls-19" x="521.11" y="340.93" width="8.89" height="5.83"/><rect class="cls-18" x="521.11" y="385.52" width="8.89" height="1.74"/><rect class="cls-19" x="521.11" y="348.31" width="8.89" height="37.21"/><rect class="cls-19" x="521.11" y="387.26" width="8.89" height="4.01"/><rect class="cls-18" x="524.33" y="351.08" width="2.46" height="31.98"/><rect class="cls-1" x="505.16" y="345.88" width="15.95" height="45.38"/><circle class="cls-20" cx="513.13" cy="357.65" r="3.89"/><rect class="cls-21" x="505.9" y="183.5" width="15.97" height="5.56"/><rect class="cls-21" x="505.9" y="224.49" width="15.97" height="3.14"/><rect class="cls-16" x="505.9" y="189.06" width="15.97" height="35.44"/><rect class="cls-16" x="505.9" y="227.63" width="15.97" height="3.82"/><rect class="cls-21" x="509.74" y="194.46" width="8.29" height="8.29"/><rect class="cls-13" x="488.53" y="336.77" width="5.96" height="11.15" transform="translate(-70.55 549.42) rotate(-55.08)"/><rect class="cls-22" x="486.82" y="340.77" width="3.79" height="11.15" transform="translate(-75.03 548.81) rotate(-55.08)"/><polygon class="cls-22" points="469.43 383.74 467.26 386.85 467.25 386.85 458.11 380.47 460.28 377.36 469.43 383.74"/><rect class="cls-13" x="459.06" y="379.97" width="4.61" height="11.15" transform="translate(-118.87 543.15) rotate(-55.08)"/><rect class="cls-13" x="456.34" y="358.65" width="39.8" height="11.15" transform="translate(-95 546.28) rotate(-55.09)"/><line class="cls-23" x1="469.43" y1="383.74" x2="469.42" y2="383.74"/><rect class="cls-15" x="472.93" y="349.09" width="5.79" height="31.46" transform="translate(294.44 -206.67) rotate(34.91)"/><rect class="cls-24" x="497.79" y="339.27" width="7.37" height="3.79"/><rect class="cls-25" x="497.79" y="333.31" width="7.37" height="5.96"/><rect class="cls-24" x="497.79" y="382.86" width="7.37" height="3.79"/><rect class="cls-25" x="497.79" y="343.06" width="7.37" height="39.8"/><rect class="cls-25" x="497.79" y="386.66" width="7.37" height="4.61"/><rect class="cls-2" x="200.17" y="391.12" width="351.37" height="5.59" rx="2"/><rect class="cls-2" x="200.17" y="311.29" width="351.37" height="5.59" rx="2"/><rect class="cls-1" x="521.87" y="173.49" width="10.23" height="6.08"/><rect class="cls-20" x="521.87" y="179.56" width="10.23" height="1.78"/><rect class="cls-20" x="521.87" y="220.95" width="10.23" height="1.9"/><rect class="cls-1" x="521.87" y="181.34" width="10.23" height="39.61"/><rect class="cls-20" x="521.87" y="225.47" width="10.23" height="2.01"/><rect class="cls-1" x="521.87" y="222.86" width="10.23" height="2.61"/><rect class="cls-1" x="521.87" y="227.48" width="10.23" height="3.97"/><circle class="cls-26" cx="526.99" cy="188.75" r="1.94"/><rect class="cls-26" x="525.41" y="193.22" width="3.16" height="22"/><rect class="cls-14" x="208.52" y="343.17" width="15.97" height="5.55"/><rect class="cls-14" x="208.52" y="384.17" width="15.97" height="3.14"/><rect class="cls-13" x="208.52" y="348.72" width="15.97" height="35.44"/><rect class="cls-13" x="208.52" y="387.3" width="15.97" height="3.82"/><rect class="cls-15" x="212.36" y="354.13" width="8.29" height="8.29"/><rect class="cls-27" x="211.41" y="215.37" width="1.77" height="15.94"/><rect class="cls-25" x="207.6" y="215.37" width="3.81" height="15.94"/><rect class="cls-27" x="214.58" y="215.37" width="1.69" height="15.94"/><rect class="cls-25" x="213.18" y="215.37" width="1.41" height="15.94"/><rect class="cls-27" x="248.96" y="215.37" width="2.22" height="15.94"/><rect class="cls-25" x="216.27" y="215.37" width="32.69" height="15.94"/><rect class="cls-25" x="251.18" y="215.37" width="4.27" height="15.94"/><circle class="cls-24" cx="243.68" cy="223.34" r="2.07"/><rect class="cls-24" x="227.26" y="214.09" width="4.85" height="18.51" transform="translate(6.34 453.03) rotate(-90)"/><rect class="cls-16" x="211.43" y="202.44" width="2.64" height="13.43"/><rect class="cls-28" x="208.22" y="202.44" width="3.21" height="13.43"/><rect class="cls-16" x="243.86" y="202.44" width="4.67" height="13.43"/><rect class="cls-28" x="214.07" y="202.44" width="29.79" height="13.43"/><rect class="cls-16" x="232.34" y="205.67" width="6.97" height="6.97" transform="translate(26.67 444.99) rotate(-90)"/><rect class="cls-1" x="521.87" y="173.49" width="10.23" height="6.08"/><rect class="cls-20" x="521.87" y="179.56" width="10.23" height="1.78"/><rect class="cls-20" x="521.87" y="220.95" width="10.23" height="1.9"/><rect class="cls-1" x="521.87" y="181.34" width="10.23" height="39.61"/><rect class="cls-20" x="521.87" y="225.47" width="10.23" height="2.01"/><rect class="cls-1" x="521.87" y="222.86" width="10.23" height="2.61"/><rect class="cls-1" x="521.87" y="227.48" width="10.23" height="3.97"/><circle class="cls-26" cx="526.99" cy="188.75" r="1.94"/><rect class="cls-26" x="525.41" y="193.22" width="3.16" height="22"/><rect class="cls-1" x="207.61" y="265.77" width="15.95" height="45.38"/><circle class="cls-20" cx="215.58" cy="277.54" r="3.89"/><rect class="cls-21" x="223.37" y="250.25" width="12.13" height="7.09"/><rect class="cls-21" x="223.37" y="302.57" width="12.13" height="4"/><rect class="cls-16" x="223.37" y="257.34" width="12.13" height="45.23"/><rect class="cls-16" x="223.37" y="306.57" width="12.13" height="4.88"/><rect class="cls-21" x="226.29" y="264.23" width="6.3" height="10.58"/><rect class="cls-18" x="235.62" y="266.25" width="15.04" height="1.56"/><rect class="cls-19" x="235.62" y="260.35" width="15.04" height="5.9"/><rect class="cls-18" x="235.62" y="305.48" width="15.04" height="1.76"/><rect class="cls-19" x="235.62" y="267.82" width="15.04" height="37.66"/><rect class="cls-19" x="235.62" y="307.24" width="15.04" height="4.05"/><rect class="cls-18" x="241.06" y="270.62" width="4.16" height="32.36"/><rect class="cls-13" x="239.3" y="333.18" width="10.23" height="6.08"/><rect class="cls-14" x="239.3" y="339.25" width="10.23" height="1.78"/><path class="cls-13" d="M239.3,341v39.61h10.23V341Zm6.7,33.88h-3.16v-22H246Zm-1.58-24.53a1.94,1.94,0,1,1,1.94-1.94A1.94,1.94,0,0,1,244.42,350.38Z"/><path class="cls-13" d="M242.48,348.44a1.94,1.94,0,1,1,1.94,1.94A1.94,1.94,0,0,1,242.48,348.44Z"/><rect class="cls-13" x="242.84" y="352.91" width="3.16" height="22"/><rect class="cls-13" x="239.3" y="382.55" width="10.23" height="2.61"/><rect class="cls-14" x="239.3" y="380.64" width="10.23" height="1.9"/><rect class="cls-14" x="239.3" y="385.16" width="10.23" height="2.01"/><rect class="cls-13" x="239.3" y="387.17" width="10.23" height="3.97"/><path class="cls-15" d="M246.36,348.44a1.94,1.94,0,1,1-1.94-1.94A1.94,1.94,0,0,1,246.36,348.44Z"/><rect class="cls-15" x="242.84" y="352.91" width="3.16" height="22"/><rect class="cls-24" x="224.49" y="351.31" width="14.81" height="2.91"/><rect class="cls-25" x="224.49" y="346.74" width="14.81" height="4.57"/><rect class="cls-24" x="224.49" y="384.75" width="14.81" height="2.91"/><rect class="cls-25" x="224.49" y="354.22" width="14.81" height="30.53"/><rect class="cls-25" x="224.49" y="387.66" width="14.81" height="3.54"/><rect class="cls-14" x="495.24" y="259.43" width="18.95" height="2.64"/><rect class="cls-13" x="495.24" y="254.35" width="18.95" height="5.08"/><rect class="cls-14" x="495.24" y="300.97" width="18.95" height="2.01"/><rect class="cls-13" x="495.24" y="262.07" width="18.95" height="38.89"/><rect class="cls-14" x="495.24" y="304.65" width="18.95" height="2.1"/><rect class="cls-13" x="495.24" y="302.97" width="18.95" height="1.67"/><rect class="cls-13" x="495.24" y="306.75" width="18.95" height="4.53"/><circle class="cls-15" cx="504.72" cy="268.35" r="2.46"/><rect class="cls-15" x="501.83" y="273.99" width="5.77" height="22.02"/><rect class="cls-18" x="521.32" y="268.98" width="12.37" height="1.46"/><rect class="cls-19" x="521.32" y="263.46" width="12.37" height="5.52"/><rect class="cls-18" x="521.32" y="305.64" width="12.37" height="1.65"/><rect class="cls-19" x="521.32" y="270.44" width="12.37" height="35.2"/><rect class="cls-19" x="521.32" y="307.29" width="12.37" height="3.79"/><rect class="cls-18" x="525.79" y="273.06" width="3.42" height="30.25"/><rect class="cls-24" x="514.09" y="259.1" width="7.37" height="3.79"/><rect class="cls-25" x="514.09" y="253.14" width="7.37" height="5.96"/><rect class="cls-24" x="514.09" y="302.69" width="7.37" height="3.79"/><rect class="cls-25" x="514.09" y="262.89" width="7.37" height="39.8"/><rect class="cls-25" x="514.09" y="306.49" width="7.37" height="4.61"/></g></g><g id="Checklist"><path class="cls-29" d="M501.45,147.69V394.16a9.21,9.21,0,0,1-9.2,9.21h-233a9.22,9.22,0,0,1-9.21-9.21V123.8a9.21,9.21,0,0,1,9.21-9.21H468.35Z"/><path class="cls-13" d="M324.52,312.44v27.43H297.09V312.44h27.43m10-10H287.09v47.43h47.43V302.44Z"/><line class="cls-30" x1="347.88" y1="333.36" x2="424.54" y2="333.36"/><rect class="cls-13" x="347.88" y="313.56" width="114.99" height="6.39" rx="3.04"/><rect class="cls-13" x="347.88" y="330.16" width="76.66" height="6.39" rx="3.04"/><path class="cls-13" d="M324.52,174.93v27.43H297.09V174.93h27.43m10-10H287.09v47.43h47.43V164.93Z"/><line class="cls-30" x1="347.88" y1="195.85" x2="424.54" y2="195.85"/><rect class="cls-13" x="347.88" y="176.05" width="114.99" height="6.39" rx="3.04"/><rect class="cls-13" x="347.88" y="192.66" width="76.66" height="6.39" rx="3.04"/><rect class="cls-21" x="298.45" y="184.41" width="22.36" height="8.31" transform="translate(224.02 -163.72) rotate(45)"/><rect class="cls-21" x="305.13" y="176.52" width="44.66" height="8.31" transform="translate(686.76 76.89) rotate(135)"/><path class="cls-13" d="M324.52,243.68v27.43H297.09V243.68h27.43m10-10H287.09v47.43h47.43V233.68Z"/><line class="cls-30" x1="347.88" y1="264.6" x2="424.54" y2="264.6"/><rect class="cls-13" x="347.88" y="244.81" width="114.99" height="6.39" rx="3.04"/><rect class="cls-13" x="347.88" y="261.41" width="76.66" height="6.39" rx="3.04"/><rect class="cls-21" x="298.45" y="253.16" width="22.36" height="8.31" transform="translate(272.64 -143.58) rotate(45)"/><rect class="cls-21" x="305.13" y="245.28" width="44.66" height="8.31" transform="translate(735.38 194.26) rotate(135)"/><path class="cls-25" d="M501.71,147.94V148H474.63a6.35,6.35,0,0,1-6.35-6.35V114.59h.07l33.1,33.1Z"/></g></g></g></svg>