<svg xmlns="http://www.w3.org/2000/svg" viewBox="0 0 700.88 498.28"><defs><style>.cls-1{fill:#fffdb6;}.cls-2{fill:#264d4d;}.cls-3{fill:#85a3a3;}.cls-4{fill:#5c8585;}.cls-5{fill:#366;}.cls-6{fill:#f25c05;}.cls-7{fill:#fabe9b;}.cls-8{fill:#f79d69;}.cls-9{fill:#f57d37;}.cls-10{fill:#333285;}.cls-11{fill:#a6a6e6;}.cls-12{fill:#7170c2;}.cls-13{fill:#5252a3;}.cls-14{fill:#86a67d;}.cls-15{fill:#3a9e1d;}.cls-16{fill:#69a359;}.cls-17{fill:#e9a233;}.cls-18{fill:#aa6800;}.cls-19{fill:#52a03b;}</style></defs><g id="Layer_2" data-name="Layer 2"><g id="Illustration"><g id="back"><path class="cls-1" d="M114.1,451.45C69.27,453.06,20,427.88,3.64,378.35-9.87,337.55,18,295.82,26.23,283.51c20.51-30.72,42.89-39.33,67.87-58.2C158,177.05,166.26,116.61,189,84.9,255.84-8.54,500.76-48.4,623.11,89.82c82.27,92.94,112.31,260.82,25.2,349.86-55.94,57.17-146.1,58.6-157.7,58.6-58,0-125.48-23-195.27-46.83-22.14-7.55-71.84-13.88-113.5-11.95C146.61,441.13,142.62,450.43,114.1,451.45Z"/></g><g id="Gifts"><g id="Gift3"><path class="cls-2" d="M333.71,166.34c-4.25,0-7.4-1.23-9.51-3.73-5.07-6-1.34-16.48,2.67-24.24,4.4-8.52,8.79-15.27,13-20.06,8.75-9.86,15.64-9.56,19.88-7.57h0c13.4,6.3,19.9,14.09,19.33,23.18-.86,13.55-18,25.14-33.63,30.17A39.71,39.71,0,0,1,333.71,166.34Zm21.13-49.43c-5.43,0-13.43,9.14-21.52,24.79-4.54,8.77-5.07,14.47-3.58,16.22.56.67,3.22,2.59,13.52-.74,13.6-4.39,28-14.46,28.61-23.72.46-7.24-8-12.78-15.17-16.14A4.21,4.21,0,0,0,354.84,116.91Z"/><path class="cls-2" d="M314.86,169.46a39.88,39.88,0,0,1-11.8-2.18c-15.62-4.94-32.85-16.43-33.79-30-.63-9.09,5.83-16.92,19.19-23.29h0c4.23-2,11.12-2.36,19.92,7.45,4.28,4.77,8.71,11.49,13.16,20,4.06,7.74,7.84,18.23,2.81,24.23C322.25,168.19,319.11,169.45,314.86,169.46Zm-23.28-48.89c-7.15,3.41-15.57,9-15.07,16.24.64,9.25,15.12,19.24,28.74,23.55,10.33,3.27,13,1.33,13.53.66,1.48-1.76.92-7.45-3.67-16.2-9.18-17.5-18.19-26.79-23.53-24.25Z"/><polygon class="cls-3" points="394.57 273.32 255.88 273.85 255.61 152.19 394.3 151.66 394.57 273.32"/><polygon class="cls-4" points="398.49 174.69 251.52 175.25 251.47 152.21 398.44 151.65 398.49 174.69"/><polygon class="cls-5" points="329.01 273.58 320.26 273.61 320.07 151.94 328.82 151.91 329.01 273.58"/><polygon class="cls-5" points="255.47 216.87 255.45 209.2 394.77 208.64 394.79 216.31 255.47 216.87"/></g><g id="Gift2"><path class="cls-6" d="M453.31,218.09c-4.18,0-7.27-1.2-9.35-3.66-5-5.88-1.33-16.22,2.62-23.85,4.33-8.38,8.65-15,12.83-19.73,8.61-9.7,15.39-9.4,19.56-7.44h0c13.18,6.19,19.57,13.86,19,22.79-.85,13.33-17.74,24.73-33.08,29.68A38.88,38.88,0,0,1,453.31,218.09Zm20.79-48.62c-5.34,0-13.21,9-21.17,24.39-4.46,8.63-5,14.23-3.53,15.95.56.66,3.17,2.55,13.31-.72,13.38-4.32,27.56-14.23,28.14-23.34.45-7.12-7.86-12.57-14.92-15.88A4.22,4.22,0,0,0,474.1,169.47Z"/><path class="cls-6" d="M434.77,218a38.93,38.93,0,0,1-11.6-2.14c-15.37-4.86-32.33-16.16-33.25-29.49-.62-8.93,5.73-16.64,18.88-22.91h0c4.16-2,10.94-2.32,19.6,7.33,4.21,4.69,8.56,11.31,12.94,19.66,4,7.61,7.71,17.93,2.77,23.84C442,216.78,439,218,434.77,218Zm-22.9-48.09c-7,3.36-15.32,8.85-14.82,16,.63,9.1,14.87,18.93,28.27,23.17,10.16,3.22,12.76,1.31,13.31.65,1.45-1.73.9-7.33-3.61-15.93-9-17.22-17.9-26.36-23.15-23.86Z"/><rect class="cls-7" x="339.56" y="196.39" width="211.59" height="188.08" transform="translate(-0.84 1.29) rotate(-0.17)"/><rect class="cls-8" x="333.05" y="196.39" width="224.21" height="56.05" transform="translate(-0.65 1.29) rotate(-0.17)"/><rect class="cls-9" x="432.08" y="181.1" width="19.5" height="218.67" transform="translate(730.98 -152.23) rotate(89.83)"/><rect class="cls-9" x="433.67" y="196.39" width="21.13" height="188.08" transform="translate(-0.84 1.29) rotate(-0.17)"/></g><g id="Gift1"><path class="cls-10" d="M269.89,283.54c-4,0-7-1.16-9-3.52-4.78-5.64-1.27-15.57,2.52-22.91,4.17-8,8.31-14.42,12.33-19,8.26-9.31,14.77-9,18.78-7.15h0c12.66,6,18.8,13.32,18.26,21.9-.81,12.81-17,23.75-31.77,28.51A37.78,37.78,0,0,1,269.89,283.54Zm20-46.7c-5.13,0-12.69,8.64-20.33,23.42-4.29,8.29-4.79,13.67-3.39,15.33.54.63,3.05,2.45,12.78-.7,12.85-4.15,26.48-13.66,27-22.41.44-6.85-7.55-12.07-14.33-15.26A4.15,4.15,0,0,0,289.85,236.84Z"/><path class="cls-10" d="M252.08,286.49a37.57,37.57,0,0,1-11.15-2.05c-14.76-4.67-29.27-15.6-30.15-28.4-.6-8.58,3.73-15.91,16.35-21.93h0c4-1.9,10.51-2.23,18.83,7,4,4.5,8.22,10.86,12.43,18.88,3.83,7.31,7.41,17.22,2.66,22.89C259.06,285.29,256.1,286.48,252.08,286.49Zm-22-46.19c-6.75,3.22-14.71,8.5-14.24,15.34.61,8.74,14.29,18.18,27.16,22.26,9.76,3.08,12.25,1.25,12.79.62,1.39-1.67.86-7-3.48-15.31-8.67-16.53-17.19-25.31-22.23-22.91Z"/><rect class="cls-11" x="175.41" y="269.93" width="172.72" height="114.95" transform="translate(-0.95 0.76) rotate(-0.17)"/><rect class="cls-12" x="170.13" y="269.93" width="183.02" height="21.77" transform="translate(-0.81 0.76) rotate(-0.17)"/><rect class="cls-13" x="250.96" y="269.82" width="20.26" height="115.06" transform="translate(-0.95 0.76) rotate(-0.17)"/><rect class="cls-13" x="254.63" y="240.28" width="14.36" height="173.5" transform="matrix(0, 1, -1, 0, 588.08, 64.27)"/></g></g><g id="Plants"><g id="Big_Leaf_Plant" data-name="Big Leaf Plant"><g id="Big_Ass_Leaf" data-name="Big Ass Leaf"><path id="leaf" class="cls-14" d="M154.18,264.13a8.57,8.57,0,0,1,4.37.46c2.88,1.22,3.7,4.63,3.66,7.39,0,3-.67,6.24,1.59,8.64,1,1.1,2.34,1.94,3.36,3.07a14.32,14.32,0,0,1,2.58,4.05,11.83,11.83,0,0,1,.67,8.74c-.93,2.5-3.29,4.76-2.78,7.6s3.52,5.24,5.39,7.46c2.12,2.5,4.07,5.7,4.39,9a11.82,11.82,0,0,1-3.16,8.7c-4.2,4.75-10.51,7.08-16.87,7.07-2.7,0-5.76-.13-8.09-1.58a4.49,4.49,0,0,1-1.53-1.65,5.22,5.22,0,0,0-1.48-1.48,8.85,8.85,0,0,1-2.82-3.77c-2.3-5.71-.46-12.78,2.77-17.85.77-1.2,1.4-2.36,1-3.79a14.8,14.8,0,0,0-2.18-4.14,33,33,0,0,1-2.44-3.86,8.77,8.77,0,0,1-.76-4.52,15.48,15.48,0,0,1,3.32-8.07c1.74-2.29,3.78-4.48,3.79-7.49,0-3.18-2.13-6-1.22-9.25a6.14,6.14,0,0,1,2.35-3.52A9.56,9.56,0,0,1,154.18,264.13Z"/><path id="middle_thing" data-name="middle thing" class="cls-15" d="M153.23,269.22a.73.73,0,0,1,.85-.59l.08,0c.53.14.52.64.5,1.07a14.66,14.66,0,0,0,.48,4,69.32,69.32,0,0,0,2.9,7.82,14.2,14.2,0,0,1,.86,8c-.54,2.6-1.39,5.13-2,7.73-.49,2.29-1,4.71-.27,7s2.31,4,3.46,6a28.16,28.16,0,0,1,3.55,13.39,24.63,24.63,0,0,1-.5,6.52c-.29,1.23-.68,2.9-1.74,3.75a1.21,1.21,0,0,1-1.73-.05c-.38-.54,0-1.39.08-2a29.65,29.65,0,0,0,.51-7.64,27.39,27.39,0,0,0-1.2-7.3,24.49,24.49,0,0,0-3.11-6.09,19.64,19.64,0,0,1-3.23-6.22,14.73,14.73,0,0,1,.5-7.06c.64-2.44,1.47-4.81,2.33-7.18a12.59,12.59,0,0,0,.67-6.92C155.36,278.69,152.91,274.2,153.23,269.22Z"/></g><g id="Big_Ass_Leaf-2" data-name="Big Ass Leaf-2"><path id="leaf-2" class="cls-16" d="M192.66,269.94a10.81,10.81,0,0,1,4.88,2.81c2.73,2.95,1.9,7.4.39,10.65-1.63,3.5-4.09,7-2.7,11,.64,1.84,1.71,3.52,2.32,5.38a19,19,0,0,1,.89,6.13c-.07,3.81-1.08,7.88-3.84,10.68-2.42,2.48-6.38,3.92-7.29,7.55-.94,3.79,1.37,8,2.39,11.62,1.16,4.06,1.76,8.86.4,12.9a15.4,15.4,0,0,1-8.31,8.65c-7.43,3.44-16.06,2.91-23.52-.42-3.16-1.41-6.69-3.15-8.65-6.08a5.6,5.6,0,0,1-.92-2.74,6.9,6.9,0,0,0-1-2.52,11.28,11.28,0,0,1-1.31-5.92c.31-8,6.21-15.36,12.69-19.68,1.53-1,2.88-2.06,3.2-3.95a19.17,19.17,0,0,0-.38-6,40.9,40.9,0,0,1-.82-5.83,11.34,11.34,0,0,1,1.5-5.74,20.13,20.13,0,0,1,8.15-7.82c3.26-1.8,6.82-3.33,8.41-6.88,1.69-3.77.69-8.22,3.46-11.58a8.08,8.08,0,0,1,4.61-2.94A12.21,12.21,0,0,1,192.66,269.94Z"/><path id="middle_thing-2" data-name="middle thing-2" class="cls-15" d="M189,276.16a.92.92,0,0,1,1.29-.26l.1.07c.54.45.27,1,0,1.53a18.59,18.59,0,0,0-1.51,4.94c-.64,3.56-.5,7.17-.71,10.78a18.56,18.56,0,0,1-3.2,10c-2,2.79-4.32,5.34-6.33,8.13-1.78,2.46-3.65,5.05-4,8.14s.61,5.94.91,8.9a37.06,37.06,0,0,1-2.85,17.71,32.39,32.39,0,0,1-4,7.47c-1,1.31-2.31,3.08-4,3.53a1.54,1.54,0,0,1-2-1c-.16-.85.67-1.67,1.12-2.29a39.31,39.31,0,0,0,4.6-8.78,36.7,36.7,0,0,0,2.43-9.28,32.29,32.29,0,0,0-.46-8.83c-.52-3-1.09-6-.51-9.07s2.36-5.67,4.27-8.09,4.24-4.93,6.48-7.29a16.44,16.44,0,0,0,4.42-7.84C186.5,288.49,186,281.89,189,276.16Z"/></g><g id="Big_Ass_Leaf-3" data-name="Big Ass Leaf-3"><path id="leaf-3" class="cls-16" d="M136.91,292.53a9.67,9.67,0,0,1,7.45,3.85c2.13,2.64,2.56,5.86,3.42,9a8.06,8.06,0,0,0,2.46,4.19c1.18,1,2.68,1.16,4.09,1.63a9.53,9.53,0,0,1,6,6c1.09,3.39-.07,6.8.13,10.24.19,3.15,3.3,5.12,5.8,6.63s4.68,2.88,5.43,5.79a16.61,16.61,0,0,1,0,9.55c-1.82,5.07-7.13,7.3-12.27,7.65-4.66.31-10.52-.18-14-3.56a10,10,0,0,1-2.75-7.68,22.79,22.79,0,0,1,.85-5.18,22.69,22.69,0,0,0,.87-3.64c.33-3.29-2.72-3.93-5.32-4.83a12.66,12.66,0,0,1-7.21-6.36,12.11,12.11,0,0,1-1.23-9.09,10.61,10.61,0,0,1,2.42-4.25c.49-.54,1.19-1,1.64-1.56a2.07,2.07,0,0,0,.18-1.83c-.66-2.86-2.74-5.22-3.48-8.08-.67-2.57-.27-5.78,2.08-7.44A6.2,6.2,0,0,1,136.91,292.53Z"/><path id="middle_thing-3" data-name="middle thing-3" class="cls-15" d="M141,300c3.18,3.39,4,8,4.3,12.43.14,2.5,0,5.13.73,7.56a12.68,12.68,0,0,0,3.61,5.15c3.05,3,6.46,6.08,7.35,10.44.53,2.56.17,5.21.9,7.74a21.13,21.13,0,0,0,3.22,6.5c1.14,1.57,2.62,2.77,3.86,4.23.38.44.92,1.1.76,1.73s-1.12,1-1.78.85c-1.56-.27-2.86-1.75-3.88-2.83a24.52,24.52,0,0,1-3.76-5.17,21.74,21.74,0,0,1-2.45-6.71c-.4-2.46-.2-5-1.13-7.37-1.56-4-5.34-6.31-8.08-9.4-3.41-3.85-2.9-8.65-2.55-13.38.19-2.61.38-5.55-.93-7.93-.5-.9-1.62-1.75-1.84-2.78S140.2,299.14,141,300Z"/></g><path id="Base" class="cls-17" d="M144.38,355.62c0,19.36,3.16,29.51,19.85,29.51s19.84-10.15,19.84-29.51Z"/></g><g id="Table"><path id="Table-2" class="cls-18" d="M577.83,385.09V339.78H532v45.31h-11.6V327.63h69.06v57.46Z"/></g><g id="Plant_Right" data-name="Plant Right"><path id="Leaf_Me_Alone_" data-name="Leaf Me Alone " class="cls-15" d="M527.3,242.94c4.06-.22,9.09,2.15,9.53,6.57.31,3.21.22,6.42.7,9.62a25.72,25.72,0,0,0,2.35,7.36c1.08,2.24,3.33,4.15,3.91,6.55a10.33,10.33,0,0,1-.35,5.17c-.62,1.82-.29,1.67.95,3.2a41.26,41.26,0,0,1,6.19,9.62c2.23,5.14,3.7,11.14,2.87,16.77-.1.72-.23,3.28-1.21,3.46s-.58-1.27-.53-1.74a30.75,30.75,0,0,0,.26-8.73c-1.75-11.85-10.25-19.65-15.79-29.7-.3-.52-.94-1.75-1.39-2.56-.71-1.29-1.42-3.74-2.37-4.69-1.8-1.79-.14,1.82.21,2.51.44.87.93,1.79,1.38,2.56,2.08,3.54,4.4,7.4,6.54,11-9.27,2.12-15.8-9-18.3-16.35-2-6-4.51-20.15,5-20.67"/><path id="Leaf_Me_Alone_2" data-name="Leaf Me Alone 2" class="cls-15" d="M581.77,231.72c-6.79.54-11.15,5-13.18,11.29-1.1,3.38-1.22,6.85-1.83,10.32A22.05,22.05,0,0,1,560,266.24a12.85,12.85,0,0,0-2.69,3.6,15.09,15.09,0,0,0-3.11,4.44,8.21,8.21,0,0,0-.13,7.14,7.33,7.33,0,0,0,1.91,2.35,46,46,0,0,0-4.53,20.66c.12,4.27.33,8.55.57,12.82.06,1.15.44,3,1,1.12.51-1.76-.13-4.52-.19-6.36-.29-8.95-.54-17.09,3.15-25.46.38-.88.79-1.75,1.22-2.61l.07-.05.05,0a1.2,1.2,0,0,1,.11-.17,2.21,2.21,0,0,0,.33-.47,3.57,3.57,0,0,0,.7-1.27h0a119.12,119.12,0,0,1,7.56-10.69s2.9-3.95,2.44-1.75c-.21,1.05-2.36,3.07-3.22,4.19a102.33,102.33,0,0,0-6,8.71,4.21,4.21,0,0,0-.86,1.38c-.14.27-.28.54-.41.77,6.63,2.19,11.78-2.22,15.3-7.35h0a22.16,22.16,0,0,1,3.53-3.95c2.28-1.87,4.73-2.2,7.42-3.12,7.34-2.5,10.46-12,11.45-19.08,1.12-8-4.35-20.18-13.9-19.39"/><path id="Leaf_Me_Alone_3" data-name="Leaf Me Alone 3" class="cls-19" d="M568.35,209.42c-7,7.25-10.34,17.32-13,26.78a122,122,0,0,0-5,32.29c-.05,7.21-.24,14.48.18,21.69a75.92,75.92,0,0,0,.81,7.66c0,.21.94,5.86,1.81,4.54.49-.75-.93-5.86-1-6.72a111,111,0,0,1-.71-14.47c0-8-.19-15.88.62-23.82a27,27,0,0,1,.49-3.58c.3-1.23-.08-.7.89-1.18s2.12-.41,3.1-1c3.89-2.36,5.88-8.42,7.43-12.39A76.47,76.47,0,0,0,567.61,225,101.61,101.61,0,0,0,569,214.45a27.7,27.7,0,0,1,.3-3.4,7.5,7.5,0,0,0,.35-1.08c0-.56-.36-.89-.39-1.36-.29.26-.58.53-.86.81"/><path id="Base-2" class="cls-17" d="M530.34,306.1a21.73,21.73,0,0,0,43.45,0"/><path id="Leaf_Me_Alone_4" data-name="Leaf Me Alone 4" class="cls-14" d="M575.42,314.13a3.31,3.31,0,0,1-2.27-.8,4.57,4.57,0,0,1-1.23-2,17.15,17.15,0,0,1-.65-4.9,19.5,19.5,0,0,0-.7-5.27,9.16,9.16,0,0,0-2.86-4.38c-.36-.32-.76-.62-1.13-.91s-.69-.53-1-.81l-.16-.14c-1.06-.89-2.16-1.81-2.3-3.27a2.32,2.32,0,0,1,.39-1.78,1.69,1.69,0,0,1,1.32-.47,6.13,6.13,0,0,1,1.12.14,3.35,3.35,0,0,1,.43.16,8.87,8.87,0,0,0,2.23.63q.25,0,.33-.12a.34.34,0,0,0,0-.31q-.2-.46-1.32-.81c-1.49-.16-2.9-.31-3.74-.31a3.27,3.27,0,0,0-.54,0,8.19,8.19,0,0,0-4,2.24,14.06,14.06,0,0,0-2.76,4,30.48,30.48,0,0,0-2.57,9.31c-.06.54-.12,1.12-.17,1.79h-1.15a38.81,38.81,0,0,1,.42-4.31,27.91,27.91,0,0,1,3-8.88,13.05,13.05,0,0,1,3-3.6,8.16,8.16,0,0,1,4.11-1.85,5,5,0,0,1,.67,0c.43,0,1,0,1.46,0a3.85,3.85,0,0,1,1.62-.48l.7,0a11.6,11.6,0,0,1,3.91.71,17,17,0,0,1,3.75,1.91,19.42,19.42,0,0,1,3.23,2.71,16.66,16.66,0,0,1,2.39,3.15,12.09,12.09,0,0,1,1.49,6.06,19.71,19.71,0,0,1-1,6.23,14.27,14.27,0,0,1-2.1,4.11,4.87,4.87,0,0,1-3.8,2.2Z"/></g></g></g></g></svg>