<svg xmlns="http://www.w3.org/2000/svg" viewBox="0 0 670.26 532.41"><defs><style>.cls-1{fill:#e6eaff;}.cls-2{fill:#7a1919;}.cls-3{fill:#f43131;}.cls-4{fill:#f88383;}.cls-5{fill:#fbadad;}.cls-6{fill:#b72525;}.cls-7{fill:#999;}.cls-8{fill:#333;}</style></defs><g id="Layer_2" data-name="Layer 2"><g id="Illustration"><g id="Layer_2-2" data-name="Layer 2"><path class="cls-1" d="M35.56,453.68c-40.39-59-49.32-151.19-11.41-199,27.32-34.48,45.36-43.26,65.6-82.74C119.09,114.65,80.65,71.27,124.81,24,178.24-33.1,227.65,34.11,335.28,34,457.08,34,508.2-20.85,552,8.79,610.5,48.45,568.68,73.1,600.5,186.54c37.14,132.4,78.23,102.94,68.24,220.72-4.8,56.65-67.11,87.1-81.28,94.62-62.23,33-118.06-13.07-216.46-12.73-116.1.4-123.82,58.29-219.08,39.51C131.87,524.71,76.87,514,35.56,453.68Z"/><path class="cls-2" d="M262,429.62l-4.26-4.72a15.12,15.12,0,0,0-11.18-4.49H232.74V384.94H217.62v35.47H202.55c-4.84,0-9.31,2-11.73,5.15l-3.23,4.24a2.86,2.86,0,0,0,2.27,4.6h70A2.86,2.86,0,0,0,262,429.62Z"/><path class="cls-3" d="M264.25,147.82V264H186.82V149.78c0-.66,0-1.33,0-2a38.74,38.74,0,1,1,77.47,0v0Z"/><path class="cls-2" d="M271.27,256.08v79.23h0a.53.53,0,0,1,0,.12,46.34,46.34,0,0,1-92.63,0v-.12h-.13V256.08H173v76.6c0,.88-.07,1.78-.07,2.67a52,52,0,0,0,103.92,0v0h0V256.08Z"/><path class="cls-4" d="M268.25,261.47v71.58h0v0a43.34,43.34,0,0,1-86.67,0c0-.75,0-1.5.06-2.24V261.47Z"/><path class="cls-2" d="M274.53,238.66h4.62a0,0,0,0,1,0,0v20.89a0,0,0,0,1,0,0h-4.62a10.44,10.44,0,0,1-10.44-10.44v0A10.44,10.44,0,0,1,274.53,238.66Z"/><path class="cls-2" d="M182.2,238.66h4.62a0,0,0,0,1,0,0v20.89a0,0,0,0,1,0,0H182.2a10.44,10.44,0,0,1-10.44-10.44v0A10.44,10.44,0,0,1,182.2,238.66Z" transform="translate(358.57 498.21) rotate(-180)"/><path class="cls-5" d="M151.91,236.13v24.18a.91.91,0,0,0,0,.17,5.71,5.71,0,0,0,5.71,5.55H173V230.41H157.63a5.71,5.71,0,0,0-5.71,5.56A.86.86,0,0,0,151.91,236.13Z"/><path class="cls-6" d="M151.92,236H173v-2.72H152.69A5.69,5.69,0,0,0,151.92,236Z"/><rect class="cls-6" x="151.97" y="238.7" width="21.06" height="2.72" transform="translate(325 480.11) rotate(180)"/><rect class="cls-6" x="151.97" y="244.14" width="21.06" height="2.72" transform="translate(325 491) rotate(180)"/><rect class="cls-6" x="151.97" y="249.59" width="21.06" height="2.72" transform="translate(325 501.89) rotate(180)"/><rect class="cls-6" x="151.97" y="255.03" width="21.06" height="2.72" transform="translate(325 512.78) rotate(180)"/><path class="cls-6" d="M151.92,260.48a5.66,5.66,0,0,0,.77,2.71H173v-2.71Z"/><path class="cls-2" d="M232.12,276.48a7.21,7.21,0,1,1-7.21-7.21A7.21,7.21,0,0,1,232.12,276.48Z"/><rect class="cls-2" x="197.47" y="130.5" width="30.81" height="3.81" transform="translate(-31.49 188.38) rotate(-44.78)"/><rect class="cls-2" x="192.86" y="139.27" width="55.31" height="3.81" transform="translate(-35.24 197.28) rotate(-45)"/><rect class="cls-2" x="221.48" y="116.61" width="3.81" height="29.38" transform="translate(-24.89 205.43) rotate(-47.07)"/><rect class="cls-2" x="214.36" y="127.03" width="3.81" height="36.8" transform="translate(-37.94 202.87) rotate(-46.65)"/><rect class="cls-2" x="208.97" y="144.12" width="3.81" height="34.97" transform="translate(-52.06 199.71) rotate(-45.71)"/><path class="cls-7" d="M506.78,267.68H485c-5.61-135-201.25-135.14-206.94,0H256.32C262.89,103.83,500.26,104,506.78,267.68Z"/><path d="M485.05,267.47c-32.36,0-27.16-60.62-70.06-80.74-33.69-17.85-78.88-4.37-97.28,29-8.1,18.79-20.87,51.43-39.6,51.72C283.8,132.34,479.44,132.51,485.05,267.47Z"/><rect class="cls-7" x="485.02" y="267.56" width="21.75" height="71.47"/><path d="M478.67,418.13l.8.16c7.89,1.62,16.27-.73,23.36-6.53L508.7,407l10.53-49.26L515.64,350c-4.16-8.9-11.25-14.91-19.62-16.62h0Z"/><path class="cls-8" d="M497.29,330.28,478.51,422a13.7,13.7,0,0,1-16.16,10.67l-23.6-4.83a13.68,13.68,0,0,1-10.66-16.16L446.87,320A13.7,13.7,0,0,1,463,309.29l23.6,4.84A13.68,13.68,0,0,1,497.29,330.28Z"/><path d="M475,311.75,450.76,430.3l-12-2.46a13.68,13.68,0,0,1-10.66-16.16L446.87,320A13.7,13.7,0,0,1,463,309.29Z"/><rect class="cls-7" x="256.31" y="267.49" width="21.75" height="71.47"/><path d="M284.42,418.06l-.81.17c-7.88,1.61-16.26-.73-23.35-6.53l-5.88-4.81-10.53-49.26,3.6-7.69c4.15-8.9,11.25-14.91,19.62-16.63h0Z"/><path class="cls-8" d="M265.79,330.22l18.79,91.72a13.7,13.7,0,0,0,16.16,10.67l23.6-4.84A13.68,13.68,0,0,0,335,411.62l-18.79-91.73a13.68,13.68,0,0,0-16.15-10.66l-23.6,4.83A13.71,13.71,0,0,0,265.79,330.22Z"/><path d="M288.05,311.69l24.27,118.54,12-2.46A13.68,13.68,0,0,0,335,411.62l-18.79-91.73a13.68,13.68,0,0,0-16.15-10.66Z"/><polygon class="cls-3" points="371.02 256.39 428.81 294.36 371 332.35 371.02 256.39"/><rect class="cls-3" x="350.1" y="256.39" width="11.74" height="75.96"/><path class="cls-6" d="M218.3,302.55a3.25,3.25,0,0,0-1.05-2.44,4.44,4.44,0,0,0-5.35-.18,2.68,2.68,0,0,0-1,2.13,4.23,4.23,0,0,0,.06.73.51.51,0,0,0,.51.42h1.38a.51.51,0,0,0,.51-.55v-.28a1.1,1.1,0,0,1,1.16-1.16,1.12,1.12,0,0,1,.87.36,1.36,1.36,0,0,1,.33,1,1.85,1.85,0,0,1-.66,1.51,2.9,2.9,0,0,1-1.93.56h-1.36a.51.51,0,0,0-.52.51v1.45a.24.24,0,0,0,.09.17l3.3,2.25a.2.2,0,0,0,.11,0H218a.19.19,0,0,0,.19-.18h0a.19.19,0,0,0-.09-.16l-3.52-2.4a5,5,0,0,0,2.71-1.21A3.27,3.27,0,0,0,218.3,302.55Z"/><path class="cls-6" d="M218.56,296.46h-.51a5.14,5.14,0,0,0,.08-.88,3,3,0,0,0-.79-2.19,3.1,3.1,0,0,0-2.27-.78,7.28,7.28,0,0,0-1.63.23,6.72,6.72,0,0,1-1.43.22,3,3,0,0,1-.75-.08.52.52,0,0,0-.64.5v1a.52.52,0,0,0,.3.47,3.36,3.36,0,0,0,1.33.26,6.78,6.78,0,0,0,1.35-.18,6.78,6.78,0,0,1,1.17-.18.91.91,0,0,1,.78.28,1.54,1.54,0,0,1,.19.86s0,.1,0,.23,0,.22,0,.28H200.3a.52.52,0,0,0-.52.52v1.07a.51.51,0,0,0,.52.51h6.24v1a15.25,15.25,0,0,0-5.61,3,.21.21,0,0,0-.08.16V305a.22.22,0,0,0,.09.17l5.58,3.86,0,0v0h2a.51.51,0,0,0,.52-.51v-10h16.24v1a8.93,8.93,0,0,0-2.86,1.06,22.56,22.56,0,0,0-2.75,1.94.21.21,0,0,0-.08.16V305a.2.2,0,0,0,.09.17l5.58,3.86,0,0v0h2a.51.51,0,0,0,.51-.51v-6.7a3,3,0,0,1,1.89.68,1.93,1.93,0,0,1,.67,1.52c0,.91-.42,1.37-1.24,1.37h0a.18.18,0,0,0-.19.19v1.8a.38.38,0,0,0,.39.39h0a3.44,3.44,0,0,0,2.62-1,3.83,3.83,0,0,0,.95-2.76,3.87,3.87,0,0,0-1.54-3.22,5.85,5.85,0,0,0-3.55-1.27v-1h5.59a.51.51,0,0,0,.52-.51V297a.52.52,0,0,0-.52-.52H218.56Zm-12,9.86-2.74-2a.52.52,0,0,1,0-.85,15.38,15.38,0,0,1,2.72-1.4Zm18.78,0-2.81-2a.52.52,0,0,1,0-.83,9.64,9.64,0,0,1,2.82-1.54Z"/><path class="cls-6" d="M242.59,301.35a.36.36,0,0,0,.32-.35h0a4.81,4.81,0,0,0-1-3.56,4.29,4.29,0,0,0-3.31-1.3,4.36,4.36,0,0,0-3.18,1.12,3.89,3.89,0,0,0-1.16,2.94,3.84,3.84,0,0,0,1.05,2.89,4,4,0,0,0,2.86,1l.61,0a.52.52,0,0,0,.46-.52v-1.33a.53.53,0,0,0-.54-.52h-.21a1.69,1.69,0,0,1-1.15-.39,1.43,1.43,0,0,1-.45-1.12,1.54,1.54,0,0,1,1.69-1.67c1.33,0,1.8.63,1.8,2.28,0,.17,0,.36,0,.55h0A15.28,15.28,0,0,0,242.59,301.35Z"/><path class="cls-6" d="M250.72,296.42h-4.61a2,2,0,0,1-.32-1c0-.64.4-1,1.22-1h0a.41.41,0,0,0,.41-.41v-1.4a.52.52,0,0,0-.47-.52l-.47,0a3.37,3.37,0,0,0-2.37.76,2.57,2.57,0,0,0-.82,2,4.43,4.43,0,0,0,.9,2.49V300a1.72,1.72,0,0,1-1.22,1.87h0a6.69,6.69,0,0,1-2.08.16.52.52,0,0,0-.54.48c0,.34,0,.68,0,1a6,6,0,0,0,1.27,4.05,4.41,4.41,0,0,0,3.56,1.48,4.47,4.47,0,0,0,3.47-1.38,5.13,5.13,0,0,0,1.26-3.6,8.39,8.39,0,0,0-1.92-5.15l-.28-.36h3a.51.51,0,0,0,.51-.52v-1.11A.51.51,0,0,0,250.72,296.42ZM246.79,306a1.9,1.9,0,0,1-1.64.77,2,2,0,0,1-1.66-.74,3.11,3.11,0,0,1-.6-2v0H243a3.22,3.22,0,0,0,2.42-.93,3.42,3.42,0,0,0,.9-2.48v-.5a8,8,0,0,1,1.05,4A3.19,3.19,0,0,1,246.79,306Z"/></g></g></g></svg>