<svg xmlns="http://www.w3.org/2000/svg" viewBox="0 0 670.26 532.41"><defs><style>.cls-1{fill:#e6eaff;}.cls-2{fill:#7a1919;}.cls-3{fill:#f43131;}.cls-4{fill:#f88383;}.cls-5{fill:#fbadad;}.cls-6{fill:#b72525;}.cls-7{fill:#999;}.cls-8{fill:#333;}</style></defs><g id="Layer_2" data-name="Layer 2"><g id="Illustration"><g id="Layer_2-2" data-name="Layer 2"><path class="cls-1" d="M35.56,453.68c-40.39-59-49.32-151.19-11.41-199,27.32-34.48,45.36-43.26,65.6-82.74C119.09,114.65,80.65,71.27,124.81,24,178.24-33.1,227.65,34.11,335.28,34,457.08,34,508.2-20.85,552,8.79,610.5,48.45,568.68,73.1,600.5,186.54c37.14,132.4,78.23,102.94,68.24,220.72-4.8,56.65-67.11,87.1-81.28,94.62-62.23,33-118.06-13.07-216.46-12.73-116.1.4-123.82,58.29-219.08,39.51C131.87,524.71,76.87,514,35.56,453.68Z"/><path class="cls-2" d="M262,429.62l-4.26-4.72a15.12,15.12,0,0,0-11.18-4.49H232.74V384.94H217.62v35.47H202.55c-4.84,0-9.31,2-11.73,5.15l-3.23,4.24a2.86,2.86,0,0,0,2.27,4.6h70A2.86,2.86,0,0,0,262,429.62Z"/><path class="cls-3" d="M264.25,147.82V264H186.82V149.78c0-.66,0-1.33,0-2a38.74,38.74,0,1,1,77.47,0v0Z"/><path class="cls-2" d="M271.27,256.08v79.23h0a.53.53,0,0,1,0,.12,46.34,46.34,0,0,1-92.63,0v-.12h-.13V256.08H173v76.6c0,.88-.07,1.78-.07,2.67a52,52,0,0,0,103.92,0v0h0V256.08Z"/><path class="cls-4" d="M268.25,261.47v71.58h0v0a43.34,43.34,0,0,1-86.67,0c0-.75,0-1.5.06-2.24V261.47Z"/><path class="cls-2" d="M274.53,238.66h4.62a0,0,0,0,1,0,0v20.89a0,0,0,0,1,0,0h-4.62a10.44,10.44,0,0,1-10.44-10.44v0A10.44,10.44,0,0,1,274.53,238.66Z"/><path class="cls-2" d="M182.2,238.66h4.62a0,0,0,0,1,0,0v20.89a0,0,0,0,1,0,0H182.2a10.44,10.44,0,0,1-10.44-10.44v0A10.44,10.44,0,0,1,182.2,238.66Z" transform="translate(358.57 498.21) rotate(-180)"/><path class="cls-5" d="M151.91,236.13v24.18a.91.91,0,0,0,0,.17,5.71,5.71,0,0,0,5.71,5.55H173V230.41H157.63a5.71,5.71,0,0,0-5.71,5.56A.86.86,0,0,0,151.91,236.13Z"/><path class="cls-6" d="M151.92,236H173v-2.72H152.69A5.69,5.69,0,0,0,151.92,236Z"/><rect class="cls-6" x="151.97" y="238.7" width="21.06" height="2.72" transform="translate(325 480.11) rotate(180)"/><rect class="cls-6" x="151.97" y="244.14" width="21.06" height="2.72" transform="translate(325 491) rotate(180)"/><rect class="cls-6" x="151.97" y="249.59" width="21.06" height="2.72" transform="translate(325 501.89) rotate(180)"/><rect class="cls-6" x="151.97" y="255.03" width="21.06" height="2.72" transform="translate(325 512.78) rotate(180)"/><path class="cls-6" d="M151.92,260.48a5.66,5.66,0,0,0,.77,2.71H173v-2.71Z"/><path class="cls-2" d="M232.12,276.48a7.21,7.21,0,1,1-7.21-7.21A7.21,7.21,0,0,1,232.12,276.48Z"/><rect class="cls-2" x="197.47" y="130.5" width="30.81" height="3.81" transform="translate(-31.49 188.38) rotate(-44.78)"/><rect class="cls-2" x="192.86" y="139.27" width="55.31" height="3.81" transform="translate(-35.24 197.28) rotate(-45)"/><rect class="cls-2" x="221.48" y="116.61" width="3.81" height="29.38" transform="translate(-24.89 205.43) rotate(-47.07)"/><rect class="cls-2" x="214.36" y="127.03" width="3.81" height="36.8" transform="translate(-37.94 202.87) rotate(-46.65)"/><rect class="cls-2" x="208.97" y="144.12" width="3.81" height="34.97" transform="translate(-52.06 199.71) rotate(-45.71)"/><path class="cls-7" d="M506.78,267.68H485c-5.61-135-201.25-135.14-206.94,0H256.32C262.89,103.83,500.26,104,506.78,267.68Z"/><path d="M485.05,267.47c-32.36,0-27.16-60.62-70.06-80.74-33.69-17.85-78.88-4.37-97.28,29-8.1,18.79-20.87,51.43-39.6,51.72C283.8,132.34,479.44,132.51,485.05,267.47Z"/><rect class="cls-7" x="485.02" y="267.56" width="21.75" height="71.47"/><path d="M478.67,418.13l.8.16c7.89,1.62,16.27-.73,23.36-6.53L508.7,407l10.53-49.26L515.64,350c-4.16-8.9-11.25-14.91-19.62-16.62h0Z"/><path class="cls-8" d="M497.29,330.28,478.51,422a13.7,13.7,0,0,1-16.16,10.67l-23.6-4.83a13.68,13.68,0,0,1-10.66-16.16L446.87,320A13.7,13.7,0,0,1,463,309.29l23.6,4.84A13.68,13.68,0,0,1,497.29,330.28Z"/><path d="M475,311.75,450.76,430.3l-12-2.46a13.68,13.68,0,0,1-10.66-16.16L446.87,320A13.7,13.7,0,0,1,463,309.29Z"/><rect class="cls-7" x="256.31" y="267.49" width="21.75" height="71.47"/><path d="M284.42,418.06l-.81.17c-7.88,1.61-16.26-.73-23.35-6.53l-5.88-4.81-10.53-49.26,3.6-7.69c4.15-8.9,11.25-14.91,19.62-16.63h0Z"/><path class="cls-8" d="M265.79,330.22l18.79,91.72a13.7,13.7,0,0,0,16.16,10.67l23.6-4.84A13.68,13.68,0,0,0,335,411.62l-18.79-91.73a13.68,13.68,0,0,0-16.15-10.66l-23.6,4.83A13.71,13.71,0,0,0,265.79,330.22Z"/><path d="M288.05,311.69l24.27,118.54,12-2.46A13.68,13.68,0,0,0,335,411.62l-18.79-91.73a13.68,13.68,0,0,0-16.15-10.66Z"/><polygon class="cls-3" points="372.02 256.39 429.81 294.36 372 332.35 372.02 256.39"/><rect class="cls-3" x="351.1" y="256.39" width="11.74" height="75.96"/></g></g></g></svg>