<svg xmlns="http://www.w3.org/2000/svg" viewBox="0 0 800.52 607.12"><defs><style>.cls-1{fill:#e6eaff;}.cls-2{fill:#724600;}.cls-3{fill:#3a9e1d;}.cls-4{fill:#69a359;}.cls-5{fill:#82a577;}.cls-6{fill:#1a3333;}.cls-7{fill:#fff;}.cls-8{fill:#52a03b;}.cls-9{fill:#aa6800;}.cls-10{fill:#0a0a33;}.cls-11{fill:#e6fffd;}.cls-12{fill:#89876d;}.cls-13{fill:#85a3a3;}.cls-14{fill:#5c8585;}.cls-15{fill:#264d4d;}.cls-16{fill:#f79d69;}.cls-17{fill:#f57d37;}.cls-18{fill:#bcbcec;}.cls-19{fill:#e9e9f9;}.cls-20{fill:#fffdb6;}.cls-21{fill:#bfbe7b;}.cls-22{fill:#f25c05;}.cls-23{fill:#366;}.cls-24{fill:none;stroke:#000;stroke-miterlimit:10;}.cls-25{fill:#5252a3;}.cls-26{fill:#a6a6e6;}.cls-27{fill:#807f52;}.cls-28{fill:#7170c2;}.cls-29{fill:#f4d199;}.cls-30{fill:#adb0bf;}.cls-31{fill:#f43131;}.cls-32{fill:#999;}</style></defs><g id="Layer_2" data-name="Layer 2"><g id="Illustration"><g id="Back"><path class="cls-1" d="M40,338.56c26.48-44.67,49.83-56.47,59.41-103.42,12.79-62.6-17.22-93.84-5.52-134C116.52,23.5,278,1.59,343.44.49c115.82-1.94,329.81-2.71,368.5,90.77,25.23,61-19,94.81,3.61,187.82,21.93,90.2,85.26,121.66,85,185.94C800.21,532.3,788,578.2,704.65,599.37c-123.89,31.46-185.38-43.07-358.27-43.12C204.8,556.21,100.81,607,48.4,567-22.27,513.13-7.11,418.05,40,338.56Z"/></g><g id="Laptop"><g id="Plants"><path class="cls-2" d="M684.06,465.64a26.25,26.25,0,0,1-7.4,14.18,1.72,1.72,0,0,1-1,.48c-1.47.05-2.94,0-4.41,0-5.64,0-11.29.08-16.94,0-.77,0-1.63-.87-2.26-1.59a28.45,28.45,0,0,1-6.76-15.94,46.09,46.09,0,0,1-.07-4.85c0-2.18.14-4.38,0-6.53-.12-1.51.28-1.64,1.25-1.64,5.79,0,11.58,0,17.37,0,.76,0,1.51,0,2.27,0l11.22.08h7.25c.08.1.16.16.16.24C684.67,455.24,685.1,460.5,684.06,465.64Z"/><path class="cls-3" d="M646.47,383.56c1.19-2.1,2.4-4.19,3.57-6.3a1.24,1.24,0,0,1,1.36-.72c8.1.56,13.48,5,17.24,11.88-.13.47-.25.95-.4,1.43a23.51,23.51,0,0,0-.78,11.74,3.47,3.47,0,0,0-.68.88,35.69,35.69,0,0,0-1.79,5.15c-.6,2.84-.91,5.74-1.35,8.62l-4.27-.5h0l-.22-.18a21,21,0,0,0-10.93-8.83,26,26,0,0,1-3.49-8.81,1.88,1.88,0,0,0,0-.53,18.55,18.55,0,0,1,.38-9.47C645.58,386.47,646,385,646.47,383.56Z"/><path class="cls-4" d="M669.28,433.16c-.29-1.13-.65-2.26-.87-3.41-1-5.06.67-9.44,3.61-13.46,4.76-6.49,11.27-9.09,19.16-8.57,1.27.09,2.54.26,3.88.4a26,26,0,0,1-1.52,8c-2.66,7.57-7.43,13.32-14.8,16.7a15.76,15.76,0,0,1-7.52,1.44C670.24,434.49,669.8,433.75,669.28,433.16Z"/><path class="cls-5" d="M667.45,401.59a23.62,23.62,0,0,1,.79-11.74c.15-.48.27-1,.4-1.43a11.75,11.75,0,0,0,.62-1.09c2.73-6.16,6.72-11.21,12.8-14.39a13.71,13.71,0,0,1,7.18-1.7c-.34,2.18-.57,4.26-1,6.3a32,32,0,0,1-3.6,9.14c-2.07,3.64-4.15,7.27-6.39,10.81a11.23,11.23,0,0,1-6.28,4.94l-2.92.43C668.36,402.62,667.36,402.78,667.45,401.59Z"/><path class="cls-5" d="M648.23,406.74a21,21,0,0,1,10.93,8.83l.22.18h0a2.61,2.61,0,0,0,.08.56c.65,1.95,1.47,3.87,1.94,5.86a39,39,0,0,1,.53,5.2l-.29,1.49-1.23.27a5.3,5.3,0,0,0-1.07-.62,32.36,32.36,0,0,1-18.46-13,38.71,38.71,0,0,0-2.55-3.44c-1.52-1.78-3.14-3.48-4.78-5.28,1.41-.22,3-.49,4.58-.7A28.92,28.92,0,0,1,648.23,406.74Z"/><path class="cls-6" d="M660.4,429.12l1.23-.27c.08-.41.18-1,.29-1.49.55,1.05,1.09,2.1,1.77,3.42,0-.6.06-.87.06-1.15q0-6.17,0-12.34a9.35,9.35,0,0,0-.11-1.05c.44-2.88.75-5.78,1.35-8.62a35.69,35.69,0,0,1,1.79-5.15,3.47,3.47,0,0,1,.68-.88c-.1,1.19.9,1,1.58,1.27-.16.39-.32.79-.49,1.19a33.78,33.78,0,0,0-2.51,11.3v24.79l.15.07,3.09-7c.52.59,1,1.33,1.94,1.09-1.65,3.81-3.4,7.59-4.9,11.46-.46,1.19-.23,2.66-.31,4h-2.26c0-1.53,0-3.07,0-4.6a1.91,1.91,0,0,0-.66-1.17c-.68-.57-1.45-1-2.18-1.52,1.1-.31,1-1.14.84-2l2,1.2c0-3,.46-5.8-1.3-8.39A32.69,32.69,0,0,1,660.4,429.12Z"/><path class="cls-4" d="M646.47,383.56c-.45,1.45-.89,2.91-1.35,4.37a18.55,18.55,0,0,0-.38,9.47,1.88,1.88,0,0,1,0,.53,22,22,0,0,1-7.66-9.85c-1.47-3.62-2.66-7.36-4-11.07a5.5,5.5,0,0,1,4.37-.21A17.71,17.71,0,0,1,646.47,383.56Z"/><path class="cls-3" d="M661.72,440.42c.14.84.26,1.67-.84,2-4.51,1.89-8.47.51-12.14-2.18-3.48-2.54-3.45-2.58-7.62-3.07a4.87,4.87,0,0,1,2.59-3.45,12.39,12.39,0,0,1,9.56-.89A11.37,11.37,0,0,1,661.72,440.42Z"/><path class="cls-7" d="M666.62,414.21a33.23,33.23,0,0,1,2.4-10l.37-.93,2-.3A16.54,16.54,0,0,1,666.62,414.21Z"/><path d="M670.87,403.6a16.28,16.28,0,0,1-3.59,9.17,32.45,32.45,0,0,1,2.2-8.34l.27-.67,1.12-.16m1.09-1.17-2.92.43c-.16.39-.32.79-.49,1.19a33.78,33.78,0,0,0-2.51,11.3,6.65,6.65,0,0,0,.59-.46c3.63-3.36,5.1-7.64,5.33-12.46Z"/><path class="cls-7" d="M659.38,415.75l-.22-.18Z"/><path d="M659.16,415.57l.22.18-.22-.18Z"/><g id="Maceta"><path id="Fill_27" data-name="Fill 27" class="cls-8" d="M115.16,444.55a30.13,30.13,0,0,0-1.52,3,39.58,39.58,0,0,1,.42-6.34c.54-3.66,1.36-7.3,2.14-10.93.55-2.61.52-7.31,2.63-9.39.58-.45.72.43.72.82,0,.08,0-1.57-.56-1.28-3.35,1.73-4.43,7.16-5.5,9.88a52,52,0,0,0-3.44,12.15,25.35,25.35,0,0,0-.23,3.13c-.12-.28-.22-.56-.34-.83a56.81,56.81,0,0,0-7.79-13c-.8-1-10.86-10.89-11.64-9.37a1.05,1.05,0,0,0,.49.55s0,0,0,0c.59.95,2.27,2.43,2.8,3.26a64,64,0,0,1,3.38,6.53c2.19,4.62,4.23,9.3,6.21,14,.46,1.1.94,2.18,1.42,3.26-5-7.27-11.76-13.87-21-17.65,3.15,1.61,5.23,4.63,7.37,7,2.57,2.8,5.29,5.52,7.87,8.31,3,3.3,6.62,6.77,9.55,10.41a110.46,110.46,0,0,1,7.3,18.18c-.7-2.17-.06-5.16-.18-7.42a48.55,48.55,0,0,0-.6-5.39,10.79,10.79,0,0,1,.81,2.36c-.13-1.26-.28-2.51-.43-3.75.4-1.17.8-2.26,1.07-3.15a80.67,80.67,0,0,1,5.25-13.52,118.82,118.82,0,0,1,7-12c1.2-1.81,2.42-3.63,3.64-5.44.79-1.19,1.55-3.09,2.65-4.22-7.15,6.53-15,13.11-19.49,20.95"/><path id="Base-4" class="cls-9" d="M127.19,453.67c0,14.62-1.15,26.48-16.64,26.48s-16.64-11.86-16.64-26.48Z"/></g></g><path class="cls-10" d="M186.4,169.61H603.17a13.62,13.62,0,0,1,13.62,13.62V458a0,0,0,0,1,0,0h-444a0,0,0,0,1,0,0V183.23A13.62,13.62,0,0,1,186.4,169.61Z"/><rect class="cls-11" x="187.16" y="183.07" width="415.26" height="261.46"/><rect x="128.06" y="458" width="533.45" height="22.36" rx="10.12"/><path class="cls-12" d="M353.26,458h83.05a0,0,0,0,1,0,0v.07a11.43,11.43,0,0,1-11.43,11.43H364.69a11.43,11.43,0,0,1-11.43-11.43V458A0,0,0,0,1,353.26,458Z"/><g id="Shelf"><rect class="cls-9" x="219.1" y="253.13" width="351.37" height="5.59" rx="2"/><rect class="cls-13" x="551.03" y="195.17" width="10.23" height="6.08"/><rect class="cls-14" x="551.03" y="201.25" width="10.23" height="1.78"/><path class="cls-13" d="M551,203v39.61h10.22V203Zm6.69,33.88h-3.16v-22h3.16Zm-1.58-24.54a1.94,1.94,0,1,1,1.94-1.94A1.94,1.94,0,0,1,556.14,212.37Z"/><path class="cls-13" d="M554.2,210.43a1.94,1.94,0,1,1,1.94,1.94A1.94,1.94,0,0,1,554.2,210.43Z"/><rect class="cls-13" x="554.56" y="214.9" width="3.16" height="22"/><rect class="cls-13" x="551.03" y="244.54" width="10.23" height="2.61"/><rect class="cls-14" x="551.03" y="242.64" width="10.23" height="1.9"/><rect class="cls-14" x="551.03" y="247.15" width="10.23" height="2.01"/><rect class="cls-13" x="551.03" y="249.16" width="10.23" height="3.97"/><path class="cls-15" d="M558.08,210.43a1.94,1.94,0,1,1-1.94-1.94A1.93,1.93,0,0,1,558.08,210.43Z"/><rect class="cls-15" x="554.56" y="214.9" width="3.16" height="22"/><rect class="cls-14" x="505.87" y="201.29" width="18.95" height="2.64"/><rect class="cls-13" x="505.87" y="196.21" width="18.95" height="5.08"/><rect class="cls-14" x="505.87" y="242.82" width="18.95" height="2.01"/><rect class="cls-13" x="505.87" y="203.93" width="18.95" height="38.89"/><rect class="cls-14" x="505.87" y="246.5" width="18.95" height="2.1"/><rect class="cls-13" x="505.87" y="244.83" width="18.95" height="1.67"/><rect class="cls-13" x="505.87" y="248.6" width="18.95" height="4.53"/><circle class="cls-15" cx="515.35" cy="210.21" r="2.46"/><rect class="cls-15" x="512.46" y="215.85" width="5.77" height="22.02"/><rect class="cls-16" x="548.92" y="343.27" width="12.3" height="69.68"/><rect class="cls-17" x="553.34" y="348.65" width="3.46" height="58.93"/><rect class="cls-18" x="540.04" y="368.44" width="8.89" height="1.55"/><rect class="cls-19" x="540.04" y="362.61" width="8.89" height="5.83"/><rect class="cls-18" x="540.04" y="407.2" width="8.89" height="1.74"/><rect class="cls-19" x="540.04" y="369.99" width="8.89" height="37.21"/><rect class="cls-19" x="540.04" y="408.95" width="8.89" height="4.01"/><rect class="cls-18" x="543.25" y="372.76" width="2.46" height="31.98"/><rect class="cls-20" x="524.09" y="367.57" width="15.95" height="45.38"/><circle class="cls-21" cx="532.06" cy="379.33" r="3.89"/><rect class="cls-22" x="524.83" y="205.18" width="15.97" height="5.56"/><rect class="cls-22" x="524.83" y="246.18" width="15.97" height="3.14"/><rect class="cls-16" x="524.83" y="210.74" width="15.97" height="35.44"/><rect class="cls-16" x="524.83" y="249.31" width="15.97" height="3.82"/><rect class="cls-22" x="528.67" y="216.14" width="8.29" height="8.29"/><rect class="cls-13" x="507.46" y="358.46" width="5.96" height="11.15" transform="translate(-80.23 574.21) rotate(-55.08)"/><rect class="cls-23" x="505.75" y="362.46" width="3.79" height="11.15" transform="translate(-84.72 573.6) rotate(-55.08)"/><polygon class="cls-23" points="488.35 405.42 486.19 408.53 486.18 408.53 477.04 402.15 479.21 399.04 488.35 405.42"/><rect class="cls-13" x="477.98" y="401.66" width="4.61" height="11.15" transform="translate(-128.55 567.94) rotate(-55.08)"/><rect class="cls-13" x="475.27" y="380.33" width="39.8" height="11.15" transform="translate(-104.69 571.07) rotate(-55.09)"/><line class="cls-24" x1="488.36" y1="405.42" x2="488.35" y2="405.42"/><rect class="cls-15" x="491.86" y="370.77" width="5.79" height="31.46" transform="translate(310.26 -213.6) rotate(34.91)"/><rect class="cls-25" x="516.72" y="360.95" width="7.37" height="3.79"/><rect class="cls-26" x="516.72" y="354.99" width="7.37" height="5.96"/><rect class="cls-25" x="516.72" y="404.54" width="7.37" height="3.79"/><rect class="cls-26" x="516.72" y="364.74" width="7.37" height="39.8"/><rect class="cls-26" x="516.72" y="408.34" width="7.37" height="4.61"/><rect class="cls-9" x="219.1" y="412.81" width="351.37" height="5.59" rx="2"/><rect class="cls-9" x="219.1" y="332.97" width="351.37" height="5.59" rx="2"/><rect class="cls-20" x="540.8" y="195.17" width="10.23" height="6.08"/><rect class="cls-21" x="540.8" y="201.25" width="10.23" height="1.78"/><rect class="cls-21" x="540.8" y="242.64" width="10.23" height="1.9"/><rect class="cls-20" x="540.8" y="203.03" width="10.23" height="39.61"/><rect class="cls-21" x="540.8" y="247.15" width="10.23" height="2.01"/><rect class="cls-20" x="540.8" y="244.54" width="10.23" height="2.61"/><rect class="cls-20" x="540.8" y="249.16" width="10.23" height="3.97"/><circle class="cls-27" cx="545.91" cy="210.43" r="1.94"/><rect class="cls-27" x="544.33" y="214.9" width="3.16" height="22"/><rect class="cls-14" x="227.44" y="364.85" width="15.97" height="5.55"/><rect class="cls-14" x="227.44" y="405.85" width="15.97" height="3.14"/><rect class="cls-13" x="227.44" y="370.4" width="15.97" height="35.44"/><rect class="cls-13" x="227.44" y="408.99" width="15.97" height="3.82"/><rect class="cls-15" x="231.29" y="375.81" width="8.29" height="8.29"/><rect class="cls-28" x="230.34" y="237.06" width="1.77" height="15.94"/><rect class="cls-26" x="226.53" y="237.06" width="3.81" height="15.94"/><rect class="cls-28" x="233.51" y="237.06" width="1.69" height="15.94"/><rect class="cls-26" x="232.1" y="237.06" width="1.41" height="15.94"/><rect class="cls-28" x="267.89" y="237.06" width="2.22" height="15.94"/><rect class="cls-26" x="235.2" y="237.06" width="32.69" height="15.94"/><rect class="cls-26" x="270.1" y="237.06" width="4.27" height="15.94"/><circle class="cls-25" cx="262.6" cy="245.03" r="2.07"/><rect class="cls-25" x="246.19" y="235.77" width="4.85" height="18.51" transform="translate(3.59 493.64) rotate(-90)"/><rect class="cls-16" x="230.35" y="224.13" width="2.64" height="13.43"/><rect class="cls-29" x="227.15" y="224.13" width="3.21" height="13.43"/><rect class="cls-16" x="262.78" y="224.13" width="4.67" height="13.43"/><rect class="cls-29" x="232.99" y="224.13" width="29.79" height="13.43"/><rect class="cls-16" x="251.27" y="227.36" width="6.97" height="6.97" transform="translate(23.91 485.6) rotate(-90)"/><rect class="cls-20" x="540.8" y="195.17" width="10.23" height="6.08"/><rect class="cls-21" x="540.8" y="201.25" width="10.23" height="1.78"/><rect class="cls-21" x="540.8" y="242.64" width="10.23" height="1.9"/><rect class="cls-20" x="540.8" y="203.03" width="10.23" height="39.61"/><rect class="cls-21" x="540.8" y="247.15" width="10.23" height="2.01"/><rect class="cls-20" x="540.8" y="244.54" width="10.23" height="2.61"/><rect class="cls-20" x="540.8" y="249.16" width="10.23" height="3.97"/><circle class="cls-27" cx="545.91" cy="210.43" r="1.94"/><rect class="cls-27" x="544.33" y="214.9" width="3.16" height="22"/><rect class="cls-20" x="226.54" y="287.45" width="15.95" height="45.38"/><circle class="cls-21" cx="234.51" cy="299.22" r="3.89"/><rect class="cls-22" x="242.29" y="271.93" width="12.13" height="7.09"/><rect class="cls-22" x="242.29" y="324.25" width="12.13" height="4"/><rect class="cls-16" x="242.29" y="279.02" width="12.13" height="45.23"/><rect class="cls-16" x="242.29" y="328.25" width="12.13" height="4.88"/><rect class="cls-22" x="245.21" y="285.92" width="6.3" height="10.58"/><rect class="cls-18" x="254.54" y="287.94" width="15.04" height="1.56"/><rect class="cls-19" x="254.54" y="282.04" width="15.04" height="5.9"/><rect class="cls-18" x="254.54" y="327.16" width="15.04" height="1.76"/><rect class="cls-19" x="254.54" y="289.5" width="15.04" height="37.66"/><rect class="cls-19" x="254.54" y="328.93" width="15.04" height="4.05"/><rect class="cls-18" x="259.98" y="292.31" width="4.16" height="32.36"/><rect class="cls-13" x="258.23" y="354.86" width="10.23" height="6.08"/><rect class="cls-14" x="258.23" y="360.93" width="10.23" height="1.78"/><path class="cls-13" d="M258.23,362.72v39.61h10.23V362.72Zm6.69,33.88h-3.15v-22h3.15Zm-1.57-24.54a1.94,1.94,0,1,1,1.94-1.94A1.94,1.94,0,0,1,263.35,372.06Z"/><path class="cls-13" d="M261.4,370.12a1.95,1.95,0,1,1,2,1.94A1.94,1.94,0,0,1,261.4,370.12Z"/><rect class="cls-13" x="261.77" y="374.59" width="3.16" height="22"/><rect class="cls-13" x="258.23" y="404.23" width="10.23" height="2.61"/><rect class="cls-14" x="258.23" y="402.33" width="10.23" height="1.9"/><rect class="cls-14" x="258.23" y="406.84" width="10.23" height="2.01"/><rect class="cls-13" x="258.23" y="408.85" width="10.23" height="3.97"/><path class="cls-15" d="M265.29,370.12a1.95,1.95,0,1,1-1.94-1.94A1.94,1.94,0,0,1,265.29,370.12Z"/><rect class="cls-15" x="261.77" y="374.59" width="3.16" height="22"/><rect class="cls-25" x="243.42" y="372.99" width="14.81" height="2.91"/><rect class="cls-26" x="243.42" y="368.42" width="14.81" height="4.57"/><rect class="cls-25" x="243.42" y="406.43" width="14.81" height="2.91"/><rect class="cls-26" x="243.42" y="375.9" width="14.81" height="30.53"/><rect class="cls-26" x="243.42" y="409.34" width="14.81" height="3.54"/><rect class="cls-14" x="514.17" y="281.12" width="18.95" height="2.64"/><rect class="cls-13" x="514.17" y="276.04" width="18.95" height="5.08"/><rect class="cls-14" x="514.17" y="322.65" width="18.95" height="2.01"/><rect class="cls-13" x="514.17" y="283.75" width="18.95" height="38.89"/><rect class="cls-14" x="514.17" y="326.33" width="18.95" height="2.1"/><rect class="cls-13" x="514.17" y="324.65" width="18.95" height="1.67"/><rect class="cls-13" x="514.17" y="328.43" width="18.95" height="4.53"/><circle class="cls-15" cx="523.64" cy="290.04" r="2.46"/><rect class="cls-15" x="520.76" y="295.67" width="5.77" height="22.02"/><rect class="cls-18" x="540.24" y="290.66" width="12.37" height="1.46"/><rect class="cls-19" x="540.24" y="285.14" width="12.37" height="5.52"/><rect class="cls-18" x="540.24" y="327.33" width="12.37" height="1.65"/><rect class="cls-19" x="540.24" y="292.12" width="12.37" height="35.2"/><rect class="cls-19" x="540.24" y="328.98" width="12.37" height="3.79"/><rect class="cls-18" x="544.72" y="294.74" width="3.42" height="30.25"/><rect class="cls-25" x="533.02" y="280.78" width="7.37" height="3.79"/><rect class="cls-26" x="533.02" y="274.82" width="7.37" height="5.96"/><rect class="cls-25" x="533.02" y="324.38" width="7.37" height="3.79"/><rect class="cls-26" x="533.02" y="284.58" width="7.37" height="39.8"/><rect class="cls-26" x="533.02" y="328.17" width="7.37" height="4.61"/></g></g><g id="Checklist"><path class="cls-7" d="M520.38,169.37V415.84a9.21,9.21,0,0,1-9.21,9.21h-233a9.21,9.21,0,0,1-9.21-9.21V145.48a9.21,9.21,0,0,1,9.21-9.21H487.28Z"/><path class="cls-30" d="M343.44,334.12v27.43H316V334.12h27.43m10-10H306v47.43h47.43V324.12Z"/><rect class="cls-30" x="366.8" y="335.24" width="114.99" height="6.39" rx="3.04"/><rect class="cls-30" x="366.8" y="351.85" width="76.66" height="6.39" rx="3.04"/><path class="cls-30" d="M343.44,196.61V224H316V196.61h27.43m10-10H306V234h47.43V186.61Z"/><rect class="cls-30" x="366.8" y="197.74" width="114.99" height="6.39" rx="3.04"/><rect class="cls-30" x="366.8" y="214.34" width="76.66" height="6.39" rx="3.04"/><rect class="cls-31" x="317.38" y="206.09" width="22.36" height="8.31" transform="translate(244.9 -170.75) rotate(45)"/><rect class="cls-31" x="324.05" y="198.21" width="44.66" height="8.31" transform="translate(734.4 100.52) rotate(135)"/><path class="cls-30" d="M343.44,265.37V292.8H316V265.37h27.43m10-10H306V302.8h47.43V255.37Z"/><rect class="cls-30" x="366.8" y="266.49" width="114.99" height="6.39" rx="3.04"/><rect class="cls-30" x="366.8" y="283.09" width="76.66" height="6.39" rx="3.04"/><rect class="cls-31" x="317.38" y="274.85" width="22.36" height="8.31" transform="translate(293.51 -150.61) rotate(45)"/><rect class="cls-31" x="324.05" y="266.96" width="44.66" height="8.31" transform="translate(783.02 217.89) rotate(135)"/><path class="cls-32" d="M520.63,169.63v.07H493.56a6.36,6.36,0,0,1-6.36-6.35V136.27h.08l33.1,33.1Z"/></g><path class="cls-32" d="M387.6,400.64a3.21,3.21,0,0,0-1.05-2.43,3.87,3.87,0,0,0-2.77-1,3.82,3.82,0,0,0-2.55.81,2.64,2.64,0,0,0-1,2.13,3.38,3.38,0,0,0,.07.72.51.51,0,0,0,.5.42h1.38a.52.52,0,0,0,.51-.55c0-.09,0-.18,0-.28a1.16,1.16,0,0,1,.32-.83,1.11,1.11,0,0,1,.84-.33,1.1,1.1,0,0,1,.87.36,1.37,1.37,0,0,1,.33,1,1.89,1.89,0,0,1-.65,1.51,2.92,2.92,0,0,1-1.93.55h-1.36a.51.51,0,0,0-.51.51v1.44a.2.2,0,0,0,.09.17l3.28,2.24a.16.16,0,0,0,.12,0h3.17a.19.19,0,0,0,.19-.18h0a.19.19,0,0,0-.08-.16l-3.52-2.39a5,5,0,0,0,2.71-1.21A3.27,3.27,0,0,0,387.6,400.64Z"/><path class="cls-32" d="M387.86,394.57h-.51a5.14,5.14,0,0,0,.08-.88,2.92,2.92,0,0,0-.79-2.18,3.07,3.07,0,0,0-2.26-.77,7.13,7.13,0,0,0-1.62.22,6.72,6.72,0,0,1-1.43.22,3.54,3.54,0,0,1-.75-.07.51.51,0,0,0-.64.49v1a.52.52,0,0,0,.31.47,3.27,3.27,0,0,0,1.32.25,6.78,6.78,0,0,0,1.35-.18,6.71,6.71,0,0,1,1.16-.18.89.89,0,0,1,.78.29,1.5,1.5,0,0,1,.19.86s0,.1,0,.22,0,.22,0,.28H369.66a.51.51,0,0,0-.51.51v1.07a.51.51,0,0,0,.51.52h6.22v1a15.37,15.37,0,0,0-5.59,2.95.21.21,0,0,0-.08.16v2.3a.22.22,0,0,0,.09.17l5.56,3.85,0,0v0h2a.51.51,0,0,0,.51-.51v-9.95H394.6v1a8.79,8.79,0,0,0-2.85,1.06,23.17,23.17,0,0,0-2.75,1.93.24.24,0,0,0-.07.16v2.3a.2.2,0,0,0,.09.17l5.56,3.85,0,0v0h2a.51.51,0,0,0,.51-.51v-6.68a3,3,0,0,1,1.88.68,1.93,1.93,0,0,1,.67,1.51c0,.91-.41,1.37-1.24,1.37h0a.18.18,0,0,0-.18.19v1.8a.38.38,0,0,0,.38.38h0a3.44,3.44,0,0,0,2.61-1,3.82,3.82,0,0,0,.94-2.75,3.9,3.9,0,0,0-1.53-3.21,5.87,5.87,0,0,0-3.54-1.26v-1h5.57a.52.52,0,0,0,.52-.52v-1.07a.51.51,0,0,0-.52-.51H387.86Zm-12,9.83-2.73-2a.51.51,0,0,1,0-.84,14.62,14.62,0,0,1,2.71-1.39Zm18.72,0-2.8-2a.52.52,0,0,1,0-.83A9.79,9.79,0,0,1,394.6,400Z"/><path class="cls-32" d="M411.81,399.44a.35.35,0,0,0,.31-.35h0c0-1.62-.2-2.68-1-3.54a4.26,4.26,0,0,0-3.3-1.3,4.39,4.39,0,0,0-3.17,1.11,3.91,3.91,0,0,0-1.15,2.93,3.84,3.84,0,0,0,1.05,2.89,3.94,3.94,0,0,0,2.84,1,4.45,4.45,0,0,0,.61,0,.52.52,0,0,0,.46-.51v-1.33a.51.51,0,0,0-.54-.51h-.21a1.68,1.68,0,0,1-1.14-.39,1.4,1.4,0,0,1-.45-1.12,1.68,1.68,0,0,1,.44-1.21,1.66,1.66,0,0,1,1.25-.45c1.32,0,1.79.63,1.79,2.27,0,.18,0,.36,0,.55h0A15.14,15.14,0,0,0,411.81,399.44Z"/><path class="cls-32" d="M419.91,394.53h-4.6a2.11,2.11,0,0,1-.32-1c0-.63.41-.95,1.22-.95h0a.41.41,0,0,0,.41-.41v-1.4a.5.5,0,0,0-.46-.51l-.47,0a3.37,3.37,0,0,0-2.37.75,2.59,2.59,0,0,0-.81,2,4.45,4.45,0,0,0,.89,2.48v2.61a1.71,1.71,0,0,1-1.21,1.87h0a6.38,6.38,0,0,1-2.08.16.52.52,0,0,0-.53.49c0,.32,0,.66,0,1a6,6,0,0,0,1.26,4,5,5,0,0,0,7,.1,5.07,5.07,0,0,0,1.25-3.58,8.4,8.4,0,0,0-1.9-5.14l-.28-.36h3a.51.51,0,0,0,.51-.51v-1.11A.51.51,0,0,0,419.91,394.53ZM416,404.07a1.9,1.9,0,0,1-1.64.77,2,2,0,0,1-1.66-.75,3.09,3.09,0,0,1-.59-2v0h.08a3.23,3.23,0,0,0,2.41-.92,3.42,3.42,0,0,0,.9-2.48v-.49a8,8,0,0,1,1.05,4A3.25,3.25,0,0,1,416,404.07Z"/></g></g></svg>