<svg xmlns="http://www.w3.org/2000/svg" viewBox="0 0 691.21 491.74"><defs><style>.cls-1{fill:#e6eaff;}.cls-2{fill:#e5b900;}.cls-3{fill:#f9e27d;}.cls-4{fill:#e2bf30;}.cls-5{fill:#f43131;}.cls-6{fill:#fbadad;}.cls-7{fill:#b72525;}.cls-8{fill:#17539a;}.cls-9{fill:#7c9dc2;}.cls-10{fill:#113f73;}.cls-11{fill:#fff;}</style></defs><g id="Layer_2" data-name="Layer 2"><g id="Illustration"><g id="back"><path class="cls-1" d="M60.06,475.78c-20.52-12.92-36.92-32.19-47.6-54-12.28-25.14-17.1-55.17-7-81.26,20-51.71,79.08-74.46,89.1-133.59,3.46-20.42.45-41.29-.47-62C90.5,63.31,169.83,4.89,246.34.23,309.88-3.64,355.43,42,403.9,76c24.49,17.17,51.39,33.88,80.33,42.35,31.7,9.29,65.44,3,97.54,9.91,60.13,12.85,103.67,72.16,108.82,133.43,6.51,77.48-38.52,158.87-106.31,195.84-47.17,25.73-95.15,15.82-146.35,10.33-80.38-8.62-157.86-7.51-237.1,8.87C157,485.78,113.08,502.82,70,481.37,66.59,479.67,63.27,477.8,60.06,475.78Z"/></g><g id="Gift3"><path class="cls-2" d="M307.43,175.36c-4.25,0-7.4-1.22-9.51-3.72-5.07-6-1.35-16.48,2.67-24.25,4.4-8.51,8.79-15.26,13-20,8.75-9.87,15.64-9.56,19.88-7.57h0c13.4,6.29,19.9,14.09,19.32,23.18-.86,13.55-18,25.14-33.62,30.17A40,40,0,0,1,307.43,175.36Zm21.13-49.42c-5.43,0-13.43,9.14-21.52,24.79-4.54,8.77-5.07,14.46-3.58,16.22.56.67,3.21,2.59,13.52-.74,13.6-4.39,28-14.47,28.61-23.72.46-7.25-8-12.78-15.17-16.15A4.35,4.35,0,0,0,328.56,125.94Z"/><path class="cls-2" d="M288.58,178.49a39.82,39.82,0,0,1-11.8-2.18c-15.62-4.94-32.85-16.43-33.79-30-.63-9.08,5.82-16.91,19.19-23.28h0c4.23-2,11.12-2.36,19.92,7.45,4.28,4.76,8.71,11.49,13.16,20,4.06,7.74,7.84,18.22,2.81,24.23C296,177.22,292.83,178.47,288.58,178.49ZM265.3,129.6c-7.15,3.41-15.57,9-15.07,16.23.64,9.26,15.12,19.25,28.74,23.56,10.33,3.27,13,1.33,13.53.66,1.48-1.76.91-7.46-3.67-16.2-9.18-17.5-18.19-26.79-23.53-24.25Z"/><polygon class="cls-3" points="368.29 282.35 229.59 282.88 229.33 161.22 368.02 160.69 368.29 282.35"/><polygon class="cls-2" points="372.21 183.71 225.24 184.27 225.19 161.23 372.16 160.67 372.21 183.71"/><polygon class="cls-4" points="302.73 282.6 293.98 282.63 293.79 160.97 302.54 160.94 302.73 282.6"/><polygon class="cls-4" points="229.19 225.9 229.17 218.23 368.49 217.66 368.51 225.34 229.19 225.9"/></g><g id="Gift2"><path class="cls-5" d="M427,227.12c-4.18,0-7.28-1.21-9.36-3.66-5-5.88-1.32-16.22,2.63-23.85,4.33-8.38,8.65-15,12.83-19.74,8.61-9.7,15.38-9.4,19.56-7.44h0c13.18,6.19,19.57,13.86,19,22.8-.85,13.33-17.74,24.73-33.08,29.68A39.2,39.2,0,0,1,427,227.12Zm20.79-48.62c-5.35,0-13.21,9-21.18,24.39-4.46,8.62-5,14.23-3.52,16,.56.66,3.17,2.55,13.31-.73,13.38-4.32,27.56-14.22,28.14-23.33.45-7.13-7.87-12.57-14.92-15.88A4.22,4.22,0,0,0,447.82,178.5Z"/><path class="cls-5" d="M408.49,227.06a39.37,39.37,0,0,1-11.61-2.14c-15.36-4.87-32.32-16.17-33.24-29.49-.62-8.94,5.73-16.64,18.88-22.91h0c4.16-2,10.94-2.32,19.6,7.33,4.2,4.69,8.56,11.3,12.94,19.66,4,7.61,7.71,17.92,2.76,23.83C415.76,225.81,412.67,227.05,408.49,227.06ZM385.59,179c-7,3.35-15.32,8.84-14.82,16,.63,9.1,14.87,18.93,28.27,23.17,10.16,3.21,12.76,1.31,13.31.65,1.45-1.74.9-7.34-3.62-15.94-9-17.21-17.89-26.35-23.14-23.85Z"/><rect class="cls-6" x="313.28" y="205.41" width="211.59" height="188.08" transform="translate(-0.87 1.22) rotate(-0.17)"/><rect class="cls-7" x="306.77" y="205.41" width="224.21" height="56.05" transform="translate(-0.67 1.21) rotate(-0.17)"/><rect class="cls-5" x="405.8" y="190.13" width="19.5" height="218.67" transform="translate(713.8 -116.95) rotate(89.83)"/><rect class="cls-5" x="407.39" y="205.42" width="21.13" height="188.08" transform="translate(-0.87 1.21) rotate(-0.17)"/></g><g id="Gift1"><path class="cls-8" d="M243.6,292.57c-4,0-7-1.16-9-3.52-4.79-5.65-1.27-15.58,2.52-22.91,4.16-8.05,8.31-14.42,12.33-18.95,8.26-9.32,14.77-9,18.78-7.15h0c12.66,6,18.8,13.31,18.26,21.9-.81,12.8-17,23.75-31.77,28.51A37.78,37.78,0,0,1,243.6,292.57Zm20-46.7c-5.13,0-12.69,8.63-20.33,23.42-4.29,8.29-4.79,13.67-3.39,15.33.54.63,3,2.44,12.78-.7,12.85-4.15,26.48-13.67,27-22.42.44-6.84-7.55-12.07-14.33-15.25A4,4,0,0,0,263.57,245.87Z"/><path class="cls-8" d="M225.8,295.52a37.57,37.57,0,0,1-11.15-2.06c-14.76-4.67-29.27-15.59-30.15-28.39-.6-8.58,3.73-15.92,16.35-21.93h0c4-1.91,10.51-2.23,18.83,7,4,4.51,8.22,10.86,12.43,18.88,3.83,7.32,7.41,17.22,2.65,22.9C232.78,294.32,229.81,295.51,225.8,295.52Zm-22-46.19c-6.75,3.22-14.71,8.49-14.24,15.33.61,8.75,14.29,18.19,27.16,22.26,9.76,3.09,12.25,1.26,12.78.63,1.4-1.67.87-7.05-3.47-15.31-8.67-16.53-17.19-25.32-22.23-22.91Z"/><rect class="cls-9" x="149.13" y="278.95" width="172.72" height="114.95" transform="translate(-0.97 0.68) rotate(-0.17)"/><rect class="cls-10" x="143.85" y="278.95" width="183.02" height="21.77" transform="translate(-0.84 0.68) rotate(-0.17)"/><rect class="cls-8" x="224.68" y="278.85" width="20.26" height="115.06" transform="translate(-0.98 0.68) rotate(-0.17)"/><rect class="cls-8" x="228.35" y="249.31" width="14.36" height="173.5" transform="matrix(0, 1, -1, 0, 570.9, 99.55)"/></g><path class="cls-5" d="M138.07,288.13l-28.29,64.71,40.79,17.83L178.86,306l-6.06-19.68-15.9-6.95Zm26.77,5.58a4.51,4.51,0,1,1-2.32-5.94A4.5,4.5,0,0,1,164.84,293.71Z"/><path class="cls-11" d="M143.39,333.91a3.39,3.39,0,0,0-2.82,0,4.67,4.67,0,0,0-2.46,5.1,2.81,2.81,0,0,0,1.65,1.85,3.94,3.94,0,0,0,.73.25.53.53,0,0,0,.62-.31l.6-1.34a.55.55,0,0,0-.32-.74l-.27-.11a1.26,1.26,0,0,1,.1-2.32,1.49,1.49,0,0,1,1.08.1,2,2,0,0,1,1.18,1.29,3.07,3.07,0,0,1-.29,2.11l-.58,1.32a.54.54,0,0,0,.27.72l1.4.62a.23.23,0,0,0,.2,0l3.6-2.23a.27.27,0,0,0,.08-.1l1.37-3.09a.19.19,0,0,0-.1-.25h0a.19.19,0,0,0-.18,0l-3.84,2.38a5.35,5.35,0,0,0,0-3.15A3.47,3.47,0,0,0,143.39,333.91Z"/><path class="cls-11" d="M137.6,331l-.22.49a5.38,5.38,0,0,0-.82-.45,3.16,3.16,0,0,0-2.46-.18,3.31,3.31,0,0,0-1.73,1.87,8.07,8.07,0,0,0-.48,1.67,7,7,0,0,1-.39,1.49,3.79,3.79,0,0,1-.4.69.54.54,0,0,0,.2.83l.93.42a.56.56,0,0,0,.59-.1,3.55,3.55,0,0,0,.82-1.18,7.6,7.6,0,0,0,.41-1.38,7,7,0,0,1,.32-1.21c.17-.37.37-.58.61-.63a1.54,1.54,0,0,1,.92.18l.22.11.26.13-2.16,4.89-.33.73-4.13,9.32a.54.54,0,0,0,.28.72l1,.46a.54.54,0,0,0,.72-.28l2.68-6.05,1,.45a16.36,16.36,0,0,0,.46,6.71.24.24,0,0,0,.12.14l2.24,1a.23.23,0,0,0,.2,0l6.14-3.75v0h0l.87-2a.55.55,0,0,0-.28-.72l-9.67-4.28.36-.82.32-.73,3.39-7.64.32-.73,2.58-5.82,1,.43a9.52,9.52,0,0,0-.19,3.22,24.39,24.39,0,0,0,.69,3.5.23.23,0,0,0,.12.15l2.24,1a.23.23,0,0,0,.2,0l6.14-3.75v0h0l.87-2a.55.55,0,0,0-.28-.72l-6.49-2.87a3.2,3.2,0,0,1,1.47-1.54,2,2,0,0,1,1.76,0c.88.39,1.15,1,.79,1.79h0a.2.2,0,0,0,.1.26l1.75.77a.41.41,0,0,0,.55-.21h0a3.66,3.66,0,0,0,.16-3,4.55,4.55,0,0,0-6-2,6.22,6.22,0,0,0-2.75,2.89l-1-.42,2.4-5.42a.56.56,0,0,0-.28-.72l-1-.46a.55.55,0,0,0-.72.28l-6.07,13.69ZM142,346.91l-3.09,1.81a.54.54,0,0,1-.81-.38,16,16,0,0,1-.19-3.24Zm8.06-18.19-3.16,1.85a.55.55,0,0,1-.81-.35,10.41,10.41,0,0,1-.28-3.38Z"/><path class="cls-11" d="M152.65,309.85a.37.37,0,0,0-.2-.45h0c-1.58-.7-2.7-.95-3.89-.55a4.54,4.54,0,0,0-2.68,2.64,4.67,4.67,0,0,0-.28,3.57,4.18,4.18,0,0,0,2.36,2.38,4.08,4.08,0,0,0,3.25.22,4.23,4.23,0,0,0,2.21-2.33,5.31,5.31,0,0,0,.22-.61.53.53,0,0,0-.3-.66l-1.29-.57a.55.55,0,0,0-.73.3c0,.06,0,.13-.09.2a1.68,1.68,0,0,1-.87.94,1.48,1.48,0,0,1-1.28,0,1.73,1.73,0,0,1-1-.95,1.7,1.7,0,0,1,.1-1.4c.57-1.29,1.38-1.47,3-.77.17.08.35.16.53.26h0A15.5,15.5,0,0,0,152.65,309.85Z"/><path class="cls-11" d="M151.37,299.87l-2,4.47a2.31,2.31,0,0,1-1.08-.11c-.62-.28-.76-.81-.41-1.6h0a.43.43,0,0,0-.22-.57l-1.36-.61a.55.55,0,0,0-.7.24l-.23.44a3.58,3.58,0,0,0-.28,2.63,2.73,2.73,0,0,0,1.57,1.64,4.67,4.67,0,0,0,2.8.19l2.54,1.13a1.82,1.82,0,0,1,1.29,2h0a7.13,7.13,0,0,1-.74,2.08.56.56,0,0,0,.24.73c.31.16.64.32,1,.47a6.44,6.44,0,0,0,4.47.51,4.71,4.71,0,0,0,3-2.81,4.76,4.76,0,0,0,.16-4,5.42,5.42,0,0,0-2.95-2.76,8.88,8.88,0,0,0-5.81-.36l-.48.12,1.31-2.94a.55.55,0,0,0-.28-.72l-1.08-.48A.54.54,0,0,0,151.37,299.87Zm7.58,7.91a2,2,0,0,1,0,1.92,2.11,2.11,0,0,1-1.43,1.29,3.29,3.29,0,0,1-2.19-.28h0l0-.07a3.45,3.45,0,0,0,.14-2.75,3.62,3.62,0,0,0-2-1.93l-.48-.22a8.56,8.56,0,0,1,4.31.69A3.42,3.42,0,0,1,159,307.78Z"/></g></g></svg>