<svg xmlns="http://www.w3.org/2000/svg" viewBox="0 0 3 3"><g id="Layer_2" data-name="Layer 2"><g id="Layer_1-2" data-name="Layer 1"><path d="M3,1.5C3,1.73,3,2,3,2.19a.82.82,0,0,1-.83.8h-1A3.08,3.08,0,0,1,.64,3,.81.81,0,0,1,0,2.19c0-.37,0-.75,0-1.12A2,2,0,0,1,0,.65.78.78,0,0,1,.8,0H2.21A.82.82,0,0,1,3,.79C3,1,3,1.27,3,1.5Zm-2.75,0h0v.58s0,.08,0,.13a.54.54,0,0,0,.41.5,1.07,1.07,0,0,0,.25,0H2.19a.51.51,0,0,0,.53-.52q0-.71,0-1.41A.52.52,0,0,0,2.3.29a1.6,1.6,0,0,0-.23,0c-.42,0-.83,0-1.25,0A.52.52,0,0,0,.28.81C.26,1,.26,1.26.25,1.49Z"/><path d="M2.27,1.5a.77.77,0,0,1-1.54,0,.77.77,0,0,1,1.54,0ZM1.5,2A.51.51,0,1,0,1,1.5.49.49,0,0,0,1.5,2Z"/><path d="M2.31.52a.17.17,0,0,1,.18.17A.18.18,0,0,1,2.3.87.18.18,0,0,1,2.13.68.16.16,0,0,1,2.31.52Z"/></g></g></svg>