<svg xmlns="http://www.w3.org/2000/svg" viewBox="0 0 5 5"><defs><style>.cls-1{fill:#fff;}.cls-2{fill:none;}</style></defs><g id="Layer_2" data-name="Layer 2"><g id="Layer_1-2" data-name="Layer 1"><circle class="cls-1" cx="2.5" cy="2.5" r="0.5"/><path class="cls-1" d="M3.12,1.23H1.88a.65.65,0,0,0-.65.65V3.12a.65.65,0,0,0,.65.65H3.12a.65.65,0,0,0,.65-.65V1.88A.65.65,0,0,0,3.12,1.23Zm-.62,2a.73.73,0,1,1,.73-.73A.73.73,0,0,1,2.5,3.23Zm.93-1.5a.09.09,0,0,1-.08,0,.11.11,0,0,1-.08,0,.11.11,0,0,1,0-.16h0a.12.12,0,0,1,.17,0A.11.11,0,0,1,3.43,1.73Z"/><path class="cls-1" d="M4.3,0H.7A.7.7,0,0,0,0,.7V4.3A.7.7,0,0,0,.7,5H4.3A.7.7,0,0,0,5,4.3V.7A.7.7,0,0,0,4.3,0ZM4,3.12A.89.89,0,0,1,3.12,4H1.88A.89.89,0,0,1,1,3.12V1.88A.89.89,0,0,1,1.88,1H3.12A.89.89,0,0,1,4,1.88Z"/><path class="cls-2" d="M2.5,1.77a.73.73,0,1,0,.73.73A.73.73,0,0,0,2.5,1.77ZM2.5,3A.5.5,0,1,1,3,2.5.5.5,0,0,1,2.5,3Z"/><path class="cls-2" d="M3.12,1H1.88A.89.89,0,0,0,1,1.88V3.12A.89.89,0,0,0,1.88,4H3.12A.89.89,0,0,0,4,3.12V1.88A.89.89,0,0,0,3.12,1Zm.65,2.12a.65.65,0,0,1-.65.65H1.88a.65.65,0,0,1-.65-.65V1.88a.65.65,0,0,1,.65-.65H3.12a.65.65,0,0,1,.65.65Z"/><path class="cls-2" d="M3.26,1.58h0a.11.11,0,0,0,0,.16.11.11,0,0,0,.08,0,.09.09,0,0,0,.08,0,.11.11,0,0,0,0-.16A.12.12,0,0,0,3.26,1.58Z"/></g></g></svg>