<svg xmlns="http://www.w3.org/2000/svg" viewBox="0 0 5 5"><defs><style>.cls-1{fill:#fff;}</style></defs><g id="Layer_2" data-name="Layer 2"><g id="Layer_1-2" data-name="Layer 1"><path class="cls-1" d="M4.3,0H.7A.7.7,0,0,0,0,.7V4.3A.7.7,0,0,0,.7,5H4.3A.7.7,0,0,0,5,4.3V.7A.7.7,0,0,0,4.3,0ZM1.75,3.89a.05.05,0,0,1-.05,0H1.09a.05.05,0,0,1-.05,0V2a.06.06,0,0,1,.05-.05H1.7A.06.06,0,0,1,1.75,2ZM1.39,1.74a.4.4,0,1,1,.4-.4A.4.4,0,0,1,1.39,1.74ZM4,3.89a0,0,0,0,1,0,0h-.6a.05.05,0,0,1-.05,0V3c0-.27,0-.47-.26-.47s-.31.13-.31.45v1a.05.05,0,0,1,0,0H2.07a0,0,0,0,1,0,0V2s0-.05,0-.05h.58A.05.05,0,0,1,2.7,2v.13a.71.71,0,0,1,.53-.22c.68,0,.77.49.77,1Z"/></g></g></svg>