<svg xmlns="http://www.w3.org/2000/svg" viewBox="0 0 3 3"><g id="Layer_2" data-name="Layer 2"><g id="Layer_1-2" data-name="Layer 1"><path d="M1.5,3H.24A.21.21,0,0,1,0,2.76V.24A.21.21,0,0,1,.24,0H2.76A.21.21,0,0,1,3,.24V2.76A.21.21,0,0,1,2.76,3Zm.14-.43V2.49c0-.22,0-.43,0-.65a.57.57,0,0,1,0-.22c0-.09.12-.13.24-.12a.18.18,0,0,1,.18.14,1.52,1.52,0,0,1,0,.21v.72h.44c0-.3,0-.59,0-.89a1.45,1.45,0,0,0,0-.28.35.35,0,0,0-.15-.21.62.62,0,0,0-.68,0l-.09.1V1.14H1.19V2.57ZM.91,1.14H.46V2.57H.91ZM.68.94A.24.24,0,0,0,.94.69.25.25,0,0,0,.69.43.24.24,0,0,0,.43.69.24.24,0,0,0,.68.94Z"/></g></g></svg>