<?xml version="1.0" encoding="UTF-8"?>
<svg id="Layer_2" data-name="Layer 2" xmlns="http://www.w3.org/2000/svg" viewBox="0 0 495.64 259.57">
  <defs>
    <style>
      .cls-1 {
        fill: #f43131;
      }
    </style>
  </defs>
  <g id="Layer_2-2" data-name="Layer 2">
    <g>
      <path d="M315.01,123h-28.67s-.02,0-.03,0l-57.1,35.12c-1.81,1.11-3.08,2.92-3.51,4.99l-4.97,23.63c-.79,3.76,1.19,7.51,4.7,9.08,25.15,11.2,34.53,28.35,37.72,36.63,1.12,2.91,3.95,4.8,7.07,4.8h28.57c3.06,0,5.55-2.48,5.55-5.55v-87c0-1.65,1.59-2.86,3.17-2.39,12.21,3.64,18.71,14.62,21.32,20.28,.64,1.39-.4,2.98-1.92,2.9-6.77-.36-15.53,3.55-15.53,17.44,0,16.32,38.56,28.43,45.88-1.41,7.27-29.62-41.52-58.14-42.21-58.54,0,0-.01,0-.02,0Zm-36.31,72.91c-3.43-3.66-10.38-10.56-18.28-15.52-.91-.57-.94-1.89-.05-2.51l21.02-14.62c1.28-.89,3.01,.13,2.86,1.68l-2.94,30.1c-.13,1.29-1.72,1.83-2.61,.88Z"/>
      <path d="M177.71,84.16c7.2,1.37,15.62,4.25,23.27,10.09,2.41,1.84,5.73,1.97,8.32,.4,10.91-6.59,36.45-25.23,29.9-52.01C230.94,8.83,179.26-6.7,140.39,2.71c-22.09,5.35-69.43,23.14-54.32,75.73,.98,3.42,5.93,3.07,6.45-.45,2.76-18.54,12.42-48.75,45.9-56.95,41.17-10.08,83.11,9.32,69.51,40.63-3.9,8.98-17.5,13.4-30.43,16.82-3.01,.8-2.85,5.09,.21,5.67Z"/>
      <path d="M452.62,135.2c-30.84-17.01-29.86-21.26-29.3-21.97,.04-.05-2.31-7.6-2.37-7.6h-12.63c-4.3,0-7.61,3.79-7.03,8.05,.67,4.93,1.42,10.31,1.45,10.33,2.36,1.96,32.8,23.83,19.43,47.66-13.82,24.63-54.76,52.5-24.82,71.79,29.94,19.28,87.51,13.47,95.96-26.48,8.44-39.96-6.14-62.73-40.69-81.78Zm-6.68,82.71c-17.1,4.41-19.37-9.29-7.75-23,8.57-10.11,8.16-22.5,7.36-28.3-.15-1.08,1.15-1.76,1.94-1.01,22.46,21.28,14.96,48.04-1.54,52.3Z"/>
      <path d="M413.33,125.95c-24.37-.66-40.82-29.75-39.68-51.77,.81-15.73,11.02-32.74,27.15-36.42,15.7-3.57,34.29,3.81,40.22,19.48,.57,1.52-.97,2.97-2.48,2.38-12.65-5.02-29.77-4.39-36.09,9.69-9.8,21.84,11.4,44.51,28.12,55.54,.76,.5,.64,1.57-.27,1.55,0,0-16.96-.46-16.97-.46Z"/>
      <rect y="105.63" width="348.06" height="20" rx="5.1" ry="5.1"/>
      <rect x="409.49" y="105.63" width="81.94" height="20" rx="5.1" ry="5.1"/>
      <path class="cls-1" d="M417.64,134.86c-1.43-2.37-4.09-5.39-6.01-7.37-10.04-10.37-28.52-15.47-41.53-7.68-.99,.59-1.95,1.26-2.85,1.98-18.12,14.5-11.72,40.3-2.48,47.73,9.23,7.43,26.59,13.34,41.79-3.32,12.02-13.17-1.68-27.97-11.88-31.74-1.4-.52-1.19-2.51,.28-2.75,3.94-.63,8.19,.52,11.83,1.98,2.43,.97,4.35,2.77,6.52,4.24,2.39,1.61,3.02,3.25,8.9,9.14,.35-2.38-2.94-9.39-4.09-11.4-.15-.27-.31-.53-.47-.79Z"/>
      <path class="cls-1" d="M166.09,130.96c-2,1.7-2.96,2.14-.78,3.6,2.31,1.56,5.33,4.55,5.19,9.49-.21,7.95-6.66,12.9-15.15,12.47-8.49-.43-27.84-8.38-24.72-30.85,3.12-22.46,26.12-35.25,43.53-32.46,17.41,2.79,38.59,15.5,45.35,43.31,7.37,30.3-21.52,58.91-54.6,66.81-.04,.01-.05,.07-.01,.1,.97,.67,10.27,6.71,40.65,15.41,21.38,6.13,28.3,14.62,30.54,19.65,.94,2.12-.19,4.59-2.42,5.25l-52.37,15.66c-2.32,.69-4.72-.97-4.79-3.38-.27-8.72-7.87-27.94-60.01-51.79-2.21-1.01-2.64-3.26-.96-5.01l13.91-14.39c1.34-1.39,3.18-2.19,5.11-2.2,9.02-.07,38.16-1.65,48.83-23.19,10.61-21.41-9.92-34.76-17.29-28.49Z"/>
      <path d="M106.37,202.55c.75-2.25,3.12-6.73,9.38-12.97l-1.44-72.33s-.03-.06-.07-.06h-25.78s-.02,0-.03,0L7.72,161.11c-2.74,1.49-4.24,4.55-3.75,7.63l4.13,25.58c.48,2.94,2.55,5.36,5.38,6.32,30.93,10.51,51.81,30.53,59.71,39.11,2.39,2.6,5.77,4.06,9.3,4.06h29.9c3.22,0,5.8-2.66,5.7-5.88l-1.49-27.2c-8.08-3.47-11.02-5.84-10.24-8.19Zm-23.22-7.33c0,1.56-1.72,2.5-3.03,1.65l-24.02-15.51c-1.2-.77-1.2-2.53,0-3.3l25.54-18.87c1.31-.84,3.03,.09,3.03,1.65l-1.52,34.38Z"/>
    </g>
  </g>
</svg>