<svg xmlns="http://www.w3.org/2000/svg" viewBox="0 0 3 3"><defs><style>.cls-1{fill:#fff;}</style></defs><g id="Layer_2" data-name="Layer 2"><g id="Layer_1-2" data-name="Layer 1"><path class="cls-1" d="M3,2.28a1.52,1.52,0,0,0-.52-.45.3.3,0,0,0-.15-.05.19.19,0,0,0-.17.1A1.1,1.1,0,0,1,2,2a.24.24,0,0,1-.35,0L1,1.36A.24.24,0,0,1,1,1,1.1,1.1,0,0,1,1.12.87.19.19,0,0,0,1.21.76a.23.23,0,0,0,0-.21A1.52,1.52,0,0,0,.72,0,.24.24,0,0,0,.6,0,.28.28,0,0,0,.4.08L.26.22A.79.79,0,0,0,0,1a1.58,1.58,0,0,0,.46.73l.82.82A1.34,1.34,0,0,0,2.21,3h0a.83.83,0,0,0,.57-.26l.14-.14A.28.28,0,0,0,3,2.28Z"/></g></g></svg>