<?xml version="1.0" encoding="UTF-8"?>
<svg id="Layer_2" data-name="Layer 2" xmlns="http://www.w3.org/2000/svg" viewBox="0 0 3 3.03">
  <g id="Layer_1-2" data-name="Layer 1">
    <g>
      <path d="M1.5,3.03c-.45,0-.9,0-1.34,0-.11,0-.15-.05-.16-.16,0-.18,0-.35,.09-.51,.18-.37,.48-.58,.89-.59,.35-.01,.7,0,1.05,0,.51,0,.93,.4,.97,.91,0,.07,0,.14,0,.22,0,.09-.05,.14-.14,.14-.45,0-.91,0-1.36,0Z"/>
      <path d="M1.5,0c.42,0,.76,.34,.76,.76,0,.41-.34,.75-.75,.76-.42,0-.76-.34-.76-.75C.74,.34,1.08,0,1.5,0Z"/>
    </g>
  </g>
</svg>