<svg xmlns="http://www.w3.org/2000/svg" viewBox="0 0 4.86 4.86"><defs><style>.cls-1{fill:#fff;}</style></defs><g id="Layer_2" data-name="Layer 2"><g id="Layer_1-2" data-name="Layer 1"><path class="cls-1" d="M2.22,4.86V2.51H.32V4.66a.2.2,0,0,0,.21.2Z"/><path class="cls-1" d="M.21,2.05H4.65a.21.21,0,0,0,.21-.2V1.07a.21.21,0,0,0-.21-.2H.21a.2.2,0,0,0-.21.2v.78a.2.2,0,0,0,.21.2Z"/><path class="cls-1" d="M2.64,2.51V4.86H4.33a.21.21,0,0,0,.21-.2V2.51Z"/><path class="cls-1" d="M3.47.44a.65.65,0,0,0-1-.28A.67.67,0,0,0,2,0a.65.65,0,0,0-.62.44Z"/></g></g></svg>