<svg xmlns="http://www.w3.org/2000/svg" viewBox="0 0 3.84 3"><g id="Layer_2" data-name="Layer 2"><g id="Layer_1-2" data-name="Layer 1"><path d="M2,3A1.87,1.87,0,0,1,.6,2.42,2.49,2.49,0,0,1,0,1.62a.23.23,0,0,1,0-.2A2.29,2.29,0,0,1,1.31.12,1.72,1.72,0,0,1,3.12.47a2.68,2.68,0,0,1,.69.91.28.28,0,0,1,0,.25A2.48,2.48,0,0,1,2.59,2.86,1.68,1.68,0,0,1,2,3Zm0-.53a1,1,0,1,0-1-1A1,1,0,0,0,1.92,2.47Z"/><path d="M1.28,1.46a.44.44,0,0,0,.6-.59.61.61,0,0,1,.59.3.67.67,0,0,1-.06.75.65.65,0,0,1-.74.17A.63.63,0,0,1,1.28,1.46Z"/></g></g></svg>