<svg xmlns="http://www.w3.org/2000/svg" viewBox="0 0 3 3"><g id="Layer_2" data-name="Layer 2"><g id="Layer_1-2" data-name="Layer 1"><path d="M1.5,0H2.64A.33.33,0,0,1,3,.36V2.65A.33.33,0,0,1,2.65,3H.35A.33.33,0,0,1,0,2.65V.34A.33.33,0,0,1,.34,0ZM.67,1.69a.36.36,0,0,0,.15.21L1.05,2a.91.91,0,0,1-.61.17l.07,0a1.28,1.28,0,0,0,.9.11,1.23,1.23,0,0,0,.94-1.2A.13.13,0,0,1,2.41,1c.06-.05.1-.11.15-.16h0L2.34.9A.46.46,0,0,0,2.5.67L2.31.75a.13.13,0,0,1-.13,0,.43.43,0,0,0-.7.27,1.08,1.08,0,0,0,0,.18A1.34,1.34,0,0,1,.57.71a.48.48,0,0,0,.11.59L.51,1.25a.48.48,0,0,0,.34.44Z"/></g></g></svg>