<svg xmlns="http://www.w3.org/2000/svg" viewBox="0 0 5 5"><defs><style>.cls-1{fill:#fff;}.cls-2{fill:none;}</style></defs><g id="Layer_2" data-name="Layer 2"><g id="Layer_1-2" data-name="Layer 1"><path class="cls-1" d="M4.3,0H.7A.7.7,0,0,0,0,.7V4.3A.7.7,0,0,0,.7,5H4.3A.7.7,0,0,0,5,4.3V.7A.7.7,0,0,0,4.3,0ZM4,2a1.81,1.81,0,0,1-.44,1.18,1.68,1.68,0,0,1-1.3.57,1.75,1.75,0,0,1-.94-.28s0,0,0-.05a.05.05,0,0,1,.05,0h.14a1.17,1.17,0,0,0,.61-.17.64.64,0,0,1-.47-.43,0,0,0,0,1,0,0l0,0h.05a.63.63,0,0,1-.31-.55h0a.05.05,0,0,1,0,0h.05l.08,0a.72.72,0,0,1-.15-.42.63.63,0,0,1,.09-.33.05.05,0,0,1,0,0l0,0A1.67,1.67,0,0,0,2.68,2s0-.06,0-.08a.65.65,0,0,1,.65-.65.64.64,0,0,1,.45.19,1.43,1.43,0,0,0,.34-.14,0,0,0,0,1,0,0s0,0,0,0a.76.76,0,0,1-.13.23l.14-.05a0,0,0,0,1,.06,0,.06.06,0,0,1,0,.06,1.18,1.18,0,0,1-.29.3Z"/><path class="cls-2" d="M4.25,1.57a0,0,0,0,0-.06,0l-.14.05a.76.76,0,0,0,.13-.23s0,0,0,0a0,0,0,0,0,0,0,1.43,1.43,0,0,1-.34.14.64.64,0,0,0-.45-.19.65.65,0,0,0-.65.65s0,.05,0,.08a1.67,1.67,0,0,1-1.13-.6l0,0a.05.05,0,0,0,0,0,.63.63,0,0,0-.09.33.72.72,0,0,0,.15.42l-.08,0H1.4a.05.05,0,0,0,0,0h0a.63.63,0,0,0,.31.55H1.64l0,0a0,0,0,0,0,0,0,.64.64,0,0,0,.47.43,1.17,1.17,0,0,1-.61.17H1.31a.05.05,0,0,0-.05,0s0,0,0,.05a1.75,1.75,0,0,0,.94.28,1.68,1.68,0,0,0,1.3-.57A1.81,1.81,0,0,0,4,2V1.93a1.18,1.18,0,0,0,.29-.3A.06.06,0,0,0,4.25,1.57Z"/></g></g></svg>