<svg xmlns="http://www.w3.org/2000/svg" viewBox="0 0 5 5"><defs><style>.cls-1{fill:#fff;}.cls-2{fill:none;}</style></defs><g id="Layer_2" data-name="Layer 2"><g id="Layer_1-2" data-name="Layer 1"><path class="cls-1" d="M2.3,2.07a.12.12,0,0,0-.1,0,.09.09,0,0,0-.05.08v.65a.11.11,0,0,0,.05.09h.1l.63-.33a.1.1,0,0,0,0-.08.11.11,0,0,0,0-.09Z"/><path class="cls-1" d="M4.3,0H.7A.7.7,0,0,0,0,.7V4.3A.7.7,0,0,0,.7,5H4.3A.7.7,0,0,0,5,4.3V.7A.7.7,0,0,0,4.3,0ZM4,2.76a.86.86,0,0,1-.17.64.91.91,0,0,1-.64.16H1.81c-.69,0-.81-.27-.81-.8V2.24a.94.94,0,0,1,.11-.6c.1-.14.31-.2.7-.2H3.19c.38,0,.58.06.69.19A.92.92,0,0,1,4,2.24Z"/><path class="cls-2" d="M3.19,1.44H1.81c-.39,0-.6.06-.7.2a.94.94,0,0,0-.11.6v.52c0,.53.12.8.81.8H3.19a.91.91,0,0,0,.64-.16A.86.86,0,0,0,4,2.76V2.24a.92.92,0,0,0-.12-.61C3.77,1.5,3.57,1.44,3.19,1.44ZM2.93,2.57,2.3,2.9H2.2a.11.11,0,0,1-.05-.09V2.16a.09.09,0,0,1,.05-.08.12.12,0,0,1,.1,0l.63.33a.11.11,0,0,1,0,.09A.1.1,0,0,1,2.93,2.57Z"/></g></g></svg>