<svg xmlns="http://www.w3.org/2000/svg" viewBox="0 0 260.79 67.24"><defs><style>.cls-1{fill:#f43131;}</style></defs><g id="Layer_2" data-name="Layer 2"><g id="Layer_1-2" data-name="Layer 1"><path d="M39.81,1.16.63,32.71a1.69,1.69,0,0,0,0,2.63L39.81,66.89a.84.84,0,0,0,1.37-.66V61L7.73,34,41.18,7.08V1.82A.84.84,0,0,0,39.81,1.16Z"/><path class="cls-1" d="M41.16,57,12.63,34A29.5,29.5,0,0,1,41.16,57Z"/><path class="cls-1" d="M41.13,11.07,12.63,34A29.47,29.47,0,0,0,41.13,11.07Z"/><path class="cls-1" d="M130,41.39a12.83,12.83,0,0,0-4.18-9.7q-4.17-3.95-11-4-6.33,0-10.18,3.24a10.57,10.57,0,0,0-3.84,8.47,16.1,16.1,0,0,0,.26,2.89A2,2,0,0,0,103,44h5.49a2,2,0,0,0,2-2.2c0-.34,0-.71,0-1.08a4.54,4.54,0,0,1,1.27-3.32,4.94,4.94,0,0,1,6.82.11,5.5,5.5,0,0,1,1.31,3.88,7.43,7.43,0,0,1-2.61,6q-2.61,2.2-7.68,2.2h-5.42a2,2,0,0,0-2,2v5.73a.81.81,0,0,0,.35.67L115.57,67a.81.81,0,0,0,.46.14H128.7a.73.73,0,0,0,.73-.73h0a.72.72,0,0,0-.32-.6l-14-9.56a19.88,19.88,0,0,0,10.77-4.81A13,13,0,0,0,130,41.39Z"/><path d="M131,17.19h-2a20.45,20.45,0,0,0,.3-3.51c0-3.73-1.05-6.63-3.13-8.69s-5.1-3.09-9-3.09a28.35,28.35,0,0,0-6.45.89,27,27,0,0,1-5.71.9,13.35,13.35,0,0,1-3-.32,2,2,0,0,0-2.54,2V9.15A2,2,0,0,0,100.66,11a13,13,0,0,0,5.27,1,27.68,27.68,0,0,0,5.37-.71,27.32,27.32,0,0,1,4.63-.71c1.54,0,2.57.38,3.09,1.12a6.06,6.06,0,0,1,.78,3.43q0,.15,0,.9c0,.5,0,.87,0,1.12H58.44a2,2,0,0,0-2,2V23.5a2,2,0,0,0,2,2H83.25v4.1A61.11,61.11,0,0,0,61,41.41a.8.8,0,0,0-.31.64v9.17a.81.81,0,0,0,.35.67L83.18,67.24l.07-.07v.07h8a2,2,0,0,0,2-2V25.54h64.53v4a35.41,35.41,0,0,0-11.34,4.21,94.07,94.07,0,0,0-11,7.7.82.82,0,0,0-.3.64v9.17a.81.81,0,0,0,.35.67l22.17,15.35.08-.07v.07h8a2,2,0,0,0,2-2V38.6a12,12,0,0,1,7.5,2.68,7.8,7.8,0,0,1,2.64,6q0,5.45-4.92,5.45h0a.75.75,0,0,0-.75.74V60.7a1.55,1.55,0,0,0,1.55,1.54h0c4.43,0,7.89-1.31,10.41-4s3.76-6.29,3.76-11A15.47,15.47,0,0,0,182,34.53a23.2,23.2,0,0,0-14.1-5v-4h22.2a2,2,0,0,0,2-2V19.23a2,2,0,0,0-2-2H131ZM83.25,56.35,72.37,48.48a2.05,2.05,0,0,1,0-3.36,59.64,59.64,0,0,1,10.83-5.55Zm74.6,0-11.15-8a2,2,0,0,1,0-3.29,40,40,0,0,1,11.19-6.13Z"/><path class="cls-1" d="M226.48,36.6a1.39,1.39,0,0,0,1.23-1.38h0c0-6.49-.83-10.7-4-14.15s-7.56-5.17-13.13-5.17q-8.06,0-12.64,4.45A15.51,15.51,0,0,0,193.34,32q0,7.45,4.18,11.49t11.34,4a23.76,23.76,0,0,0,2.42-.14,2,2,0,0,0,1.83-2v-5.3A2,2,0,0,0,211,38h-.85a6.69,6.69,0,0,1-4.55-1.56A5.59,5.59,0,0,1,203.78,32a6.61,6.61,0,0,1,1.76-4.83,6.62,6.62,0,0,1,5-1.78c5.27,0,7.14,2.5,7.14,9.05,0,.69,0,1.42-.08,2.18h0A60.42,60.42,0,0,0,226.48,36.6Z"/><path d="M258.75,17H240.42a8.43,8.43,0,0,1-1.26-3.88c0-2.54,1.61-3.8,4.85-3.8h0a1.65,1.65,0,0,0,1.64-1.63V2.15a2.05,2.05,0,0,0-1.86-2C243,0,242.34,0,241.92,0q-6.19,0-9.44,3a10.26,10.26,0,0,0-3.24,7.88q0,4.71,3.58,9.89V31.19q0,6-4.85,7.45h0c-2.08.74-5.75.74-8.27.64a2,2,0,0,0-2.13,1.93c-.08,1.31-.12,2.66-.12,4.06q0,10.18,5,16.09t14.14,5.89q8.81,0,13.8-5.48t5-14.3q0-10.49-7.61-20.46l-1.12-1.44h12.06a2.05,2.05,0,0,0,2-2V19.08A2,2,0,0,0,258.75,17Zm-15.6,38a7.5,7.5,0,0,1-6.53,3.08,8,8,0,0,1-6.6-3,12.38,12.38,0,0,1-2.35-7.91v-.08h.3a12.78,12.78,0,0,0,9.62-3.69q3.58-3.69,3.58-9.85v-2a31.84,31.84,0,0,1,4.18,15.82A12.71,12.71,0,0,1,243.15,55Z"/></g></g></svg>